<mxfile host="app.diagrams.net" modified="2024-01-19T14:17:48.938Z" agent="Mozilla/5.0 (Windows NT 10.0; Win64; x64) AppleWebKit/537.36 (KHTML, like Gecko) Chrome/120.0.0.0 Safari/537.36" etag="65BT9JKJleqG6nHbC0MF" version="22.1.20" type="device" pages="2">
  <diagram name="Page-1" id="wRcSdKC8TBcQc0uevrIT">
    <mxGraphModel dx="1938" dy="2068" grid="1" gridSize="10" guides="1" tooltips="1" connect="1" arrows="1" fold="1" page="1" pageScale="1" pageWidth="850" pageHeight="1100" math="0" shadow="0">
      <root>
        <mxCell id="0" />
        <mxCell id="1" parent="0" />
        <mxCell id="EgmyeOnUa9uOQUDKkjH2-1" value="&lt;b&gt;&lt;font style=&quot;font-size: 19px;&quot;&gt;ClipBoard Monitoring&lt;/font&gt;&lt;/b&gt;" style="sketch=0;pointerEvents=1;shadow=0;dashed=0;html=1;strokeColor=none;fillColor=#505050;labelPosition=center;verticalLabelPosition=bottom;verticalAlign=top;outlineConnect=0;align=center;shape=mxgraph.office.concepts.clipboard;" parent="1" vertex="1">
          <mxGeometry x="850" y="350" width="92.31" height="120" as="geometry" />
        </mxCell>
        <mxCell id="EgmyeOnUa9uOQUDKkjH2-11" style="edgeStyle=orthogonalEdgeStyle;rounded=0;orthogonalLoop=1;jettySize=auto;html=1;strokeWidth=3;" parent="1" source="EgmyeOnUa9uOQUDKkjH2-1" target="EgmyeOnUa9uOQUDKkjH2-10" edge="1">
          <mxGeometry relative="1" as="geometry" />
        </mxCell>
        <mxCell id="RJNnpo1TXb0C2KNn-CQi-5" style="edgeStyle=orthogonalEdgeStyle;rounded=0;orthogonalLoop=1;jettySize=auto;html=1;strokeWidth=3;" parent="1" source="EgmyeOnUa9uOQUDKkjH2-4" target="RJNnpo1TXb0C2KNn-CQi-4" edge="1">
          <mxGeometry relative="1" as="geometry" />
        </mxCell>
        <mxCell id="EgmyeOnUa9uOQUDKkjH2-4" value="&lt;b&gt;&lt;font style=&quot;font-size: 17px;&quot;&gt;Main Script&lt;/font&gt;&lt;/b&gt;" style="shape=image;html=1;verticalAlign=top;verticalLabelPosition=bottom;labelBackgroundColor=#ffffff;imageAspect=0;aspect=fixed;image=https://cdn1.iconfinder.com/data/icons/hawcons/32/699751-icon-105-document-file-exe-128.png" parent="1" vertex="1">
          <mxGeometry x="330" y="320" width="128" height="128" as="geometry" />
        </mxCell>
        <mxCell id="Z_yjJs6k6-w_ERn2kx-L-14" style="edgeStyle=orthogonalEdgeStyle;rounded=0;orthogonalLoop=1;jettySize=auto;html=1;strokeWidth=3;" parent="1" source="EgmyeOnUa9uOQUDKkjH2-10" target="Z_yjJs6k6-w_ERn2kx-L-13" edge="1">
          <mxGeometry relative="1" as="geometry" />
        </mxCell>
        <mxCell id="EgmyeOnUa9uOQUDKkjH2-10" value="&lt;b&gt;&lt;font style=&quot;font-size: 19px;&quot;&gt;Clipboard History&lt;/font&gt;&lt;/b&gt;" style="shape=image;html=1;verticalAlign=top;verticalLabelPosition=bottom;labelBackgroundColor=#ffffff;imageAspect=0;aspect=fixed;image=https://cdn2.iconfinder.com/data/icons/boxicons-solid-vol-2/24/bxs-file-txt-128.png" parent="1" vertex="1">
          <mxGeometry x="1050" y="250" width="140" height="140" as="geometry" />
        </mxCell>
        <mxCell id="Z_yjJs6k6-w_ERn2kx-L-9" style="edgeStyle=orthogonalEdgeStyle;rounded=0;orthogonalLoop=1;jettySize=auto;html=1;strokeColor=#FF2B5D;strokeWidth=3;" parent="1" source="Z_yjJs6k6-w_ERn2kx-L-6" edge="1">
          <mxGeometry relative="1" as="geometry">
            <mxPoint x="124" y="210" as="targetPoint" />
          </mxGeometry>
        </mxCell>
        <mxCell id="Z_yjJs6k6-w_ERn2kx-L-6" value="" style="sketch=0;pointerEvents=1;shadow=0;dashed=0;html=1;strokeColor=none;fillColor=#505050;labelPosition=center;verticalLabelPosition=bottom;verticalAlign=top;outlineConnect=0;align=center;shape=mxgraph.office.concepts.script;" parent="1" vertex="1">
          <mxGeometry x="300" y="90" width="86.53" height="80" as="geometry" />
        </mxCell>
        <mxCell id="Z_yjJs6k6-w_ERn2kx-L-10" value="&lt;b style=&quot;border-color: var(--border-color);&quot;&gt;&lt;font style=&quot;border-color: var(--border-color); font-size: 16px;&quot;&gt;VBS Script&lt;/font&gt;&lt;/b&gt;" style="text;html=1;strokeColor=none;fillColor=none;align=center;verticalAlign=middle;whiteSpace=wrap;rounded=0;" parent="1" vertex="1">
          <mxGeometry x="316.26" y="47" width="60" height="30" as="geometry" />
        </mxCell>
        <mxCell id="Z_yjJs6k6-w_ERn2kx-L-11" value="&lt;font style=&quot;font-size: 19px;&quot; color=&quot;#ff2b5d&quot;&gt;&lt;b&gt;Delete Edge.exe And Himself&lt;/b&gt;&lt;/font&gt;" style="text;html=1;align=center;verticalAlign=middle;whiteSpace=wrap;rounded=0;" parent="1" vertex="1">
          <mxGeometry x="155" y="30" width="90" height="53" as="geometry" />
        </mxCell>
        <mxCell id="RJNnpo1TXb0C2KNn-CQi-3" style="edgeStyle=orthogonalEdgeStyle;rounded=0;orthogonalLoop=1;jettySize=auto;html=1;strokeWidth=3;" parent="1" source="Z_yjJs6k6-w_ERn2kx-L-13" target="RJNnpo1TXb0C2KNn-CQi-1" edge="1">
          <mxGeometry relative="1" as="geometry" />
        </mxCell>
        <mxCell id="Z_yjJs6k6-w_ERn2kx-L-13" value="&lt;b&gt;&lt;font style=&quot;font-size: 19px;&quot;&gt;Google Drive API&lt;/font&gt;&lt;/b&gt;" style="image;sketch=0;aspect=fixed;html=1;points=[];align=center;fontSize=12;image=img/lib/mscae/API_Management.svg;" parent="1" vertex="1">
          <mxGeometry x="1290" y="378" width="107.14" height="90" as="geometry" />
        </mxCell>
        <mxCell id="RJNnpo1TXb0C2KNn-CQi-1" value="&lt;b style=&quot;font-size: 19px;&quot;&gt;&lt;font style=&quot;font-size: 19px;&quot;&gt;Google&lt;/font&gt;&lt;font style=&quot;font-size: 19px;&quot;&gt; &lt;/font&gt;&lt;font style=&quot;font-size: 19px;&quot;&gt;Drive&lt;/font&gt;&lt;/b&gt;" style="dashed=0;outlineConnect=0;html=1;align=center;labelPosition=center;verticalLabelPosition=bottom;verticalAlign=top;shape=mxgraph.weblogos.google_drive" parent="1" vertex="1">
          <mxGeometry x="1460" y="300" width="89.3" height="78" as="geometry" />
        </mxCell>
        <mxCell id="RJNnpo1TXb0C2KNn-CQi-31" style="edgeStyle=orthogonalEdgeStyle;rounded=0;orthogonalLoop=1;jettySize=auto;html=1;strokeWidth=3;" parent="1" source="RJNnpo1TXb0C2KNn-CQi-4" target="RJNnpo1TXb0C2KNn-CQi-8" edge="1">
          <mxGeometry relative="1" as="geometry" />
        </mxCell>
        <mxCell id="RJNnpo1TXb0C2KNn-CQi-4" value="&lt;b&gt;&lt;font style=&quot;font-size: 23px;&quot;&gt;Drive&lt;/font&gt;&lt;/b&gt;" style="sketch=0;pointerEvents=1;shadow=0;dashed=0;html=1;strokeColor=none;fillColor=#505050;labelPosition=center;verticalLabelPosition=bottom;verticalAlign=top;outlineConnect=0;align=center;shape=mxgraph.office.devices.hard_disk;" parent="1" vertex="1">
          <mxGeometry x="540" y="234" width="77.04" height="104" as="geometry" />
        </mxCell>
        <mxCell id="RJNnpo1TXb0C2KNn-CQi-22" value="" style="group" parent="1" vertex="1" connectable="0">
          <mxGeometry x="920" y="40" width="114" height="120" as="geometry" />
        </mxCell>
        <mxCell id="RJNnpo1TXb0C2KNn-CQi-14" value="" style="verticalLabelPosition=bottom;html=1;verticalAlign=top;align=center;strokeColor=none;fillColor=#00BEF2;shape=mxgraph.azure.startup_task;pointerEvents=1;" parent="RJNnpo1TXb0C2KNn-CQi-22" vertex="1">
          <mxGeometry width="114" height="120" as="geometry" />
        </mxCell>
        <mxCell id="RJNnpo1TXb0C2KNn-CQi-20" value="" style="shape=image;html=1;verticalAlign=top;verticalLabelPosition=bottom;labelBackgroundColor=#ffffff;imageAspect=0;aspect=fixed;image=https://cdn1.iconfinder.com/data/icons/material-core/22/visibility-off-128.png" parent="RJNnpo1TXb0C2KNn-CQi-22" vertex="1">
          <mxGeometry x="18.428571428571427" y="29.142857142857142" width="77.14285714285714" height="77.14285714285714" as="geometry" />
        </mxCell>
        <mxCell id="RJNnpo1TXb0C2KNn-CQi-25" value="&lt;b&gt;&lt;font style=&quot;font-size: 17px;&quot;&gt;Hidden Exe&lt;/font&gt;&lt;/b&gt;" style="text;html=1;strokeColor=none;fillColor=none;align=center;verticalAlign=middle;whiteSpace=wrap;rounded=0;" parent="1" vertex="1">
          <mxGeometry x="947" y="170" width="60" height="30" as="geometry" />
        </mxCell>
        <mxCell id="RJNnpo1TXb0C2KNn-CQi-32" style="edgeStyle=orthogonalEdgeStyle;rounded=0;orthogonalLoop=1;jettySize=auto;html=1;entryX=0;entryY=0.5;entryDx=0;entryDy=0;entryPerimeter=0;strokeWidth=3;" parent="1" source="RJNnpo1TXb0C2KNn-CQi-8" target="RJNnpo1TXb0C2KNn-CQi-14" edge="1">
          <mxGeometry relative="1" as="geometry" />
        </mxCell>
        <mxCell id="RJNnpo1TXb0C2KNn-CQi-37" value="" style="group" parent="1" vertex="1" connectable="0">
          <mxGeometry x="720" y="124" width="129.20000000000005" height="136" as="geometry" />
        </mxCell>
        <mxCell id="RJNnpo1TXb0C2KNn-CQi-8" value="&lt;b&gt;&lt;font style=&quot;font-size: 19px;&quot;&gt;Startup Exe&lt;/font&gt;&lt;/b&gt;" style="verticalLabelPosition=bottom;html=1;verticalAlign=top;align=center;strokeColor=none;fillColor=#00BEF2;shape=mxgraph.azure.startup_task;pointerEvents=1;" parent="RJNnpo1TXb0C2KNn-CQi-37" vertex="1">
          <mxGeometry width="129.2" height="136" as="geometry" />
        </mxCell>
        <mxCell id="RJNnpo1TXb0C2KNn-CQi-36" value="" style="shape=image;html=1;verticalAlign=top;verticalLabelPosition=bottom;labelBackgroundColor=#ffffff;imageAspect=0;aspect=fixed;image=https://cdn1.iconfinder.com/data/icons/hawcons/32/699269-icon-40-file-exe-128.png" parent="RJNnpo1TXb0C2KNn-CQi-37" vertex="1">
          <mxGeometry x="10.000000000000114" y="8" width="58" height="58" as="geometry" />
        </mxCell>
        <mxCell id="RJNnpo1TXb0C2KNn-CQi-38" style="edgeStyle=orthogonalEdgeStyle;rounded=0;orthogonalLoop=1;jettySize=auto;html=1;strokeColor=#FF2B5D;strokeWidth=3;" parent="1" source="RJNnpo1TXb0C2KNn-CQi-8" target="EgmyeOnUa9uOQUDKkjH2-1" edge="1">
          <mxGeometry relative="1" as="geometry" />
        </mxCell>
        <mxCell id="K7G8ma2IfaW5JR1ybiTk-3" style="edgeStyle=orthogonalEdgeStyle;rounded=0;orthogonalLoop=1;jettySize=auto;html=1;fontSize=12;strokeWidth=3;" parent="1" source="K7G8ma2IfaW5JR1ybiTk-2" target="Z_yjJs6k6-w_ERn2kx-L-6" edge="1">
          <mxGeometry relative="1" as="geometry" />
        </mxCell>
        <mxCell id="K7G8ma2IfaW5JR1ybiTk-4" style="edgeStyle=orthogonalEdgeStyle;rounded=0;orthogonalLoop=1;jettySize=auto;html=1;entryX=0;entryY=0.75;entryDx=0;entryDy=0;strokeWidth=3;" parent="1" source="K7G8ma2IfaW5JR1ybiTk-2" target="EgmyeOnUa9uOQUDKkjH2-4" edge="1">
          <mxGeometry relative="1" as="geometry" />
        </mxCell>
        <mxCell id="dwZVEHyLOAlSRewtTifx-8" style="edgeStyle=orthogonalEdgeStyle;rounded=0;orthogonalLoop=1;jettySize=auto;html=1;strokeWidth=3;" parent="1" source="K7G8ma2IfaW5JR1ybiTk-2" edge="1">
          <mxGeometry relative="1" as="geometry">
            <mxPoint x="458.913043478261" y="3" as="targetPoint" />
          </mxGeometry>
        </mxCell>
        <mxCell id="K7G8ma2IfaW5JR1ybiTk-2" value="Microsoft_Edge.exe" style="shape=image;verticalLabelPosition=bottom;labelBackgroundColor=default;verticalAlign=top;aspect=fixed;imageAspect=0;image=data:image/x-icon,AAABAAgAAAAAAAEAIADnaAAAhgAAAEBAAAABACAAKEIAAG1pAAAwMAAAAQAgAKglAACVqwAAKCgAAAEAIABoGgAAPdEAACAgAAABACAAqBAAAKXrAAAYGAAAAQAgAIgJAABN/AAAFBQAAAEAIAC4BgAA1QUBABAQAAABACAAaAQAAI0MAQCJUE5HDQoaCgAAAA1JSERSAAABAAAAAQAIBgAAAFxyqGYAAAAJcEhZcwAADsMAAA7DAcdvqGQAACAASURBVHic7L17uGVVdSf6m2ufU7wsq0ABg2mr1DYxAalSREFRDl6T2+mYpNIJdtKxm5PPXP1u+nYk/UiwzaOSXJMifW+6zNf52phEilxvooKxDBrNheQcQBRFFBA0gsApoQqooqg61LvO2XvcP+ZrjDHnXGvtc/Z51h71ndprzfeaa47fGHPMMecyGNKKpYtu/+56AJvtHY2RvdgI0EaXZD2ATQCpnGRDjL3WcfzaGADA7Sxuyv4RANxngIMAHXzwLRffN59nGdLSkFnqBgypmV5z++ObAdpIltk3A7QewJWRWYn9L69K93kASNMZg0K8vTY83GAaoPsATBkLEvcBmPrmFZuH4LBMaQgAy4wuvn3XZgKNwTL6ZgCbgMCyyDPsfACgVKa9bgIAW0wAgJiPpzGAAd0Pqz3cB9AkgPseePPrDmJIS0pDAFhiuvj2740BGINl+iuBPLPXA0C81lCQpnNlNTK/vTct0plMeRkASPMb2mWASThQuP9Nrx9qCotMQwBYZNo0+eRmWIbfQqArNeNQgdHy4TkA0Eys09UBQFpmKw3AyPZo5o8aQVqfzRvyTwOYNAaTAE3ed/kbhoCwwDQEgEWgTZN7tgC0BZbxN9hQKjJivQbAwxcTANpME0rTggwwiLwKQIxPT9MAdsLQpAF2fv2yy4ZThgHTEAAWiDZPPrXFSnlsAbAuZdo2AMDSIU2XA4IUAFJAkPWWyrTXzRpAPk1g9pJdAKnmkAGAqEHY3/sB7DCgnfe+8U1TyYMNqW8aAsAAafPk05sBXOuk/TogJ83rASDH7AsLAPO1AZRAwjG8WmkQtgCjQUECANcQjEvP4u83oB0A7fzaG66YSh5ySK1oCADzpNdO7t0IYAtA1xJT7z0NAgDy5ZTK1DQoDWBuWkIKAiS0gzoAyGgAEhxCGVYzAGjnPZe+dSp54CEVaQgAc6TXTu4bA+haAD9lQzzzycHcLwDIPHXllMpEJl6XhZY2gJyanl43A0AmjDO3ylsHAFIrIKFFuLo+Y4AdX3n9lTsxpEYaAkAf9LrJZ9fDzum3ArShDcPXAQAAUIbB+l8GHBQAzHcK0C5NOwCQBsL8tIDAVxGYRgBjaBdAOwDsuPuSt01hSFkaAkALumTyufVO2l8L0DrO+E3Sen4agCw7Bzj5NDpcl49WbsAA5j0FsGW00QAyDF4EACb1PVgAThuQ6dzvZwBs//Lr3j6JIQkaAkANvX7ywEaAthJwTV7K5hm8KZ7/kkkZpj8AKNctSQNAveo/fwCo1xKEei/qS4FAh1eRsWNaJv15XJwmEGBwP0Dbv/TaH92BIQEYAkCWLONjK0DXAEgYL3/PU7afBrSdArQFAN2iNC2U5pHG83vTQlOYyzShHgDqpX/I79Jppi9qBlFD2GUMbQVo5xc3/9gp7VswBABGr588uB6W8d8XQ0n9r+/LDE7iN8McpslwqOssM30eQHRaFj9nAJBptXpfuhYMDTANZBAA0AvxletTo7QEqQk4+wEwDUPbAdp+56YfPyWBYAgAAC6dnF5PYY7PnXaAOsks5/o8bYt448PTuuoMfk1TCplGl8Fi+14FaBOfB6isp2AtAEDM54WhLxOe2AO4LUAwvUrn3oP1OKTtd2x6x1acYnTKA8Clk9PjALbGNXwgz3g8PM+MrQHC5MLLQIOknHxcml8/C4vNqvYyrIn5JXPr+DIAFI2CqNMANNPr5UA5FUhsAaGM/LTBmB4A2mUMtk6+5id3ZDpmVdIpCwCXTj4/BmA72IEZdSp2PQDosAIgZFxf2wBLfwBQMgSq0Ma5fTsAsOnKddUDgLsX0hoZ6c/z9tI0GQlfAgBlFJSgEfPtMobG//Gin57EKqdTDgAunTy0HsB2OAOfpToA4DFtJb6/6x8Amub5cwcA3k5kAKBJupfLqzcU9qEBFAFAaiVlSz9CuEyTcx6KeSyopIAA0O3G0Pg/XPgzU7onVgudUgDwhslD42Sl/jobUmLYujgSoTys9t7wkBotoQEA5P/5tM0aAGXefB1z16ex6Zo0gFxaz8Du2kAyKCQASMZ2ZWvGBVJjX0b61xkHM/l+xxjafusPv3PVGQpPCQB4w+ThjQB2ALiyaWNN3oJeJ6lbAAIbxGW/gfZSvp2WUGZWAMr/oD59fplPp8m3qckACEBIbnDGBMqqfrDkZyW3TJNT/8EcikqML+wNtAuga2/94X+9qlyMVz0AvGHy8LUAtiLZneepjRbQ7xSA3YvBXmbuphWFunrqAcKFGxTidB1p2MIDgJT+ISzkL08T6iz8cgNRmbkj46v0mXyV6X0Ghsb//tX/ZlVoA6sWAN44eWQjWV/wK3l4GQDKkryNBpBnfn9fnzYHDPNZCqxb528HAGma+TgENU0BfBrP9FKiu3gPFtk5fbwuMXtetYcL6+V9DYS20OO2gmkDGv/Cq39hxWsDqxIA3jh5ZAuAHQRal09Rp2b3CwAxnHR8FgBK2kSuvlz7ShpCM/OX2L8NAABNqwI5APCMJNOmln0p9VsBAFCwFUSGbwaAmrBkqpCmrUzvMwDG/+4H/92K1QZWFQC8cfLoeoC2A7jGh9VJvDwj6TwEwVwip2TuhImNvO9bg1DtbR1Xs8afhrbRCGJ47dbfOWoAiVtw3RIfY1AZrzWEJo2gly4DggAv5XVZobyeLn8aoPHP/cD4itQGqqVuwKDojZNHNwOYBMw1c8O1XJ465igxSVPagnQN9Rt13778vHW/VC9lwsrtC3XUPHYpzoabxnSRyf19qd8MHLqKKAEaxefzWYyLJmakZen56oMqL7TPgtA6AJ9+xyMf3V6sbBnTqtAALps8Ng7QdgrLe0BeWsq4ND4vjfPhJet9VGOTsJAuL8Hz5eXyp88Ryq3ZmFOaAEiqBwBPJeefduFSK0gcgbhEhloK5BpB1uGnJ5f5WtgE4CS7VPOZpC9MKTJTifsBGr/lVb+0Yk4zXvEawGWTx7YDuAGC+SPVS9I6yZwHAaHKtmhffZoS8/P4NgxZansubi401zLm1g7dZ1QIj5Lf//peNEyPiAwKxrQhnIGFnRIgrkS0FY8mtGGTMZj8ye/+2ZaWOZecVqwGcNnksfWwH5XYZEM0C5WkvIyrl+TN4dIOwO5NKU1JK0jblSu/th0FI5zOWU/tNAAfVr/MF8MT77+MBtA4r9fp9HJdwbhXWuNPvQV52p6c99eWh1xZH/rMK99zbbmflwetSAC4fPL4ZgLtBLBBxpTdYOsNZzKsBAAxtpw23JtcGhIheZCqS9fgj9Dgk1/P/nWxZVCYMwAAbM3fl0UirugLAKfqJwCgwaPM1Dnnnzwg9MI0gJenpxpZIDK92w1oy6df8cvLdpVgxU0BLp88vgVW8m/IxZvMVZkM+3/pKL/mj2xY0lbD/mpqGDz1V2ad8TAAGdkHIQAgr8abYESU4O4NgfxXQmpQ94Wjj6QEv4wKz7ZVixm12oDgM3AlgMl/9fifbK57+qWkFQUAl08eHwfwaQDr2lnJI+VTUza+/uXXp4jqP8+R00s0R+Q1jnI8Ggar1oBKaagYW87Zlvl5ukwrgyVfxoklP3Hv4r2moxicTxsIJgCKr4eSrpNTDtkfvuz4LAGShM2ApHaT+kpsAmjyZ6b+eFmCwIoBgMsnj3tjX6AUBPqV6NFQ1EY9LjNvrk0m+V+2eJ56R+JNV2pXKWyQWkFTGwqU8QhUCRprK6WIUww2HcuqT8SNeDFJzt+B2y0MBwhSnoLaX4HWAfSNn5360Hi2uUtIKwIALp88vgPA+5rSNRFHfYjrJn1iLlMFO0D0nD1ljzbSl/0atGD+OqbvR3rPR/rXUVTz/T3/zcOCYW+rTRuo8X2FzUDFVuq65HXYi6A0iWBLYL/uyW64etd/H2/R+EWjZQ8AjvmvGVR5eVav24Cj7xtU80QFTOsql1mq31ErJ5/89eLYOVwvhmplrUTNEj1HekrANTfusJOW22YJOGP8E/2W+gKkAGRYeSVDQ5hO3PDOXX+0o6Zhi0pLbf8q0psmT6x3lv4r69LVLfGVmbp5d1+Mz4Xl8wBw22zr8jStCmTyKieafDvSZ9TXzXKzjTYiqbQ/oHSYiLCaA2wlQKrWYocg4jy7bkkvLtehZiWAUJlu0frP3YFFPmH1V6sB0epfeI5s3hs/8bL/PF7T4YtCy1IDeNPkifUAJg1MLfPniauRdSosZUPrQhrLyqiURqXNlVprdJw3RLdh6n6mBk2UGtwGWS6fX3OpHU9Ydk/iX0myEtDTBctySv2QaC+WsX0eoTWw8AAeqf/BNT/3xB/u6K8PBk/LDgA88yM4+PRLXlLUk54K9D+/57naqJo8ZZ36z9P206qS9M+lIdTVW192m/CcBpCkUC3W8/8MwzW0Nb4NDxAyPD8lUmUaFae0C8nEmmIbxbTBP1HqM3DNzz+xbUftQy0wLSsAeNPEyfUgyfz9LvdJqpOt/YuoNhb8+v0C6ZShjkptzNUe2acMBCn4tKG69KV+MC00AJdAS1Zi5RIDBJ/O+wd4nwG21MfD+dIf8XLJyd9QMPc1AHvczBSLP5PSRJL7oBX4a98zTBuwQdf8myd/f0dTby0ULSsAALATGclfAoEmJh60gYOSK/bbqrImriiBgx6M/UjvtnXPNU9bEPAMmbf4R53dX+s+VcAmlvjKv3lNRBkns89hopTnNgdDALTqT6oUxvgm5osfMInpKtOFQe+aX9j9f+7ItXShadkAwJsmTu4AcKVF6XZ5UmAgdTeXQV9HdWr23OvKLw4SY4amWvpdXmxuUX/560CgLQzn03Hnn2jci83jK6LKVirLCJZ47hVIkMZAQNoWoApjKkm2vWm/8a8W2efg4NCL4aBr3rX793ZkO2EBaVkAgGP+a2JIOxBIh/1cZL6Wqm2J+QYULN7yer6HccyHdHua/haLtFag4oixB1PxvYtwc8n8nlsVMs8ZpgpsiTFXbpjXx/gg9b2d0q1e6INP/DXfS+DLtOX0rvm3e7aO1z7YgGnJAeBNEyfFCT4lyk0D2rnvNJcsy+qPAZqBoyQp2oTlakqnH2l4naayUDR38BVtJFWW5Uo1n+bPaMIfiWteQEZQBJuCD8qs8xtZUq7lUYuoqw+q7PT92BOKCAZ0w7/b81vj2UoXgJYUAN48MTOOoodf+6nAYKmPgdwsiFpQ3UPWaQ914fmyBz8l0lSw1Whhq+5N8q5JxOY6OmvFp3gR4p3GQGSyTCst+pY5JXh4aJFakpDwOUHPyovLjzlg8O0RwTdc89RvLsregSUDgDdPzGwBcEO9FJcDw7h/KkULGszAD3UbgK87x1ooc5f+31+bCnPRYpo25Swk9YOIUuvy7MZXBnKW9IRIz69lFZHRAdmH+Slk82pJqj34Ob12D45tjM8SVwGc1Dc9GPRCvS5+cvypDyw4CCwJALx5YmYz7Ic6VhSR0UhdhP66UmrCPCMQYJqZvD5kSdQnR2WjoPglFU4Gut3tnyjAh6otz+RRq8hNK/xkQkt9FVb0B/Bl9CJz+7MFQhyv17XIdLkH4ToY2vGLT79/fe1jz5MWHQDePDGzHna5LxzhlZPskeY6FehPwpaX1kwcK7m2iV9eXq7stO42bF3f3nKa+noWk5wKzub3OcOfZQYJDilDt6otSmVeWKiDM7LyA6ilFGQ0M1tVv5fXRgDEU4dLAC/cljfB0I42LZsrLYUGMInCYR5FUlI3tfDGOB3aPGi0EdDIqMbNPfl60+u5k56TluvOxS0s6xOlc3pL/T87Lbjdp74n0ykCWz0Q6425lYB2wM3Tp5uPuDNRSPdT737m17Y2FD5nWlQAuGJi1n2OO09FLWCea8msoBZhgxyBbZTWurRaK5kboCyG9PdAkHP+yVGOYWSY6eO9i5YUtKo6Zi0xYEErJF1KTJcLk9MI7hDENwipU4mZFgPQb797738Zq33sOdKiAcAVE7PjaLGnPwsCpnhTE9rfsK8/Pjz9kEe5jnYaQ2kHYFO+udW7uBMACQTqzejwImBQS+0rpWhajAp/tgmZO5u65TsJ0xQ+5dCrCrmyeVz+XXLbgW0+7fylvf9pY7kxc6NFAYArJmY3w36Wu2auPwharIGeIr0M0SCRquKyH5TxS80fyz3WDxAs/HQgqbGkEZBqiRawjDeIxZfCZVHeYagk6fWafbwOb4oMk8K8VJdCbQoiURa5eT4z/LHtwD6tkWp+9lqBxDosgOF8wQHgionZ9bANF0a/OuoPJPiSUdP8W4e1lbz9UXkZSUsWfu1z1TFwqdy69KU2LB4YRBDI1Zljx7jcavgtM9MYmVXXmF5SzND85BTluFf3A2gpOwXb8eeXGmMtqSDQ2oKO5/d8H4NLe+Uv7f2PWxub3wcthgZQO+8vUem8v/R6kNSk5uevmzbnNC2KtWtTXXiu/jalLwYYtC07t6LSPOGKMemzlNKXvPHqQDu49zIGTlQZii3gexc06IflRLGTMKYV5wlwzcNe//b/tvd9A/MPWFAAuGJidgsKbr6DnQr0rzHINYKFmpi0G77t4vupS963/87goAFBl1MzJ6+rUvOnmgK0+4JPZFifVzCW4So7c+oxLG/yWJ6JQ4FBG4jbkKXg4qwMym0ZlvVwsGLXO9+z71cG4h+wYABwxcTsRjTMWfqfCpTU/UR5rCmHVA57127I57WQ/D6FOmoLBk2//LpOY5oLzQcEWoAIxSFfMv6Fvf5RyU5aRixdPBvAl5oBNOYCHNNk+ooxeahVHwemc2YfWQJrakvg6aKPgNQ0IH6NoQ0AtuZq65cWUgPYgcL3+uZOssPiC+h/etDMLiV1UF/n7QpSEa1j3GYtoV71XUiaizbQR/rapCVTXfuismHsQBAud+Oyo2dRz/ZMayFfBmPnmooNSq7BEgjkXoGi6g/pYETve8++/2Os0B2taUEA4IqJ2WvRcJinp1Y7+kjcZa5rc88pLN2gkomHaFwDpQxfn7NO6telb1d6f9QWCOar2ai0am9+YETBpFq7Y2n1jr9imzjzsbm+bmOiAXAXX76Wb1cBeH6fLn6jgDO7PKcwt/EofQcEuJW1+dDAAeAtE92NBmbrIMuUIJDEJFpA/TSgHWPoSUFp/aAEROVJQa6dFGtsXPsufUm4uQXzpxIQtAUI3QdpnxCTxOFYLx9TOG6Ly+mm9pfX+KNKbiU8XwXwSXJ92hKoCaw8zcjsGcLUhLfXXauDS42hTe999pe35itsRwuhAexAn5/uapM2gkBJWW+Sp6Tu62JZm4rFNkivmpaUa03zDUqOD9bMSepvjlTTJAGwwRaQz6e1AdHDxFpKTJ0vVqqluiwxJswASasNBTothR+St0B4pvxJxo6ufe+zv7yxRcVZGigAvGWiOw6m+i+s00+k1A5QStP+vrnOvOopw/RVY6H95ljhFJlAPHHmwE2Rxp8K5PrLqPR8o0/uox5CC6ibxDPJLOfp3G4ApIiUf3/W+AjZVoFrWqPpwTO/PF2IrxjQOoDmPBUYGIe+ZaK7HsAUlOHPulQYtLGz17vj8jtKmEVqAXmf7Hwafm+vZ0/OYubYCQDA0X3PArAvrnviBI7v25u0ybjca9atw8gLXxDKG12/FtVoB2akwuiZHWjJkZwgnDmHLvnwSFbzaKeFLOWewNwnvvVJOsnZ+eKXp+kJpo55+Im70p02Luv5k3fUsh9Px9Im5Yo49gGRUJf+RmBaPtDLtF2m588Un5v1VeCBMB6u+tMXf3iy3/cy0m+GGtqOjNV//lqAZS9xN68ibXm9bg/HDx/DielpzBw6hGP7nsHMwYM4eXC/TVZVtu0B7Juf5NgTT7orxqREMGRfaHXGGTjtJS/ByNoXYOSFL8Bp565D5/QKnTVGQXGJ2efLwLIvl5Sa188U8TTRnhPksb8gKAObLCNEZ18m07+TaUY0P+acewSwu8QVdDvseLAFSe0iSn3Ea582NEA9T4jvwdip98bcU9XRQDSAt050xwBMNL3GZgkkZTIyd6Eck4SotDLsxJHjOPLsfhzZvRvH9u7GzPR+2BmQZT5jKqefub+oX3rxFW4TcoGGZP1wjO8dPsjHU881y0qzzumnYc355+P07/8+jJ59JtasWwPTGYz0z10tBcV+4+vqEIPeq8Sp9I+/WUnM45nEFRKY++WL+HxcXhvQPv4EqHaITTw57cC3NZwe1EufTTxvL/ZZ7owDGfaLH37xR3b09V7m9jolvXWiex+cu+/cQaDE9k0AQMn/AGHmxCyef/oZHNn9JI488Si6x48BnslhgMoAhkl548whVRWubadXSS/VeZ5FkI7oTxRBwAICHAjYcILVEoh6NhyENeefhzNedgHWnL/OAUJuWqN7impk/HIAANsGuckmhtt0iqHFUmA6PYjLbhocLBNW4tgtydQRIABjz+dXABCBIWXm0nUOYNj0Q9yrdDnG1/sG/POL+9CHuwDa/OEX/9nBtu9l3lOAt1rDH/uST6TckDOhufUDsk5ZNTCWqRQjHj9yHAcfn8Lz3/0WThx8jkn0CmbkNBh2DxigY3/t4GSSnwGCnAZkGskf1ni/MtfyHsUXFEDAJaaeUxDcYKSe1SCIAOpi5tkDmNm3H+j1QCCcdv55OPPCl+P089aiWlPTL0vM6POijG6e09YtYPr0JBIbQ+FdgAhkDCuWZKHhlxhyE0vLw7m2kiFXFsG48ox9n6E99Zpafsri21ZKk2iEGwBciz68BOelAby1YPjjVDcc022zbdKxMGOZ/sDUY5h+5Ns4cXC/U+UrO4evOpGpOx3HzJzRDUwVF0L4tQtwv+VnMAkIlLJoTQAAohZgg+w9UdeCB3VdXA/o9Rxo9DCy/oU461Uvx5mvfDGqNVIDKPXgUpIRA5hrADZMGviiuluaAnDDWL2kdRKcSe8ggTMqu5wCaMNfakzMhnknIGEAdHXnwqDDuMbDXIMZKMn9CXJKBWAaoI0ffvGft9IC5qsBXIsGd996ST63odnr9vDck7ux776vWklfOYYfPd1Ke6/GG2Pj4Of4TuWvmEj327YEJ3MudvP7MmdnNAOroYhg442BAJzK7zuAqGcL6XVtk/xUgGDDHOMbd909fAzP3/sgpu/p4rQLzsPa17wKa849bRl85SElOV0SYlcl5Dd6VHC1NyM0QpHGrqSQYZqAbo92z1V1ee3BSfJ4mjCPL0lhCq3Vtg37iLXS214FLUZquPxRnIKRki1gHfrQAuasAbx1osekfz0b18l2/X8+lY07fuQ49n3nn7D/m18FTAem0wGMk/JVJzA7TIWq8gY+zfCV4+uSkY91ieplwy+SuEz7fRrP+IZdh/J6MQ2x+54bOBQlf9QGZu3UoNezWkKvB/S6OGvzD+GsV70EnTPSHlwqMhnGjgYtGyYkfkET4BKRS2ZbXldKYqYNSEMgP2VHG+/ydoIo0Uu7BWWeRGMI2gQAZWPILmeyMDnf92mQXAstwP5OA9j44XP/olELmI8GwJb96mV5k6Rvin/+2QPY9+D9OPS9R62kHznNMTxjfsCq/ABQVQ7Io5U/SHNjQKjCrWZkCrjAgQDwizoCBHg+XVRgehOaQERMSvslKaZZEAFw/gIdwPScIwjBMrkHhF4H1Os5TaFrgaDXxdEHHsGRB76DMza8FGdeuBFrzhlp6NmFpRzz+6s4LzeIvvgsr0spXXd9qLerGMd0HmiNLZjjfe3zp1K6fK3yCU0girC8q7GJbQ7Uy/SPnM4ZbecSaoCvP9UkYPmylRYwJw3gyoneRgCP5+LS7qKWcWnsc3v2Ys9X78TMoYMwqIBOJ1rp3TwfVWZuzyS+4RJeS/sADmzEiB8NAm46YGS6+BCk8URQjFIvTaz3sjCO7B4A4GwJPS/5eyDEa3RnHSh0MbJ+LV546YU47fyC1XABKe2H9P2KLblZDSBe+/TC6p8s+aWSGVwKc+kuNu5kNAClNaTpCg4+2o4Q8vB26pUIKlx7jcL3n9IC0HPjRmsAAEDTBtj4P8/9aK0WMFcNYGspIpXmnOFyW2z8IIixhw8extQdt+Lkweesmt9Z46R9Feb7QOUEetQAIoNyyZ+bw2uAkO0MdgGeL32c9N6vAmjUduksaDMY91LfawjuxfN8VhL07IoFRcZA1QmGQasVOE2gMwJ0Z2F6XXSfP4bnbr0bI+vXYt2bLsaaczpYDGrD/KmU5X8ylVHp9GCXaWScABEuMZ29QJaduU5Wm3JSlwEZEPMEm4Qb+1wjoaiwhLGR9IesM3EU8nX5NIanxzqAGrWAvjWAOukvqq+JSV+xpcMHD+Gp++7F8088bg15TsLbeb5V8YMRL6zpO+KaAMB+7X9GhPF0VV6tL9kFdJk6HwsScMcsN1ljkP+8FQuzQWxwhVM23R8RgJ5bMeiBvMGwa39NrwvqzQLdLqg3gzM2fj/O2vRyjK5dWGthOwDwkr9eA5BuwEq6i/lyz+J97Vq8ltY5qa8ku/cDyITJ67o1fmn5l/aMHnIaD7d7eC0gTC+0LwDU2AkaA5wWcENRC5iDBmC21rG4b0jplUcEj83udrt48oEH8OxD37AMOTIaJL4JIODUe87EYdnOhpNRjO7TG1drcOf12oFvhwOBio/cCCChXPUoFEtLiILq5gMotlt7DHpNgLxrq2MMcmIidB0HAFjJjwrGWCci0+kAPYLpRLuA6XaAqgv0Ojj+vWdwbGo3znrNq7H2NefDVPXvcS6UnwLV6YV1bYgjxajBbvspwqwhA5i4ay7irZaozH04FuTcd0280ZhPgrGStqeWea4VKI2B/LkATkSIvLG9xKeURFFj8dpD0l8kfmCwDqAtqDmZqy8N4MoJWg/ggKylTPkUMnTvriex+2t3oXviuJX0Hcv4lfFWfc/ErqneRx9wDMt7wsh47tJbIVybREuw6YorAEb8qHAFAlINK3QwiwsaqWduGxjQPOte7G/jYDHBSMj9CKxWYHpdkLcNdK1GUJ02grWXXYQzXnpmBFtorQAAIABJREFUtoXzoTwI5ADAg2Iq/bRGkGgH7BNbOffbSszbtUZQXr+P1vncikDXyg2dPmcTyEr/bqKZhDSiH+Kz8We2fRvn/hJcYn+qJchdHz7vxo3Fd9XifQa6coK2AvhtXWEdpSlsyLEjx/DEvffg+SceB6qRuJbv5/mminN5gC3xeWZFvE+0g8oFpZqABAd3bzL3gEgXQSA/HYiPl5EeRjMtgiYgGAHEQJxZgcOeAl9llBAxnxtQfLUACNMBhOnArJ0qdGdB3RmsOf/FWP/mH8osHc6dmgDA6HsjB3oeAPy2WG286yEBCtPLuwDDq/+asXkYN9LZ30o47KTgkUxPdBuVa3H4PiADvrxLcE/2jwu3feiBSvav1pTc709/+Lwbd+beSuspgJP+18rQsrJfl+KpRx7H7q/cYQ1WHavuG7GkZ6LqbZgW4As0tpusSs8ZmDGvsxEk2gBT8/VuP/i2egART2F/hPooor12wR+c2DUglqiI7HKlBoHwsp0qSnDaC4V7/wkLw8DBb2Y23lhIftupU5O7FYLBtDcbAHdm3wHs/dQdWPem1+LMV6zVT7YE5DrI95e7ttMwecxWnsg9sXPGSfR9gjAGst/ArEqyUlhutO3z78x/zJgzYcBkY9y0RII0N/yFZ/TqfWirD3OmcTcVCF0ijJkQddgikv4Zh/0gb0KtNYCxCRoHcAMPo8xViQjAyRMzePyrX8ahJ6ac1O84l90KMB3WIu/F56Q9IKW8YzjDmD4FAsMYWan2TPWPZbNfEcfzc6mluy6OtHQ6IKuPuwL96PFzO6G6hTR8QMYkTCp424Bxg4VcGd5ISFYziMuHs1Yj6M5YDaE7E7SBs9/6w8K9eC5UXgr1UipexzxaC5DGsfhV3agFJC6/Tn2vuATOGfSEMVAbCeXyX3ZpMGgXJNJknYtKU5Gc5GcGwfjcUeMrLY/ytPE+6eOXf/i8G6f0G+nHCLhVB3BZSmmFgqb3PYfH7pywc/2RNRYADBA8+YKEZoY9MEYzfuOOT8dakfgARIa2WoSaCrg4AKmBj00HCAogWJo6TSACOalEDqGV1hHyCK2BEKU7GwRBilntweaLaYOa6N2LYQDYZURDbt3YVCAz6wysXdu3lcHMvgN49m/vxvq3vX5eS4ZFV9WkszLjJdux0XCsVVxtZAtd6N9rkLbE7KmuboJgOAm8sR0U7k14p0anD2ko/ornc/fE5v/6nQLS8Mfzqb6KzYucF4DfIM1DGEeGh1sBwNgEjaHhk95RjqUvdc8jj+PJe74IdEZhRtZYtb7jVX0usaNKLpx7tJFOM7ubEoR45etPYarAwkEhXcLoTOrHOBbvKGuJjWNLVidUSmndtUm8dHP+EORAjvwL9jYBP5DI9iP13GDwfe8BwgRQQM/YfD0DdIyTjAYEZ2cxBuhVgJlBb3YG+z//Jbzwkgtx1qvPSd7l3EmPCzWgE9AwrJ+Mi+cMk6tCre07fZtiiazulKkiRc9EIuNsAKrNQf/3VREbCx5E2PvKPD3T/QJwGROfOzC1H4DCYSwUICS/r9evQjGb8ThqhXgNjU3QTgA/1SYt1wS63R4euetLeH73LjvfrzowphMHXWXgHXo4txi9WScwO5RNIIYHkPDXStX3aeMDp05AIY4BUUgrEogoJFE8MfEwORDyzhz2rfHBSuwt+tOFPAjE/CwsiCwrcYwbECG9dzH2Owy7s3Za0J0Fzc6AejPA7CxGz38Rzrnqh+a0XJhqAB7o0jAElRYoG8OYkQ/M+JdY3lMvPrme32NlS1U9NQyWy0l89n2Yb1tO/Q/lkswLOYUIGkZu9cMOAqVBIABN1AqygHvVn57//0zy0EYNYGyCNqIl89sXaJtx7MhRPHr33Tj67F5g5DS3cadi0rrjGN/lEuqwkvbs2krzSqTnDC/zIqQzvrLEMBh/hdT2+XOaQOahSUeF5+KSwUl3R9a4BIjdZU4UEphW4AZD9BMwUWSolQLvE2DHgAU9axewA49AdppFxtpfqBs0APIrL70OYGYws+8gnv38/TjnbRf3vUqQk+gApf0UxBiQggTJPshI7hgez9qL4AcQU9sBbphrow2YyJyZOKi6rJE3305fFzP7BINgmJqQcVplXNKNGp/vGPbOY6nRXprTSmM7xgFM8pg2U4DxFmkEHT18DN+69QvozszCdEadxO84Dz7LiJbZ+NIeQlxgAKbic0Ynk9EEHLN7DSDrC+DrNiYdnF5gc5uAmBI4hmX3gnIgAACmAt8IIgcTsXqEqhDL49K9Yvd+EAQ9zzOYgyoOBB44e5FByPSsykwGoK7ThhwIdP1mKoPuoaPY//l78KIfu3QAS4UaBPhz8z7RzJOVZtAf9Eirk8ZE/xdtBJlyHSP77wOTeEUUmuxnADD+4I9eKALhlfg4ZDgzMriw/gfgirjOpwMxPGpN8hEKfWFpiw5o4xM63iJNoEMHD+Hbt/49ujNdYGTUzvU7I7BGPO7YYwdZ2NgT/lx8VYGgNv4EbaCyyB4s/Xa50LByyDgPQuj8cMxlVNkOpHze4IPA0xlQxfLwPxdGIoxrLrIOUYZruziXMOQz0SVa9AffCl0x9+hOaKMxbHnVGFDYQVk5DczlNR2QS2tGRt3fmvDXO9nFvr+5Eyf2nuxnKETHRUFR28oPVbfEy9LFMF5C3AgDllJqWE6HIPiXjmin4o3TYEMSeLOIrzUI/txBYrA0PTFj88/IP1UWi6VM52hgLP0GPS/XtnXvffpdYzygVgNoY/zj9OyevfjunRNAZwSmM2oHaFU51GIDm0ls273xXkh7L63F7j62ShDCU8axeRE0guxUIyftEdvlcqgLoP10wKhwO/hMaBgfrOQeIY4Se+yZ34bMWuRFg+89vwToLdBwfe7OELBHqPWAyqmgVQXuhERVB+hZkDK9WVBn1Akt2T8Hbv0Kzv6RN+K08/rbXZifDvhnkstb/FeVEn6tNHQ9EiS5gWQGX05PhfUEtPgwyWAxfzr1KMX559Ttj1pFrhw5Boybwjm/A6ZxhG5jvgU22mlVho0Rr4UkPU4gwhawaUCTBjDeEB/o2T178egXJ4GRNZb5/To/nMSumOTz2oCX1pVx0szv+Is7/4xLG6UZk7iwaSlIPya5XVioF6r+ABJcO2D5w3TDqwxeKvmuNOIZQhz7wCS3TUTQ88+r8hul8Rh7pJkxhp1wpNvHtJ2gRXDwrJivRQfG9UHUUmyfm8pYG01VgapRm3bUaQGj9g9OGzhw21f71gSAnCagmbzE9CWpp6Q4Rb96n8RrD7m6ovFPt4GnACszJ2kRavA5hA2Wg1b4gnHm+YQR10e5McSDyJfFn5nl46oE8TBwbUxMA3IyLNDYBB1Eiy/87tuzD49+cRKmGrFqfxicjGmchJeCQDOIm7tXfNkupvFLQomm4A19SnsIlXGbQJV5ZGY70OGZS56gVhOIPyTDSSSBNAIizjd1Xq9DcONfeLtRovqw5AxCf6oQ3OYhkDx5CHCbiKxFGzQL6vaco9AsMDsDmj0Bmp3B2W+/tG9NAOD9qKS+cHKJDjrR4s2daNzOP5Na2bVfvlxFYFZ/4egTffTTE3t0Hm/lz53n5/rNxPbZ8C57Rl822PNwMPLlAUDX9VfdKgCPZ1pAFkwDvfwj3/exKaBGAxiboC1owfxHDx/Do3fdaZ17vNrv/yClLQAxd+eagJ3HexBgGgKb+5PfIJSR5HaqYaSE5FpGkOaOOPgYP7eXYQYmtgtG/vOApEFJgVPQILiGEAxurJ1geXw/Vex54PM4SV/JcFS+Lq5B2LRkWN8EG0C0a3DA9tuwrVYxCtMZATpW+mNk1J6uPLoGB267B7OHErHeTExoM3x29w6cEkTVkp9de0krfmVQWkZU+Us+BTHUjVtWThC0ahmWhBbiJTWf+zMVnXdE8mz+3rA6Yltkk1m8F/r1hkAAGPMXdVOAxGKo6ejhY/jWP04AIyNWPe+MSOnP5+R8oHM110tnI5k17gRkUwJY5xVRvs9HnKl0mtiGYPzjmgWME8KeuZlBTk8HctqH4XnZn7uP7s5aO+EGL95m96zeVuCNfC6tVPm9XwWbTvH+rNzzoGIgx42RbFqFCAKm6rjn7dj9Bc6JCyOjMJ01MCOjeO7We9E91jRKBPyBSzOpTHOW4xoRY9SMq3Ry2If49Wn9Gj2T6E56k2KwoMInoOPVewOWSKQ3Kn1cRWBtF+VzjY11GJsSCBBjKn9Q6TUYZBWARBsY81dzBoDubBff+od/xOzMrGX+aoQNKM74djD7+alhzOmZQ0h0N0jJgNkQDBuwjIn1fNgNYArC0UvuSjBmYFby7YlgRVzicqntma8QbrtZh8V7En3g6q8ssxEHBi7VjQM825ks2jCgM6x/uU3A90u09hutVUH3vQvzqwidEQcaI9YQ2xm19h2nCdBsD/s//zVQT0ps9SQZigwov3ybk4IpI/KpDseEyCyWSdONPTyRn5fLsoVEdekjg7vTl2IC0Q5Zv+wRyYK+XGkT4MBDfonWP0GWsX2Yn+7JUixIkDAxuP/GfNYsAFzVoP53Z7t46M67MdvtWRXRjLClMM6Qzv1GSB43LCq23FYybgGIUwmouMoyHD8CnEliKIYPjOkZy5eVMKxD3YJK36QJUBLGAQKqLhsepj5GA5IfAFIzgCtHTKdcX3ggIA+I/PQkDbRq+RP8DAb/5aSqE0GgUzkNYNQt8a4BneziuYlvBxBIGE78sa2wGWYOz5uKNtZ3Udbq/DZ3D0BX1SsKgfV/YO1LuCvm4x6UoSTS7Zd5vOSONWuJbiBKZLxL5PUTDwQxXsw4XLs0XJYkv6/dlbfhPXt+YSNQ1gC25JHb0tRDD+PIwees1O+MMCaVTGaZRarbeu4fQcCI8DgdoFRaMa3BW9uFyh0YB6ItYq4d4nMMizify/dnqZ8RX7LO7OrUwEIx3g/haGdg/SimT6ydUGDmpT3vZ+6XEML4ioqJzJ8AsvvAStVxINBxIDBiT24aHcXsvoM4/OAzSto3S3bjuyUwEj8Ek+frsfjYuSQYiTGYpuSF6PYYRCDg3MjchpM/MKlPKj+bsngJDAk6xuXTcJkCkgLKBKuYhAdrT419wW0e3wyUAWDMd4ump773NPY+9hhMtQbojIDMCGMuOXCEyi7COAgYNW+P4X7ApvHG8ay37itJyEBHSl2wtEa2LTdyOAj0qwnwlyTKVK+D2wR8meyZwrTBA4SIr2Rbwt4KI4HSg0fFNCkHDIaDAAeGMCUwbMnQawIdtywY7QJHvvWoWx7kT8eP+2aW+gJDyTxsJUB3YAAF7zIb31dIwhlZcI1m8si0FF5cLzJUKJ6Xx6WwL9qwOlLZq20A3Kgo2gHVNP5o5CCOePn8kVVctpvDAMwDwFUTtBnM+YeDwNHDxzD1tXthwl7+EQQpHwZRlE6C0QQwcMaxA1RoAmouGiz8rjXRcBgZgkjew6vY5N4NjxPfF3eGlZwm4KWs4ekhep8K4cXpQDIl4Hkp1sfScTDwPvzJs5oMQPh7ZuCLjI3Q79wuYxk+BwIxnDwIdLxB0P5N3/VNdI85aZpjOvbURlx7hu8itQvoMrTjjuz80rq+ttjXTlV4UobYlnGV+h7AwxvmTJYZKVePZmMiKbhZ9aEMDgKcqXlpxGugfGFOyOc0gDEdYAD0Zrv4py99xTmMeLWfDz6EaymF48AiU9kGCKDwA9S4pTo2GCmmiYLSpPV4kAnzeUiG8+6WouMlUwrU1FSaDkRQl+HshpIw1qtaiwiigdcnwSj0i9B8XF5TSdBRfWzENIqBp2GfU+OrL8a7DDO7QGVXHciMuCmg0wY6a9CbJRy8+5FMJ0k2kOF5Zg6goA/IEJqBN/Sx7bv+/1BViek4A/vLnEcg0msFJvYtcQBRdXAg4cFeQAnGj4Aiy8vfh/EVqmJtY7aLAFAxZDOQdwXOWv+feGQXThw9Zo1+7BPagYx9HQaQgzX8miAVjWJcmcZbzB3jq3LIhxLY0lgk8mARwhl8Vyy/jzI8r7vNbaki3/Y0nM8gTLZcw45yyucVz+kivbErbBbx8eSewoRLRgb+KCkW5Nrvbno99/7iALUu17ZsqhDSkCEYrxFTz4mMjg2rOgA5t2H3fYKZfdM4+vhRnPnyM3iLWGtKDMnO9uMgzR2eoA2IqZ2Bb62VzAlWlys9vvD0nZC3RXDuIsjlRXZF7vX4NBSP/+JnBfgq42uL5REB+qSp5PWqumOaCDDibAJS6WOydb/05M+vz2kAV+qA5w8cxu5/+g5gRuxL91SYzwsVVqj8XN03MpyV43f6RUaWf1YAVgiqvFKvhYVXS1gwlLS9hXSZL+ljF1ZnZFKXJBOQr0s/D2WSwz23Y3qN8lHjARI7CHwe9g4g+ydqAy6sqhwI2DBhFzDWfyAaFZkmUFXua01uA1HHGoWnv/KQmwpE5vP76yWD5/3141/0tstpCmFNnpepDXnOEUcwiJLQ9n9XPj8HgNkC5KJ7LD+ONQRNhLkJhBjRJF4e+esY7lce9MYmXp5c2gMYy8OvcuRWUxRtFhrAVRPRQcBTd7aLh7/2Deffb639VDkJzcWPkvpRErsOUPPhoC2oOAM+iD0iGlaO6wAQjNBCPK4Sy5t5ZCfdnQxl4bEaIRgSTYBqNYEkP+JN1AR4xqgCBCQXZbLn8SMrdIcJeUzodxYXJAp9D4T7Ycx9MJgC9abs9mCLA9SbNU6busqVd6UBXkPAC+0RVhWogtMEXBsqANSBqaw3sel1rEEQBFAP03c/ihddtVF0kJ6fRyCQJ/tGcEBkyAQcuC3ACV7Rrw4MpChUvxE8Qn7/LtxvUm/QAmJeI55NrmJIW4NqF4XhCL+9N+ztD21J6xYnBvn3kZxxgNAvos/lwN2opwBj6h57dj2Fk8eOI3yME7AIYwyiuqJBAGxwcsnjGd0m4tMBo8uAZ1RVDyEYsTxChkMetPoUghS7BoaLMMTD/aUtm2Vn5WdBwFdF6uALhggU2qvyhTbxcvnLNapO9pI92BIDAqIHYMyNRPTpfb/y6sdzTc3Qbfzm/P/766+k7uzPgnpXwlQ/FkHAOcR0KqBrlYXeyCjMLFnDIBFO7pvGkceP4ayXn47Sl2w0Q2umlEzOGCxJrxm1a+8Z81Aoy0pqoTEYvsxISX2cUXPPQP4dBRDpSQYPv8TxXtUDOU78FITIqfS+vRD1syw2JDO0OCkj40aR9qoJmgSbApw4PoOv/f2E2NprezAyeiwgowkEA54KYwwdVFhx+AfitWNgw8tm1fmwCCA6QUET4E3OAViaLO3ZOhDIZfE3fg6fLTNfFUci0R7xRs0uY+hG6s7u2Pe+1kzfis67/u5zUJmr0e3+hul1v9/P+QECuj1QbxbUnYWZPQnqngTNnEBVEc79lxeic9osNOMEiZnZCmw3z/i0aqMMCGIjjmN0Hy4+uqHTiiO/XHl8g1FyvJi6d+fw+zbGuntIN/OwU40Nfw7WviSP6xveJ8YvVFOmr1wfCU2F9xt/g5LzXdiHRJK3TchtBN994BHs3fUEwhd7BIM6ijzq/mNpBAggxgXtQTJe3OCCkA+hWDZl8A+jdvbFuXD6qFkQMIZVUeJ6dTsoEBC1qpdTBIFie+4H0Yf2/Yd/fkOuKYOm867/8o+aXncr9bqX+4+O+K8Q0awDgdkToJnjOPMV52H9JecgldSwv5xZ1X0Y5P6LPGpXHzIAEJmdM18Pld+Rp8/yQzeWV2RmryV4gAEMa0du159IF675EeAaoFRfKEDQWo83UNaDgAeTHBEA3B7G0dvs+v83/P30wcP45h1fccae0cDbWU4yXEJzEDAxH5hlP2gCYGkh4xQ4+AlaURMI8FDiHl9sLiLUng0vVCUKnjcI8DA2d82DgA0deX4/XnTiud966Hf/19/LVb/QdN62u34O3dn/C73eS0FdoNdFz31nADMWADB7Auf+y4swurbLwC4nqaK6r8/Gl1K957RGbxvoivyJZPdMrhicM2r6EVGWNpTVFQxaZT4YKhhXaBqp9JeHoPTiMyTSX/cRmwoZec9/I+Mn836WFrdzK9oYT/LEPz0Gf6hHWD5SrrT8z78qLvUj40crsvjcl2J+eOu1bx9vuZvQp045DCxgZ3vyGRHaRDB6DiTSJjb+0q0uw2/GKJSbZFE3lGtv6Ne0TDp+FOc88uUvPv2BS81SMT8A7L3uzR/f+4Ervx+dzh/6VZyqctpiJ64KHPrmXiXB7IPENRfuMRgpb/gDQF1wZyFp1c/9xfrEtfbxF0wk7QHxHVlGJp3cXwQrvr8PjXRBBPbDiqCQPz4/I+9YxCsmWMejzCDh6bxLAKXjdCMHgM3+YvrAYUzve845i3Qi4ylLPtwykQYCe0kIEp059BAgNQWtMQCMybkINfy5ZXzCqBTjMxJ/QUAAroML5SZZmkAgkFtaBYDZWVQPffnksVs+euXDf/wLb8mlXgra+1/f+utmZM0bUXV2ozJu70AF6lhnoeNP7sPMoeh3EJ13ovpr0A3X9gWxPftc/eZzbHRdeQjXWrvIOwL5P18/ggSP+VhZ/vAUAQayrAQLgNRr0P/ovQM6oy8z69Mfs6VMLj0JSaShJJyINmQBYO+TTztpPeLm5RbdfVfpnXUSCIAo9YHAhN6MqsFEMb9nWKsJ9JhGwfuGrdfLvonS3qhwRQsFAkWvwVyWtiBAQHfqYcx84cZ/Ovztb/yzo3f80R2ZVEtKz7z/iq+a0868GNXo3QYVTKdjjcdus9jz39wHa5330pv/OUZ3cZzhDbqC2SxA8Dw9wPgyNYgAXKrGIP6ObBs0U2qNxTNSjsFsVOrjwMEktiYKLQ8k/EwCPQaIhwuSjC9i9HjNDkgbyJcBNwHW8r936kl2kq/dt54nOcmNS372QY1mckI+nsAMeiY0kIxxSycZjYAQ/YAAZCW9rcXVm7Y+XTsO/eKWXhTw5G5zZed8BQJAqSzqhiB9BejQ8zh599+he+Dpzx374h+/I32K5UPP/NplzwG4/Lzf/YdPguhq0+mBevZEoWNPPIfeyXPQWTODyCiAYOzAvED+EM384Z1ivZ96ctmM/XG3YbGs5ufL/prc+3f39nXI9gbwCWEIY1J8wUm3IeubYK+5D4Bnass2Np84+FO0JaXs2FYABjjHTmcABADsntpjVTcT1/yzHmyI3Cc25yTTARMfODA8m+/Hp0RkfiAChXuaLAcjtQsk0pqy4SG+EG7HhvTGSsvOh/uCs0XnmqNuPOrPPvwAjn72I+gd3PfZ5c78nPb+1v/yTjMycrM9cNTtF+h0cHjqOKSU5MzINYKuAATp759jbM6QrLyM+h9UYsqVwdoQ+D2WGyfurix/TfJAEEJM6u+zYBakN8X6QCB+6AgfL6ySVEvlAJX+6umBJz8FiOr/9/ZYphIHfLhIPW2HcU4t2j4Q7QKhThP+i1MCIM5vLeylKr8Hklzrs3YBJMA4HxAQ+TNlzBcEcvnp8DRO3PZxnPz6bahGT7/l6J3//ScKLVy2tPe33n41OqM3m6rjNpB1cORbz7C5f09cS0Ym2Hl3F3KKkP/lYOKvI0ODXVMeSDgYhPcQT/8RBjuOAS6UTy3kQEjLFfijA8OfifN8lTeAi8AMEuEsWOJADQBsBIC9e/Zj9qT7WmwuvdIEwlyeGPOruXxIh2gDkIji20eRoSVqsD5iLcpI/bS9/HLAIJDDhDmAgM7f3T2FE7f+FbrPPQMzevrtR+/4o58stGzZ076tP3o1Rtbc5s8Q6M52cfzACJqZ2f5l7F/sXjMxS8gZiqTFPhbD88v3K33wS0yq/xiwMA4NDO+bzMrn9ykwsLBQQMzk+YGSssVjhTjScS5eaAD7n94vD5UI+/Ad6VUAJ531IRZy7R7wrsOCWJy/F++YVPrY5ux8vy0IcERNkvYDAknZaRgvuBEEZmcxc98XcfKuT4NmTwIjax5BNXJ1oUUrhszImp8znZGH/eGlx3YfV1I4Y+QL12W1v/QnnWH0xNG/SMWoCWio9KLM7AvOXKmUvE4BVinnkq4/GWe5WmJZHFBy7YvBxDSAXg/7n9qHuH8/LhBEqz0hzOEzQBAsXIA03DnJHuf8omeQSPpgAWPJwlo+ypzaAgTsLameYHHzBAFSYbzgIggcP4aTd3was498DahGgc6aI9XoGeNHJ7btK7RmxdDe33zbfjN62jXojBxGNYKjj+2HfWhu6U+nBFL99/NyxfDhXi4rpqAQy0qX+0rXvH6wPIgvOSxXIqSRAEaIKxYsK2d8Vh5f9RNTAMhxJ5cBdbNUe7n4F49gS/RcvmnvMwcdk/kDIACu8gcGF2q8BAJCIU5PGzgCGM7sym7gw5XEJyBZ+pCd2RIEsgnnBwLhNgcwGRCgg/tx/O9vRO+5p8In1KuRNf/tyG2/+6VCK1Yc7d36o3eb0dP+0FQVeid7OHloNFH5S5LfEFvaC8uI/tDPLgxbo4/uwRxQmIbB+19c8FUBztQRYDTg+Poj82rOZeWEZUgf7gVZBAQxnoWRMQos7hfApxH+sI/wfBTLToehBIXqbRO0HgCm9z8P/xkpy7jqiC+jmdekzCkMemDMz9Jx5wjB10a0NFwao5+A9ZNCUpV5yUEgVzYbhL2nduHErX8JzMw4r8tRmJHTvnbkHz74O4XaVyzt+70f/z0aWfMwqg6OPuU3B3km0T4BpS3AkYJ7r/fKS1LwfEyzoB7LE99/vGdtyE0VhAbhmdMxLPE2UMwOwK4m+ABtL/BZJOPnBrIULsovwT8Ln1ZQDMvpoBUIm0HAs888GyW/luJCE3DkNQEfoI1+zNKfW8ePjjwkwsXD1izvyYdeOBDIAsEAQKC762GcvGun/ZpSZyS4zppq9FcyNa4KqkZP+48wFY4/dRScyYXEx6z75Yzr4/j0gI9uztyKeUNefe+s/F5Su7wp3ykQCgyt6uAmdzFu4rNQYHBygsDVIAx7ENc6DUIr9bKehMGo1pgqAAAgAElEQVTshNO1i8dUANbTiRO92Zkewld3ckSA1wayhkHEeP/YIYz/cp4WyKvq4n4A+hlzTVsgECgVPR8QmH3gLszc83nH/PacfWM3Xf3NkVu3fjnfipVP+37vxz+HNafvPLH3CNA1iikjY+ulQjG/p9STUDjkiAV4yZQynGsbLJ2+JuucJQxzpL87oIFA7yPQYppfywGTjGUNArwal4CHi3xEAXR0JV64VQA279l7qBJHeCdHdjHLvu/P4G5LCFqCkvTE1H4WrBrD/aVd4UrtnzcIUCbbEoHA7AN3ofvdrwfJb9x5+3bL9Zrr8rWvHqrWnPnrqAxOHu1AMnmh4wFYnwDmIKSNgS4NBxN/bcS8PW8IDEtvpIGEWDj79UkA+XJ9PcLmQIEZAxiEaWCc+yfT2ay9Qo81Uld6GgLkmS7Q/dUZvZmXTT/3PILHXnnKDWnUs/dx8w8gduYlmkCmLGbtJx6cPt/8QIDVUVfOnEGA9IvJle2Y/9GvO5V/BMbYryqZqoLpjNx65AsfeASrnPb97r942IyePnl8PyAddrpuXl9yFJJMmzf8cfHI/zLgQDodHz+lcgDKnRwc5tx+GqEHbmZcidWBMuOHFL69uryU49VAjasLmfF7sOpQ77Ijzx+FmPNzqz8zAkbmlPN78mGhxVoT0M+ZAQUCm1qoDszx5RxBoKmchXId7j7wJXQf+zpQjcBUo5b53Uc4rcflyI5CyauOTDVyw8n9M9FK763pYXDXefnlmZOchE58/bU2EMBalcN3/AmDGa+nK9plMgDBODbUo6V/BBOXwf1Gxo8ags1CumiZXuSJaXIrZREMCABNVTOEf3b8+HG1vMeeJeFVLuG5JiCjtdofH66gEQRfAVE79C3xmEGCgODbuYOAyO/Cug/cJZjfH69m/Ic7TbXnyOf/618VSl119Oz1/+ovaXr2gGdQUyvt/YEfirmNTO/zR8ZhjKrAJPVCTDWE0B6uzkdeBftxN5lBQSra5+NSW/zqDD5Mq8WhoPi8/rHVoE2bJQBoqjp+6Ogx8SmuJLlaEQDkXJ8xtPT2y6BPKUpZ+5tAoLYsHtwPCCTlDwYE6OnvofvoN+qYH6g6nyuUtmrp6PPdW6LK7xmvxyQxn/NrBrWMmWPkeMIPWy0glk+BQ+rCC1ip7a8Q0uW3+mqGpPjLpD/EPcC1kHCtGDjaBUhUwxommy3u9QDVBQAApqojx2ZHo9GNsoY/AlJjoEAlbf0npglApAvN8OEFt96+QaAEwPMEgfm4Dvee3oWZr/ytM/a57dXhjH2D8HUlU00USlq9NDJ684lDZ0BL/cDwpMAhedmakf0LLTC5Tks5QOBaBtMsgnEwUrJ8D8ixopm1MF0g/uuvSRXC8vK6iKcRTKC9CuU9a9hU1avM6QAgPrRhA8RfLEBOE1JPPkrn8iFO9kmJcUNHyNTI3VIhXNYzdxCwt1QGmVL7Dx9C9xu3OcnvP6HecYa/Cv6kJVQVjvzddX9dKGXV0v7rf+aW7gzgmU1OAxzzC8kd1+pTECg4E+klObEikAcQLU0hbillVkC1ja3387k/K5scIERByJAgpFV1cUYnls+HErJMnjssxC8P/uUrb56snj00c7pYs88NaCb9SYf5fDC29GT9nvLlcn+ClQICpfJ1WHcWs3feBJqdCcxvPPOzY9bcFODb+Yatfjrz5MixdP7NDW1R1c+7+drTg1JfgMiM+V2HjATnMAchoSlwV10NQj1fKxuvXPz6ahQIiDjPlBEcRPtUkXrQkkItnU7eh5v7AaA6fOhYZEaxrx8Fu4A+jotJ++z6vUkazEk/Uy7BoEBgsVyHu1++BTRz0p2N14mWfgNIe4sBYL6ZlnZq0AtG8KQd9Vblt2o/k9DgBjp35p+Qfvp98mVENvjJvzsCn1cLqeoSyxClKUgR7guW83xl8SfRRg5E/GFUO0IdqjpfH0srmgSZnbh9Lh339wF+M1DR605n4isEfCpAiSHPp0+Yl5CASisQKCXqAwRC8AKCQPc7X0fvwDOO6RnzV0zt599CNNXj+Zaufpo5TF/nHWmHRWQK6Ttf9gnIWsiS6YIiQk2Zfu6vhY8EAw8SeguyGNAkw4n/IjeuOePzMJL5Q9EKKBjJbwLEabz7mwTsXoCQQBbHb/Lz/mC9zBryojYgOrGwuacRBIC4DLNMQYD2P43ed+52kn/EHott+AYrrWUZGFN9A6codU7rfS8u41kNIB6uKZkyTgNKB29yF+FMGjXfT/YTiHSAtx8ky4EirVb/bbgcFrpuH8zueZVJCTlgK5FMq2Y3miYBoLIaeo0TEEcZMSUgllZTqg0Q4Ob8JS5rBwIRPUuoOwAQoEy2JhA4cRy9r33ezvmrkaABhOPRguWfgYHtpwP5Fq5+6nZpV+LFh57bAqykcsYg6LcGx+PBUwYt2Q7CsBaiOP5pw50IJx6fG2AqDR9QmekHdxCKUxaWnKXWdznVP0ckq971sVfdPAUA1eFDx3M1KPYyyohvmT9faX5ZT04zBgUCKuGgQIDVUVcOB4HeA5PA7EzcUh2W+BjzI0p+Flf3pKuavvjzP/Mn2gFIb5mNvgJgTK+lMmCZhzO7YmT3n33dBdU/FKUkfp4LRd0xXfzT+xb0fJ2798axmPnjZbhkXP1PpwLcoJht8U5/X812e3KAKj8AYakP6kfGYYjy4UlfxWZDcXKadK4gkHtfcwSBpnIIBNr9KGjvLsv8nZHo5OMPVg19WwlAMKWdl6cUKYZRan+Mn4VdYiuXERiOaQveXVeu6+vsHAxqdvplmDLVOlixgjFdm7JgwgdtXB7UKwa8JA8o4loBAc+r+GLSx6cjMNOwOCcxeVgB5BJhJk6XLZi3jFRzAwF2K4oeJAj4gBPH0fvWnW6u75m/smCQqP/22sAz/6mtAVjikl8v36VOQgYZ6Rzuc4Y/vqwX60tUcXLylTOe4GnH8Jzxg5Vfj+dYNvGCcvGk6md1Qd+HIMlIfADVzGr9zfT/+wM3Rw0grZBUg71dQJXIQ5gRMKlfGwhLIJDJPCgQaFNW3yDg6/7mHUH1j8t9HalRAREMgDTulCYt+RnzJ+v52smn5k/YDODuuXQvrCggNTYaBzJB4nJQCAGe4Rlj66U8Fs8Hbu7LQCQyxlwhHal73qMEqOp57p08tOLGP/GnPropivA33ldAUUhXGuB9goDGm1x5fYNAASn7AoHnngHtnYoS3x+owk9WVoY/Y9SKQHXqTgPeeMeH1uc36kjjX+78QGnUc2cH6qU/rRmwdX4A6YDIreFrpg1pNRhBDQ5VtopPh5lqM7FaiVdBaZ5QNiVtkOcIAgTs4PFVgReKDySYu4Yz5Skq9WU3gUAIqmtsvyBQW08LEOjOovfgpDP6OdW/YicqhxWTGuavs5mcAmSot9ka3LhaDmhmT6W9VuPZ0hjl8rJphC4rw4gmGYceiKR7sWRKDTpsLs+eKt5z78LSkJNpkiaTzOe1gmRlIHbLrr/6wZsneVyVPGvahjQocfrRiUorBOWyW4NAIc6HLxoIPPEIcOR5wJ13nzK+vDdhKqBWAWDGCk9zChBt5IxjHVdKRkAdhphPrCLUOAz5PAmYSAYmDjJsZcKvMggHnSCx2eGkoTrOsRokdFuSvgHIcZIe+Aq3KMv1aZkEbNdh4hNAjSCgdwiK+JAozb5CQaDoOjw7C3r0HnuSr+k4g18nqv5BygOA+26iWPvnIHDqTgEA2iwZw2sDQMKwVF4lSNbi9cvNMlwZFKS7bqnpmXKK3od6HJGsWoRxw2DukBBev3pg3pU+jWzKDv0Y7Osfqj2euMRq6Oc6WokgEIJV4+nhe4GZk8zw57391FmKqKzk59OBRAPAhsJTnAJEY3BMHT3zeuBHfmumTP/StJHhWN7SUdwqLRCHgrYFyLQ8Idd4WRkk7frynpWdGdDyFGDVVN9O1RTxBOlj3vjXr775IBRVMOZ2XZPcGKSoEQTKnN4IAgnPzxMEiHVINvMcQODkcWDX/c7bz5+irHwo0Jb5DWDMKQkAl93+39YDtElY9sV1tNinDK797+3LNq0Ag7Nk/k8s9QlOUsBR+hOcSTJfdhldgkYoJlQjjglRjE+savIhojp3vxUZGgFQtOQXVSAVSU7JjXHl3EQNq18uaywhCUibUddYgvquOvNJSC+LZdnHItBjDzjV3y/3+S8oK/U+rJD4MMj4UMmpCQBAb4u/4sxs3yepF8s4wvAtvV12nWFwIjcWPUODXefAAIgGRVUe9VhZYL+sLvj6IMsIPAEVx37dM1PoD8h8ZFnbDyM/HpMxzLKGYQfc+Nc/ZF1/NVVZsUfiJ08hkncrjyvnrtUEVP2kA0rNqCuTeDSh4bJYFp08Dtr1gDX8BZXfawBewsMa/XJagTg/AX7+/7Kalq9eot6WOOcvSVP9ERAu+blzT+abfLkxox2IknzdUF7Zz8CXY9N5O1GyN6TG+UcMWmIyO7E5Fa4JCFpBKJp7BupqaSsKVIFoau4gkNcceCOLWVuCQLzUnVeos6a8IgjknjVX1pPfQbq11xnygoS3nn5qz39k/vD1pfgVprU/85Gralq+6ujyyQ+uN+j9lMmp8pxB1Tq+nMvnfQZkORlwSXjKpWPGR7nuD5XXjUYFIPkdisiXo9uqeIVb9ZMZBPvftyNZKhQ3dOPHf/hTUyhQBWBKNk7lT0MRBnU+UrUhUy6PqqPsc1FdU+cGAuy2CALdWdCuB92xXnw/v17yQ2Y6oEEg/lrcMK+tafUqJLo2Jx1zDj+RkbVXX+GPMmXkwkJ65UNAanVBS/Lwa+OYwT6OIc3cybVOJ7AluS8eSUdA0MB53ng9jcLc31OVLkPVMQafu5azJEH66XjUXEEgU+QgQSApa+/3gNmT0cc/WftHqvoDSOb9bP4f/ifaXNPiVUg0nmdcIM9s3Iajdg2GOM/c2hDIHYCiR2ByjFj4JTUmPaN7iczbyvPGtOHSXbAgF57lZMgVgVz5EKCj4zMgsP0TF5alPwBURPZooPpKDeInvAq0jECgpqqQqAkExCUB9Og3pPTnxj7H5InqbzQQxF8j02yqae2qossnf3ccoA0aAJJNPgDii8qAQuNg1JLb5/FehJHt0gGTlp+IvYTbWH1eoyEGUMRXFVj+HPC5yTyX/CTS+GxpJ8Rm0a5PXPiprUkCRRWAg2UGVBKfxGOmNE8QGLivQF1j+wGBg3uBY88ry78zAiZr/xnmz8z7pZaAi9e+84b1hZauNtoaLwuMmpXk+bTSC9BzC18pUHkTO0GaJjef54d2ZPNxaRHyAGLtnxsPeRzHDt435PPYurXkL82u3XkA42lMSs4GYEDqVCDdHN6uQkxTFnZT5vTl6DAEv9c/nuNvw2tVf8h7Pe8XZADqrXpD4OWTvzOOrPT3170882bn/D0I6zs8W3FZmXKIYbHlOhDDdN18UAVJ7WpXHJkaCPn41u1OmpoLyOTNJvvQTa/51GQhs6Cq98ELp0Jh2fpOcRDodkHf+yZgnGNPWPOPDkBGMD5bGeD38U6FhbiwLr4a6fLJresB2p5l5KyUbhEWXl6Bed19vVNQytzZ3X+B0rrE5Ni3RxgIYzuNBhFdNuXCWYoMc0h2ol1oMPxx8qP0/lhBttpi0KoHgeeejmq/8Wo/lMUfKEn7SHX+AAYAriy0bpUQbQVoXZ6x4n08C0BLTw0CcPE9NVhYvgQ0vBEQUC895k2kPmJ6BRQ6PjrwlMCDgQvndV4WyKvwMY9KkyxO+HJtwi03veZTictviTwAiAwDBQFKg+TNPEAgqX+eIBDebUxk3H5/oy3/dYa/wm9m/YSDxIa1V//ZqlwOvHzit8YAeh9nTv7XBAp5iZgyt8lpEyp/It0zmoU0d+t0LoxkiUC85z/xlhR++DJs2XrcASiAgO4G0Te/etNrPpUx6pfJA8Bkrty00jmAQCZyYCCQrX8eIODiwsvozoKe/i5b9uMGP+Qlearas7tyvKXqmpqWrUi6fOI31wO0gzN+meHBrp1kF8dg23t9ZLi36se8knP0BzrjS9ZjhUuVZuARtorsQOVlpcE6zPJcqZw0PFhAbPSNN138qWS7bxNlNQBRyQKCgGTIwYBAFoVzzWgDAgeejhZ/fbJvTvoDSKcC2jAICMCQYavQDkDbAdqQHMShpHdkKA0KOebV8UDulGDJqA3laqDJ1iPLiEtxaXuSswLJhen0JeDyodpDMJ/2fgDXJplbkAeAWrVhoUBABA0IBOIlR/q6OmvK27vLqu7Jyb5IGV9L/0T1V0CQMj8AbFj7zo+O1T/oyqHLJ35jB4BrmlOS+l8xSm6ffYHZuUjk4JJnerA0vEw+MOqAJ+FwtT6v8rDk+nt+vM7cnD/GJct/0wSM3byp/byfUysA0I2IjaM0KA3NpskGka8oX8KcHYbKTa1v7NPfZX7/lWBwAyXlXXh+q2Od6q/uicZrWrRi6PKJ39gOx/xiW21WEwCQSOr69f/8X/7E37xssfHp57dK9z64AA4ij6wwXfrjjM2P9C5UkyGXdRqEsU/NkfkBBwC9D154ENZvuL7SbKMGDALhZsAgkCmyDgTM4QOwzMk2+iTnJNTN/VsZ/lQ4AINr1l790RXtFHT5xAfG4Ix+eYMau66V1oi/4mjvXDlQ5cS85a2/hTGWDBTVpoxBUJZF6n+eN1tlthWyCYkUmwYw9qnN/Rn9NPETgVoV1BoEqOFZlxEIZKs6uA+o/Fl+7NCPhOlrlgF1eJ30l1Fzms8tI2LGKM3QLoytjafSHplrQE4Fcuv7vIpeKL8M9Hktw+QAioWRuHd1pOtyoh4u5UvWfTmu00N12f1AmB+QHwaZzPVjjvpZJqwtcpmAgKjKxx3YbVV/7+rrl/+B6PUHlC3//Up/2ZrxFomWM21Kpb+njPQkpKq4uM4xOmPEugFGQOJZGK5ZG0T7CmW5X6PzhzCdv7W4r6kvoWkAY38zAOYHJADEAgcMArVFzhMEFsxh6NknHOMzyS+YHai1/Ovw9tIfgNmw9uqPjmefaQVQ6ZOxdcyVps8wKgCujnNGrPP2I5FfliElvE9CQKpy1441PkwpF6jK4MbCuvV+dT9NNDjmB0oAENtWS8sBBMrtSAtqCwLm8EEE5x/EFYDklJ8EECLNXfoH2tpP4uVFJSmeTyclNJCXsjw8V04kbXcwAjSCypFpb606EeLKDE46snYFrd1UINzfD2Ds068dHPMDDAB6v3/hFIBdsubmAlYlCByZRvIZ76KTT37pbx7S31+sZC3AuZaXmd4zo3SmaVt8jmFz9yy9Gz9yTNUzbxxzegDFOqhubNVorunz1N7fTjR45gfUx0Ep4xG46CCg0S+5WXgQMIf2x7V+ztBAnqmVZM9L/5ZhkrY2plie5IyAOSlrKbs6oKW0KEPtpxckmTdlRJ6mDjh8/SycdDtUvew65MtL8GxYXvILA+CHdr7uU2M7Xzf3pb460scB3deWl5MkWqsqZWwCgUzkQEEgqT9tEB0/hHDgp+d79n9xOdDHCWq6r43bsPbqj26tybAs6UtX/cEOgJgWIBm/ZJQzCfNkmL+FlG8+EpznUUxfBIm0vbqZojVqIEoHoTKxdNNE+Omdr7t5QVeENABMhuqTlrUrcDW4Dpv9TzBGZp5/CbUx/vngvub/nK5doX4B4wi+JbZj6xg/9lxOIqeMm54C7MpNxoaW0nkwkAJBiQctOIiQePKpJrYx9+S0AEe3A9j8mUviZ7wXiuQU4PcvvA/upS1HEBBBAwKBeOkG08kTsAzst/8CUv3njJ5Sa5Ngee6vaR0y33Rb7vSlq7bdB2AMbjw1HCjnKCeleZz9TTWFmFcbFIU6j1QyZ2vKnHZd16Rcif3N84PKPw3gVz9zyc1jn7kkf47/oCn3YbqAOoMHgYxYbyqyCQQG7Tp84qhdw2fMnqz7899W6j+lafuja9Ze/Rdjc828VGRBgDaDnTeh1WnNoFqKa3uAXG/Xf1FC+zTxFfP3lZadtzvo9uq2qrSU39bLogthBACfIcLmv339TYsK9jkAmOQ3WfaaMwhkMs8XBMLNgEDg6HSU/AbOCVAxbva+D/W/vfTntKNNouVGX7rq+qkvXXX9ZgC/A1Cju7mlOqbUQJHmk5e5fNKDIFtUdtDVaJziwqjkbEqRjtVdROaqWy69acstl940VaxggSgFAMqsBGARQCD7EurrWwgQwOyMu+Duv1BMDiSMDs3GWkOYs/T3tGHt1X+xdb6FLBXdddX1WwFsBnBjUYIKJk3Dcwd9SpBQZUD3elZZzzc4HVzukjGzGLQqPE2u0+0C8IuffcMnN372DZ+czDdi4Sm/YvX+h+6DQfao6rkJr5JRpDw3LhbbNJ2uMbg1GmYMUD12H8xTD8OMrIH/9LcJXwGyoGCrYDYCFxeKF8uGcBInqp7lTqxTh0LgVYduevdkw5Msa3rzxH/ZCGCrAV0TQyUT23elmTmvjuu0Qb4bdQ9mIzBSy4hlsHCTq5eUgqfrsWXzqYocd7TLGGz97Bs+uSPpmCWgEgBsB/C+Ehe2XufWSZYBCJTbYanzrTuBg0/DjIwCxn8BmAFAYHR/75jb+ANCWCN8O4JaSJlm8YBWALALwOZDN717QdaFF5OumPjPG2E3Po0DtM6GOqZLPrJpf426j2nz04YsYwMJANjXxTULqPBYThw/xIZaienD9f0Atn/ujZ/Y0dAti0olANgM4BvlFKsXBDrfvhM4+AxMxwFAh5/93y8AuJvBAgAAfObQTe9eVacHXTHxn7YAtAX2VKR1RnyJFygxfy2TgxiQKBAxitHBgSQHALo+ls+VJ8sCYG0eOwFs/7vLPjFwL75BUJm/3v/QFIANdalWIwhU3/wHmMMHYTojQMU0AM/Qhn38k/3GL/2wyoMGwFT8wQAAAPzqoZveveKWB9vQFRO/usUYjAE0BrezEChNAZAweV5iZ+IY05rMp7+5tmCS8hDSGvZejWX6SRja+fnLlpe0z1ENADy4HTDva0q55CCQiZwPCHS++NdAZ43VAAIA+H0BFZP0DACEVsB/3XURAHS7+gIAAHjtoZvevSwly6DoLZPXrndAsNm4Xz1dANpOA1SckX4DfD4f02bSpRrA/QBNwmDyC5f/9YI77wyS6gAgTgMauHA1gUDnix8HRtbAVF4DkAbACABa/YdLQxBAAEQAMJqJ5w0A07D2gKniw61Ceuvkf9gI0EbYVYWNAG02BusB2gTkAICDA9A3AMipxP3GYAp29+wkQPf9/Zv+asXaY+p56v0PTsFPA3jSJtW7VeksWa1aLIP6AQER1BIEOnd9PGgAxq0C8Pk/wFcB9PzfzfP5/B9YSAAAgPsN0djzN//Sih2Eg6ax2//3zQA592naaAxtzE8BJFhwgyC7nwQAY2jq/3vzx6YW6REWjUYa4ncCcNMAN7DVpadMUCEwJSINAuUKaousaxfBMWA+d2yDn8+3a3tzspaFzJ02wTpvnWKfGC/T5JX/c1VPiwZJOU9ATjvkLWUva4JqBJdKlqTTVmDUC8g27SJfUb4Evh3T/hh578PaHevVED9QYNj0wp/98x2DLHBIpwbVAgD9wUX3QfhxA21AIMvLLWg5uA4nc43+TvHBIkj8El0zBIEh9UtNGgCQ3YlWDwLZ4JUCAia5KNz74JYGkcXBhSEIDKkvagMAO5H9ZsAyAAFaSE2AhfetBQBDTWBIK4EaAYD+4KKDYFuEVWz2spAiBrQAgqU7etyrF3UMzPwAxP2yoSEIDKkVtdEAgNoDKeYAAjVpRZI+QKC2yD5AgM5Yx7aTt5wGJLQswOCaF/7sn+944c/+2Uo8TWhIi0StAMAZA2+vSZG9LKRoTCuSLDIImNNfmM+/vCR8W7oGwOQQBIZUorYaAKjxQIoVAgJ5eyK70b7e86FlARqbYEFg6CcwpIRaAwD+4KIdpL8bkBDjsOUKAplIYQEYOa1dg1YWeRBYVTsIhzR/6k9Evf/BrQB+u12mlec6bABUTz+GzhMPuH0Ao+7z4HxDkNwMZIzB973xB3DuxRtx9j9/CUbOWNPuIYY0pIUnuzMR2LnzArMjl6BfAFgPYArAutUKAp0+AODsV12AC981htPPeUG7Rg9pSEtHuwCM77zATPLA9lMAALBLgtuBtkryynMdprUvAj9VtkQXvPEHcMmvvGPI/ENaKbQBwMSWPfLL0/0BAAAQtqPu2wGZDLlLHrScvAapM1JXOADggst+ED/8rrHmBg5pSMuPbuAg0D8AbLvoIAjbWzFWoGXgNdhUpE9z+lm1Cc9+1QVD5h/SSqcbtuyhMWAuAGDJagErDQRaug7T2nNiBkUX/dur2jVqSENa3rQDmCsAbIu2AA4Czfy6MlyH6fQXiHtPF1z2apx+ztrmxgxpSMufNmzZQ+Nz1QAARFtAC75GNsUy9RWgM89mKOFVB8J5mzY2N2JIQ1o5tGXuAGC1gK3hfhWBAK19ESICxBRnv+qlzQ0Y0pBWDo3NRwMAtl20Hdw7cJWAQO/0FwDUS2KGTj5DWmW0bn4AYOlacdc3CCxD1+GqA3rBOXEK0OKT0kMa0kqk+QPAtot2Qu8U7AsEWKoFAIHm77Tnq6d1L4G0GA5BYEirjwahAQDAeBIyHxAo82iLwEyyOYBAb+2LQOIA0SEADGn10WAAYNtFUwB+JwmfKwgUMiwmCPTOOhtAr79KhjSkFUaD0gAAuyyYbhde9iCQcRgCQFUHvRe+JBoDhxgwpFVIgwMAuyx4bTau2daXyZBeZoqrTZctuQ2CuNveORc4Q0K7soc0pJVGg9QAvEHwM8X4AYJANnjAINBbex6IerBTgSEKDGn1UdOnweZC43BnBmRjCeETX0DT9n+KKdhlIUUMaC448zmytDQaPQ101jkwx553U4GFoX133oa7/vWPDKSssza8Ahvf9R4AwAXvuBpnbXjFvMscZPtydOEHtuFV//7XRdiRXY/h1stfuWB1tqFz34JEqfgAAAh1SURBVPJ2vPkTt/ad79bLX4kjux5rlTb37ItJg9UAAD8VGK9Ns4IchrrnbsRKsgEc2fUYHvrgdXjog9fh1stfiVsvfyUe+ZPrl7pZpwztu/O21swPAFMf+8gCtqaZBg8AQPNUAFgxINBbey6ot3KnAB4QPvdD52D3LTctdXNWPfXbx0d2PYZ9d962QK1ppoUBAEvjyH5RiNEKAAEaPQ29decv6BRgMWhm+gDuee87h9rAAtNcQHYpgXnhAMBOBZpPoV0BrsO9F73MOQWtfHrog9cNQWCBaPctN2Fm+sCc8i0VLaQGAGy7aBLAhxrTLXPX4e76lwCdhbCXLg09/D+u72ueOqR2tOezc2PkmekDSwYCCwsAALDtomuRfGI8Q8vcddgaA1cHzUwfmPNgHVKe5svES/U+Fh4ALG1Bkz0AWNZeg90Xb2iXcQFpyx7K/m3+wz/teylpaBAcLDVZ89dffElt/FynD/OlxdFrt100heseHAfw6ca0zUv/fWXIltGuYOErQKOnNWdYIvLr/hvf9R586ed+pJV6f/CBewfeji17BmcnOWvDK/oqb+pjH8F9v/bexnSDbCOnJkB96U9c3djnu2+5KbzLxaLF0gD80mC6YShHC6AJDNZrcHnSWRtegUv/9JOt0w/tAIOhgw/c28jc577l7Y3lLIVWtngAAADbLtqKJv8ATwPeP5ANXoUgsP7iSxrVzSENlpoYd3Td2a3eS79ORIOgxQUAS+NoYxT0VG/ryydWl4UU/RS8okBgdN3ZrdIMwk14SM0GPK/Wv/Qnrp53WYOmxQeA6B/QbBT0tEwchlYTnffWZpV0SM3URmr7vl6O04Cl0AD8ASJjfeUZgkBramPgazMYh9RMbdR/39dtpgFt7AmDpKUBAADYdtF9AH6xrzxDEGikR/7k+sblpPUXX7Lo1ubVSG3W/rXav9y0gKUDAADYdtEODEFgYLT7lpvw0Aevq00zuu5sbP7DP12kFq1uarN2rxm+jR1gMXcILi0AAB4EbuwrzzLZP7BcaOpjH8E9730n7nnvOxvTvuEjnxyuEgyI2qj/2tay/uJLGo2vM9MHFm2H4PJwcN920TiuexAArmmdZ64OQ56xB+gwtFi084K5N8b7CCwk88+lfUt9IMZcqc023vPe+vbsiswF77i6cUPW7ltuWhQ7zdJrAJ62XTSOBdUEmjOsdE0gR6PrzsaFH9iGH/nyo0PJP0Bqs1x3wTvy6n6bFZjFcg1ePgAADEFgwHTuW94+p30CQ2qmNoa6EqOf+5a8ZsBpZvoA9t6x8NOA5QUAwLIBgbl6DS4n2nfnbbjnve/EzgsM7vu19y7q8tJqpjZLdS/9iatrmXy5OAUtPwAA5g4CC+06vIJp6mMfweS/eH2rDTNDqqc20r9p/t52OXChpwHLEwCAuYEAsPCuwyucPBAsxdbT1UJtlumaJHyThtBPXfOh5QsAwLxBQF3OOfFqA4GDD9y7oMd8r2Zqu/bfhrnbGAMX2g6wvAEAGIIAo9KBIFv2EMa+8DVc+IFtrTf4HHzg3uHZgHOgNvPytvssSqsEnBZ6h+Dy8ANoIusnMAnghr7y9eUr0LdjwbIi72f+qn//660P/nz4f1yPje96Tytp1YYW6rCN5UJtj/3y32UYFO357E0LtpKz/DUAT3NxGwYGrgmsBLrwA9taWZlnpg8s+YcpVhIt1TFqC1nvygEAwIPAa9HPVmJg4K7DK4HabvYZngrUnpYKABZyh+DKAgDA7yLcjH4OFQHm7ivQ8sCQ5UZnvqydLWAIAO1oqb/gs1Dgs/IAAODnCbQ7XszTgB2GhnTq0FIfo75QU7WVCQCAPVlo20Vb0PagUU/zAYEVRG1VxuGxYO1oqW0lC/XxkJULAJ7sQaM/jQU7Yqx9quVEbZf4hgDQTEtxWGepHYOmlbEM2ETbLtqJ6x7cDGAngE2t8rBtwe23Ey9/mpk+gK++552tNYC2toJTmdpK3h/58qNzBtRbL39lI8jsvuUmXPiBbQNbtgVWCwAA3i6wGdc9uB3A+1rnqz8mYMXQvjtvw8EH7u1r/fmsDa9otVzYluZzXsFyPhegDQC0OeijjtqcEeCnAYM8zm31AICnbRddi+se3AmrDaxrlWeF+ADNh8FyNDwXsJnabsiZL5C+9CeaAQCwQD/I97bybQA5sl8l3oh+VglOMYO/9xocUj21tf7P9/SethrEoHcIrk4AAPgqQXsD4SkCAv1+QuxUpbaW90F9janN3gBgsCsSqxcAPNlvEm5EP58kSy9XDZ214RV408dv/f/bu1+ehoE4jONPNe+giC0kqE3sJewNkJzBITqDISSgIJkB16CGxPUlVCKHB0N4AcxUs1dQRNeEjP25Y8e6td+PW3LismxPr7/f9Ur134LtH81XHcX2ISKf7cD6B4A0vxqYrB1f0xBon51vVKluGts/mq/DO20fI/56f/PWlmxGAJSK1UBP0uPasTUKgeOLG/WfX3kfgAPb/fcHrSOvh63aFvh87UxsVgBI5WrgSsVDRS8rx+5pCByenKozjNV7eJLJcnWGMScCO7K9+tvet9uyvQ3wVQfY1Y7X9tx+GEkjSa2lY2bfkrnsbGVKwLY0bwUwL+6mirttSdda1i3Yp8s/4IAAKMXdkYpuwb0WBQEhgBoiAH4q6gN3WhUEQI0QAIsQBGgIAmCV30EA1ApdAAcmy6kEoFZYAQANRgC4oRaAOpkSAG7GVU8A8GhMALhJq54A4FFCEdCRyfJPrdo2DOyHSRoGbVYA7qKqJwB4EEkUAZ2lYTDWX95RCOyOwex3zD6AvzJZHsn1bcVA9QZpGCTlBwJgAybL+5ISURPA7ptIisorf4kA8MBkuVFxT9WX7VHkwP+bqmhdJ2kYLOxgfQPIUQzfE137/QAAAABJRU5ErkJggigAAABAAAAAgAAAAAEAIAAAAAAAAEIAAAAAAAAAAAAAAAAAAAAAAAAAAAAAAAAAAAAAAAAAAAAAAAAAAAAAAAAAAAAAAAAAAAAAAAAAAAAAAAAAAAAAAAAAAAAAAAAAAAAAAAAAAAAAAAAAAAAAAAAAAAAA/+ZQMP/mUOD/5lD//+ZQ///mUP//5lD//+ZQ///mUP//5lD//+ZQ///mUP//5lD//+ZQ///mUP//5lD//+ZQ///mUP//5lD//+ZQ///mUP//5lD//+ZQ///mUP//5lD//+ZQ///mUP//5lD//+ZQ///mUP//5lD//+ZQ///mUP//5lD//+ZQ///mUP//5lD//+ZQ///mUP//5lD//+ZQ///mUP//5lD//+ZQ///mUOD/5lAwAAAAAAAAAAAAAAAAAAAAAAAAAAAAAAAAAAAAAAAAAAAAAAAAAAAAAAAAAAAAAAAAAAAAAAAAAAAAAAAAAAAAAAAAAAAAAAAAAAAAAP/mUOD/5lD//+ZQ///mUP//5lD//+ZQ///mUP//5lD//+ZQ///mUP//5lD//+ZQ///mUP//5lD//+ZQ///mUP//5lD//+ZQ///mUP//5lD//+ZQ///mUP//5lD//+ZQ///mUP//5lD//+ZQ///mUP//5lD//+ZQ///mUP//5lD//+ZQ///mUP//5lD//+ZQ///mUP//5lD//+ZQ///mUP//5lD//+ZQ///mUP//5lD//+ZQ4AAAAAAAAAAAAAAAAAAAAAAAAAAAAAAAAAAAAAAAAAAAAAAAAAAAAAAAAAAAAAAAAAAAAAAAAAAAAAAAAAAAAAAAAAAAAAAAANR4ADD/5lD//+ZQ///mUP//5lD//+ZQ///mUP//5lD//+ZQ///mUP//5lD//+ZQ///mUP//5lD//+ZQ///mUP//5lD//+ZQ///mUP//5lD//+ZQ///mUP//5lD//+ZQ///mUP//5lD//+ZQ///mUP//5lD//+ZQ///mUP//5lD//+ZQ///mUP//5lD//+ZQ///mUP//5lD//+ZQ///mUP//5lD//+ZQ///mUP//5lD//+ZQ///mUP8AAAAAAAAAAAAAAAAAAAAAAAAAAAAAAAAAAAAAAAAAAAAAAAAAAAAAAAAAAAAAAAAAAAAAAAAAAAAAAAAAAAAA1HgAMNR4AMDUeAD//+ZQ///mUP//5lD//+ZQ///mUP//5lD//+ZQ///mUP//5lD//+ZQ///mUP//5lD//+ZQ///mUP//5lD//+ZQ///mUP//5lD//+ZQ///mUP//5lD//+ZQ///mUP//5lD//+ZQ///mUP//5lD//+ZQ///mUP//5lD//+ZQ///mUP//5lD//+ZQ///mUP//5lD//+ZQ///mUP//5lD//+ZQ///mUP//5lD//+ZQ///mUP//5lD/AAAAAAAAAAAAAAAAAAAAAAAAAAAAAAAAAAAAAAAAAAAAAAAAAAAAAAAAAAAAAAAAAAAAAAAAAADUeAAQ1HgAoNR4AP/UeAD/1HkA///mUP//5lD//+ZQ///mUP//5lD/v6w8/wAAAP8AAAD/AAAA/wAAAP8AAAD/HxwK/6+eN///5lD//+ZQ/39zKP8AAAD/AAAA/wAAAP8AAAD/AAAA/wAAAP//5lD//+ZQ///mUP+/rDz/AAAA/wAAAP+/rDz//+ZQ/7+sPP8AAAD/AAAA/29kI///5lD//+ZQ///mUP//5lD/Dw4F/wAAAP8fHAr//+ZQ///mUP//5lD//+ZQ/wAAAAAAAAAAAAAAAAAAAAAAAAAAAAAAAAAAAAAAAAAAAAAAAAAAAAAAAAAAAAAAAAAAAADUeABQ1HgA8NR4AP/UeAD/1HkA/9R5Af//5lD//+ZQ///mUP//5lD//+ZQ/7+sPP8AAAD/AAAA/y8qD/8fHAr/AAAA/wAAAP8PDgX/79hL///mUP9/cyj/AAAA/wAAAP8AAAD/AAAA/wAAAP8AAAD//+ZQ///mUP//5lD/v6w8/wAAAP8AAAD/v6w8///mUP//5lD/HxwK/wAAAP8fHAr//+ZQ///mUP//5lD/r543/wAAAP8AAAD/f3Mo///mUP//5lD//+ZQ///mUP8AAAAAAAAAAAAAAAAAAAAAAAAAAAAAAAAAAAAAAAAAAAAAAAAAAAAAAAAAAAAAAADUeACQ1HgA/9R4AP/UeAD/1HkB/9R5Af/UeQH//+ZQ///mUP//5lD//+ZQ///mUP+/rDz/AAAA/wAAAP+/rDz//+ZQ/5+PMv8AAAD/AAAA/5+PMv//5lD/f3Mo/wAAAP8AAAD//+ZQ///mUP//5lD//+ZQ///mUP//5lD//+ZQ/7+sPP8AAAD/AAAA/7+sPP//5lD//+ZQ/39zKP8AAAD/AAAA/wAAAP8AAAD/AAAA/wAAAP8AAAD/AAAA/9/JRv//5lD//+ZQ///mUP//5lD/AAAAAAAAAAAAAAAAAAAAAAAAAAAAAAAAAAAAAAAAAAAAAAAAAAAAANR4ABDUeADQ1HgA/9R4AP/UeAD/1HkB/9R5Af/VeQH/1XoB///mUP//5lD//+ZQ///mUP//5lD/v6w8/wAAAP8AAAD/v6w8///mUP+PgS3/AAAA/wAAAP+fjzL//+ZQ/39zKP8AAAD/AAAA///mUP//5lD//+ZQ///mUP//5lD//+ZQ///mUP+/rDz/AAAA/wAAAP+/rDz//+ZQ///mUP/fyUb/AAAA/wAAAP8AAAD/AAAA/wAAAP8AAAD/AAAA/y8qD///5lD//+ZQ///mUP//5lD//+ZQ/wAAAAAAAAAAAAAAAAAAAAAAAAAAAAAAAAAAAAAAAAAAAAAAANR4ABDUeADQ1HgA/9R4AP/UeAD/1HkB/9R5Af/VeQH/1XoB/9V6Af//5lD//+ZQ///mUP//5lD//+ZQ/7+sPP8AAAD/AAAA/y8qD/8fHAr/AAAA/wAAAP8fHAr/79hL///mUP9/cyj/AAAA/wAAAP8AAAD/AAAA/wAAAP9/cyj//+ZQ///mUP//5lD/v6w8/wAAAP8AAAD/v6w8///mUP//5lD//+ZQ/z85FP8AAAD/LyoP///mUP/Pu0H/AAAA/wAAAP+fjzL//+ZQ///mUP//5lD//+ZQ///mUP8AAAAAAAAAAAAAAAAAAAAAAAAAAAAAAAAAAAAAAAAAANR4ABDUeADQ1HgA/9R4AP/UeQD/1HkB/9R5Af/VeQH/1XoB/9V6Av/VegL//+ZQ///mUP//5lD//+ZQ///mUP+/rDz/AAAA/wAAAP8AAAD/AAAA/wAAAP8vKg//79hL///mUP//5lD/f3Mo/wAAAP8AAAD/AAAA/wAAAP8AAAD/f3Mo///mUP//5lD//+ZQ/7+sPP8AAAD/AAAA/7+sPP//5lD//+ZQ///mUP+fjzL/AAAA/wAAAP/fyUb/b2Qj/wAAAP8AAAD/79hL///mUP//5lD//+ZQ///mUP//5lD/AAAAAAAAAAAAAAAAAAAAAAAAAAAAAAAAAAAAANR4ABDUeADQ1HgA/9R4AP/UeQD/1HkB/9R5Af/VeQH/1XoB/9V6Av/VegL/1XsC///mUP//5lD//+ZQ///mUP//5lD/v6w8/wAAAP8AAAD/v6w8/7+sPP8fHAr/AAAA/z85FP//5lD//+ZQ/39zKP8AAAD/AAAA///mUP//5lD//+ZQ///mUP//5lD//+ZQ///mUP+/rDz/AAAA/wAAAP+/rDz//+ZQ///mUP//5lD/79hL/w8OBf8AAAD/j4Et/x8cCv8AAAD/T0cZ///mUP//5lD//+ZQ///mUP//5lD//+ZQ/wAAAAAAAAAAAAAAAAAAAAAAAAAAAAAAAAAAAADUeADQ1HgA/9R4AP/UeQD/1HkB/9R5Af/VeQH/1XoB/9V6Av/VewL/1XsC/9V7Av//5lD//+ZQ///mUP//5lD//+ZQ/7+sPP8AAAD/AAAA/7+sPP//5lD/X1Ye/wAAAP8AAAD/38lG///mUP9/cyj/AAAA/wAAAP//5lD//+ZQ///mUP//5lD//+ZQ///mUP//5lD/v6w8/wAAAP8AAAD/v6w8///mUP//5lD//+ZQ///mUP9fVh7/AAAA/w8OBf8AAAD/AAAA/6+eN///5lD//+ZQ///mUP//5lD//+ZQ///mUP8AAAAAAAAAAAAAAAAAAAAAAAAAAAAAAADUeACQ1HgA/9R4AP/UeQD/1HkB/9R5Af/VeQH/1XoB/9V6Av/VewL/1XsC/9V7Av/OdwT//+ZQ///mUP//5lD//+ZQ///mUP+/rDz/AAAA/wAAAP8vKg//LyoP/wAAAP8AAAD/PzkU///mUP//5lD/f3Mo/wAAAP8AAAD/AAAA/wAAAP8AAAD/PzkU/7+sPP8AAAD/AAAA/wAAAP8AAAD/AAAA/wAAAP8AAAD/AAAA/7+sPP//5lD/v6w8/wAAAP8AAAD/AAAA/w8OBf//5lD//+ZQ///mUP//5lD//+ZQ///mUP//5lD/AAAAAAAAAAAAAAAAAAAAAAAAAADUeABQ1HgA/9R4AP/UeQD/1HkB/9R5Af/VeQH/1XoB/9V6Av/VewL/1XsC/9V7Av/VfAP/s2UG///mUP//5lD//+ZQ///mUP//5lD/v6w8/wAAAP8AAAD/AAAA/wAAAP8AAAD/HxwK/8+7Qf//5lD//+ZQ/39zKP8AAAD/AAAA/wAAAP8AAAD/AAAA/z85FP+/rDz/AAAA/wAAAP8AAAD/AAAA/wAAAP8AAAD/AAAA/wAAAP+/rDz//+ZQ///mUP8fHAr/AAAA/wAAAP9fVh7//+ZQ///mUP//5lD//+ZQ///mUP//5lD//+ZQ/wAAAAAAAAAAAAAAAAAAAADUeAAQ1HgA8NR4AP/UeQD/1HkB/9R5Af/VeQH/1XoB/9V6Av/VewL/1XsC/9V7Av/VfAP/1nwD/5NRCf//5lD//+ZQ///mUP//5lD//+ZQ///mUP//5lD//+ZQ///mUP//5lD//+ZQ///mUP//5lD//+ZQ///mUP//5lD//+ZQ///mUP//5lD//+ZQ///mUP//5lD//+ZQ///mUP//5lD//+ZQ///mUP//5lD//+ZQ///mUP//5lD//+ZQ///mUP//5lD//+ZQ///mUP//5lD//+ZQ///mUP//5lD//+ZQ///mUP//5lD//+ZQ///mUP8AAAAAAAAAAAAAAAAAAAAA1HgAoNR4AP/UeQD/1HkB/9R5Af/VegH/1XoB/9V6Av/VewL/1XsC/9V7Av/VfAP/1nwD/8t1Bf+LTAv//+ZQ///mUP//5lD//+ZQ///mUP//5lD//+ZQ///mUP//5lD//+ZQ///mUP//5lD//+ZQ///mUP//5lD//+ZQ///mUP//5lD//+ZQ///mUP//5lD//+ZQ///mUP//5lD//+ZQ///mUP//5lD//+ZQ///mUP//5lD//+ZQ///mUP//5lD//+ZQ///mUP//5lD//+ZQ///mUP//5lD//+ZQ///mUP//5lD//+ZQ///mUP//5lD/AAAAAAAAAAAAAAAA1HgAMNR4AP/UeQD/1HkB/9R5Af/VegH/1XoB/9V6Av/VewL/1XsC/9V8A//VfAP/1nwD/9Z9BP+4aQf/j00L///mUP//5lD//+ZQ///mUP//5lD//+ZQ///mUP//5lD//+ZQ///mUP//5lD//+ZQ///mUP//5lD//+ZQ///mUP//5lD//+ZQ///mUP//5lD//+ZQ///mUP//5lD//+ZQ///mUP//5lD//+ZQ///mUP//5lD//+ZQ///mUP//5lD//+ZQ///mUP//5lD//+ZQ///mUP//5lD//+ZQ///mUP//5lD//+ZQ///mUP//5lD//+ZQ/wAAAAAAAAAAAAAAANR4AMDUeQH/1HkB/9R5Af/VegH/1XoB/9V6Av/VewL/1XsC/9V8A//VfAP/1nwD/9Z9BP/WfQT/qF8I/5FPC//y1Ej//+ZQ///mUP//5lD//+ZQ///mUP//5lD//+ZQ///mUP//5lD//+ZQ///mUP//5lD//+ZQ///mUP//5lD//+ZQ///mUP//5lD//+ZQ///mUP//5lD//+ZQ///mUP//5lD//+ZQ///mUP//5lD//+ZQ///mUP//5lD//+ZQ///mUP//5lD//+ZQ///mUP//5lD//+ZQ///mUP//5lD//+ZQ///mUP//5lD//+ZQ///mUOAAAAAAAAAAANR4ADDUeQH/1HkB/9R5Af/VegH/1XoB/9V6Av/VewL/1XsC/9V8A//WfAP/1nwD/9Z9BP/WfQT/1n4E/55ZCf+RTwv/q24Y//PUSP//5lD//+ZQ///mUP//5lD//+ZQ///mUP//5lD//+ZQ///mUP//5lD//+ZQ///mUP//5lD//+ZQ///mUP//5lD//+ZQ///mUP//5lD//+ZQ///mUP//5lD//+ZQ///mUP//5lD//+ZQ///mUP//5lD//+ZQ///mUP//5lD//+ZQ///mUP//5lD//+ZQ///mUP//5lD//+ZQ///mUP//5lD//+ZQ///mUOD/5lAwAAAAAAAAAADUeQGg1HkB/9V5Af/VegH/1XoB/9V6Av/VewL/1XsC/9V8A//WfAP/1nwD/9Z9BP/WfQT/1n4E/9Z+Bf+YVAn/kU8L/5dSC/+aUwz/nVUN/59WDf+eVg3/n1YN/55WDf+eVQ3/nVUN/51VDf+cVA7wm1QOYAAAAAAAAAAAAAAAAAAAAAAAAAAAAAAAAAAAAAAAAAAAAAAAAAAAAAAAAAAAAAAAAAAAAAAAAAAAAAAAAAAAAAAAAAAAAAAAAAAAAAAAAAAAAAAAAAAAAAAAAAAAAAAAAAAAAAAAAAAAAAAAAAAAAAAAAAAAAAAAAAAAAAAAAAAAAAAAAAAAAADUeQEQ1HkB/9V5Af/VegH/1XoC/9V6Av/VewL/1XsC/9V8A//WfAP/1n0D/9Z9BP/WfQT/1n4E/9Z+Bf/XfwX/h0kK/5BOC/+WUQv/mlMM/5xVDf+fVg3/nlYN/59WDf+eVg3/nlUN/51VDf+dVQ3wnFQOMAAAAAAAAAAAAAAAAAAAAAAAAAAAAAAAAAAAAAAAAAAAAAAAAAAAAAAAAAAAAAAAAAAAAAAAAAAAAAAAAAAAAAAAAAAAAAAAAAAAAAAAAAAAAAAAAAAAAAAAAAAAAAAAAAAAAAAAAAAAAAAAAAAAAAAAAAAAAAAAAAAAAAAAAAAAAAAAAAAAAAAAAAAA1HkBYNV5Af/VegH/1XoC/9V6Av/VewL/1XsC/9V8A//WfAP/1n0D/9Z9BP/WfQT/1n4E/9Z/Bf/XfwX/14AG/4dJCv+PTgv/lVEL/5lTDP+cVQ3/nlYN/55WDf+fVg3/nlYN/55VDf+dVQ3/nVUNUAAAAAAAAAAAAAAAAAAAAAAAAAAAAAAAAAAAAAAAAAAAAAAAAAAAAAAAAAAAAAAAAAAAAAB0vztAccA8cG3BPoBpwT+wZcFAwGTCQcBhw0LAX8NDwFrFRrBWxUeAVcZJUAAAAAAAAAAAAAAAAAAAAAAAAAAAAAAAAAAAAAAAAAAAAAAAAAAAAAAAAAAAAAAAANV5AbDVegH/1XoC/9V7Av/VewL/1XsC/9V8A//WfAP/1n0D/9Z9BP/WfgT/1n4E/9Z/Bf/XfwX/14AG/9eABv+fWQr/jk0K/5RQC/+YUgz/m1QN/55WDf+eVg3/n1YN/55WDf+eVQ3/nVUNgAAAAAAAAAAAAAAAAAAAAAAAAAAAAAAAAAAAAAAAAAAAAAAAAAAAAAAAAAAAfb44QHq/OqB4vzrwdL87/3TAPP9uwD3/a8E//2jBQP9kwkH/YcNC/1/ERP9cxEX/W8VH/1fGSf9Tx0rwU8lMoFDKTSAAAAAAAAAAAAAAAAAAAAAAAAAAAAAAAAAAAAAAAAAAAAAAAADVegH/1XoC/9V7Av/VewL/1XsC/9V8A//WfAP/1n0D/9Z9BP/WfgT/1n4E/9d/Bf/XfwX/14AG/9eABv/XgQb/nlgJ/4xMCv+TUAv/l1IM/5pUDf+dVg3/nlUN/55WDf+eVg3/nlUNwAAAAAAAAAAAAAAAAAAAAAAAAAAAAAAAAAAAAAAAAAAAAAAAAAAAAAAAAAAAgL43oH6/OP98vzn/er86/3fAO/90wTz/cME9/2vBP/9rwkD/Z8NB/2HEQ/9fxET/W8VG/1vFR/9Yx0n/VMhL/1PKTP9Ry07/TstPoE7MUBAAAAAAAAAAAAAAAAAAAAAAAAAAAAAAAADVegFA1XoC/9V7Av/VewL/1XsC/9V8A//WfAP/1n0D/9Z9BP/WfgT/1n4F/9d/Bf/XfwX/14AG/9eABv/XgQb/2IEH/65kCf+KSwr/kU8L/5ZRDP+ZUwz/nVUN/51VDf+eVg3/nlYN/55VDTAAAAAAAAAAAAAAAAAAAAAAAAAAAAAAAAAAAAAAAAAAAAAAAAAAAAAAhL43cIG+N/+Bvzf/fb85/36/Of97wDr/dsE8/3PBPv9ywj7/bsI//2nDQf9lw0L/YcVE/13GRv9cx0j/WshJ/1fJSv9UyUv/UstN/1DMT/9OzlHwTM9TQAAAAAAAAAAAAAAAAAAAAAAAAAAA1XoCgNV7Av/VewL/1XsC/9V8A//WfAP/1n0E/9Z9BP/WfgT/1n4F/9d/Bf/XfwX/14AG/9eABv/XgQb/2IEH/9iCB/++cAn/iEoK/45NC/+TTwz/mFMM/5xVDf+dVQ3/nlUN/55WDaAAAAAAAAAAAAAAAAAAAAAAAAAAAAAAAAAAAAAAAAAAAAAAAAAAAAAAAAAAAIa+NsCEvjf/gr83/4O/OP+AwDn/fcA6/3vBO/9zwT3/cMI//2zDQP9qw0H/Z8RD/2PFRf9fxkb/X8dH/1nJSv9Wykv/VcxO/1PMT/9QzVD/Ts5R/03PUv9Lz1NgAAAAAAAAAAAAAAAAAAAAANV7ArDVewL/1XsC/9V8A//WfAP/1n0E/9Z9BP/WfgT/1n4F/9d/Bf/XfwX/14AG/9eABv/XgQb/2IIH/9iCB//Ygwj/0X0I/4VICv+MTAr/kU4M/5VRDP+aVA3/nFQN/51VDf+eVg1AAAAAAAAAAAAAAAAAAAAAAAAAAAAAAAAAAAAAAAAAAAAAAAAAAAAAAAAAAACLvjVAiL42/4e/N/+Evzf/gcA5/33AOv97wTz/ecI9/3XCPv9yw0D/bsRB/2vFQ/9kxkX/YMdH/17ISP9dyUr/W8pL/1fMTf9VzU//Us5Q/1DQUv9O0VT/TNBU/0vSVmAAAAAAAAAAAAAAAADVewLA1XwD/9V8A//WfAP/1n0E/9Z9BP/WfgT/1n4F/9d/Bf/XfwX/14AG/9eABv/XgQf/2IIH/9iCB//Ygwj/2IMI/9mECf+WVAr/iUoK/45NC/+TUAz/mFMM/5pTDf+cVA3gAAAAAAAAAAAAAAAAAAAAAAAAAAAAAAAAAAAAAAAAAAAAAAAAAAAAAAAAAAAAAAAAAAAAAI6/NbCJvzf/h8A3/4bBOf+EwTr/fMI8/3vDPf94wz//dcRA/3LFQf9vxkP/a8dE/2bIR/9hyEj/XstL/1vMTf9YzE3/Vc9Q/1PQUv9R0FL/T9FU/03SVv9M0lbwS9RYMAAAAAAAAAAA1HwD/9R8A//WfAP/1n0E/9Z9BP/WfgT/1n4F/9d/Bf/XfwX/14AG/9eABv/XgQf/2IIH/9iCCP/Ygwj/2IMI/9mECf/ZhQn/v3EK/4VICv+LSwv/kE4M/5VRDP+YUgz/m1QNoQAAAAAAAAAAAAAAAAAAAAAAAAAAAAAAAAAAAAAAAAAAAAAAAAAAAAAAAAAAAAAAAAAAAACSwDUQkMA18I3BN/+KwTj/hsE5/4LCO/9+wz3/ecM+/3bEQP9yxUH/b8dE/2vHRP9nykf/Y8pI/2PLSv9fzUz/XM5O/1nPUP9W0FL/U9FT/1HSVf9O1Fj/TNRY/0zWWsAAAAAAAAAAANV8A//VfAP/1X0E/9V9BP/WfgT/1n4F/9d/Bf/XfwX/14AG/9eABv/XgQf/2IIH/9iCCP/Ygwj/2IMI/9mECf/ZhQn/2YUK/9mGCv+ISwr/h0kL/41MC/+STwz/llEM/5lTDGIAAAAAAAAAAAAAAAAAAAAAAAAAAAAAAAAAAAAAAAAAAAAAAAAAAAAAAAAAAAAAAAAAAAAAAAAAAJDANaCSwTb/i8E4/4bCOv+Ewjv/hMM8/4HEPv96xT//dcZC/3bHQv9uyUb/acpH/2TLSf9mzEr/X85N/13QT/9Z0FH/VtFT/1PSVP9R1Ff/T9VZ/03VWf9O11r/S9hbYAAAAADUewP/1HwE/9R8BP/VfgT/1X4F/9d/Bf/XfwX/14AG/9eBBv/XgQf/2IIH/9iCCP/Ygwj/2IQI/9mECf/ZhQn/2YUK/9mGCv/ahwv/um8L/4NHC/+ISgv/jk0M/5JPDP+WUQxDAAAAAAAAAAAAAAAAAAAAAAAAAAAAAAAAAAAAAAAAAAAAAAAAAAAAAAAAAAAAAAAAAAAAAAAAAACawTRQlcI2/5DBN/+Nwjj/jMM6/4bDO/+CxT3/fsY//3rHQf92x0L/dMlF/2/LR/9rzEn/aM5L/2LQT/9d0E//W9NT/1fSU/9T01X/UtRX/1HWWf9Q11r/Tthc/0zZXeAAAAAA1HwE/9N8BP/UfQT/1H0F/9Z/Bf/Wfwb/14AG/9eBBv/XgQf/2IIH/9iCCP/Ygwj/2IQI/9mECf/ZhQn/2YYK/9mGCv/ahwv/2ocL/9qIDP+VVAv/hEgL/4lLC/+OTQz/k1AMRAAAAAAAAAAAAAAAAAAAAAAAAAAAAAAAAAAAAAAAAAAAAAAAAAAAAAAAAAAAAAAAAAAAAAAAAAAAncI1IJrCNv+Xwjb/k8M4/5DEOv+JxDv/hcU9/4bGPv+AyEH/dslE/3PKRf9wykb/bc1J/2rPTP9n0E7/YNJR/13SUv9b1FT/WdVV/1XXWP9T2Fr/UNda/07ZXP9M2l3/S9teMNqHD//TfAT/030F/9V+Bf/Vfwb/1n8G/9eBBv/YgQf/2IIH/9iCCP/Ygwj/2IQI/9mECf/ZhQn/2YYK/9mGCv/ahwv/2ogL/9qIDP/aiQz/z4AN/39FCv+FSAv/iUoL/49NDEUAAAAAAAAAAAAAAAAAAAAAAAAAAAAAAAAAAAAAAAAAAAAAAAAAAAAAAAAAAAAAAAAAAAAAAAAAALerN0abwjX/l8I2/5XDOP+SxDr/j8U7/4vGPf+Gxj7/hMlB/3/KQ/96y0X/c8tG/2/NSf9s0Ez/aNJO/2XTUP9i1FL/W9VV/1jWVv9X2Fj/VNha/1LZXP9Q213/Tdxf/0zcX5DcixP/0XwF/9N9Bf/Ufgb/1H4G/9WABv/XgAf/2IIH/9iCCP/Ygwj/2IQJ/9mECf/ZhQn/2YYK/9mGCv/ahwv/2ogL/9qIDP/aiQz/24oN/9uKDf+/dQ3/gUYK/4RHC/+LSwtHAAAAAAAAAAAAAAAAAAAAAAAAAAAAAAAAAAAAAAAAAAAAAAAAAAAAAAAAAAAAAAAAAAAAAAAAAAC6sECHocI0/57CNf+awzb/msU4/4/GPP+Nxz3/i8g//4jJQf+By0T/ecxG/3XOSP9xz0r/bNBM/2nSTv9m01D/YtRS/2HWVf9c2Fj/WNla/1XaXP9S213/Udxe/0/dYP9N3WDA3JAX/9B7Bf/RfAb/0n0G/9R/Bv/Vfwf/1oEH/9eCCP/Ygwj/2IQJ/9mECf/ZhQr/2YYK/9mGCv/ahwv/2ogL/9qIDP/aiQz/24oN/9uKDf/biw7/24wO/6hkDf9/RQr/hUgLmwAAAAAAAAAAAAAAAAAAAAAAAAAAAAAAAAAAAAAAAAAAAAAAAAAAAAAAAAAAAAAAAAAAAAAAAAAAvKw92ajCM/+kwzX/n8Q2/5rFOP+Zxjr/lsc8/4/JP/+IyUD/gstD/4DNRf95zUf/dc9J/3DQTP9v007/ZdVS/2PVU/9g11b/XdlY/1raWv9X21z/U9td/1HcX/9P3WD/Tt9i/+upNPnPewb/z3sG/9B9Bv/Tfgf/1YAH/9aCCP/Xggj/14MJ/9mECf/ZhQr/2YYK/9mGCv/ahwv/2ogL/9qIDP/aiQz/24oN/9uKDf/biw7/3IwP/9yND//cjRD/qGQN/39FCvOFSQsTAAAAAAAAAAAAAAAAAAAAAAAAAAAAAAAAAAAAAAAAAAAAAAAAAAAAAAAAAAAAAAAAyIkWErysKv6pwzT/pcQ1/6fFNf+exTj/nMc6/5vIO/+Syj//jMxC/4jLQv+FzUX/ec9J/3jQSv910k3/cdRQ/2rVUv9k11X/YdhX/17ZWP9Z21v/Vdxd/1PdX/9S3V//UN9h/07gYv/vskHzzHkG/817Bv/Pewf/0X4H/9OACP/VgQj/1oMJ/9iDCf/ZhQr/2YYK/9mGC//ahwv/2ogL/9qIDP/aiQz/24oN/9uLDv/biw7/3IwP/9yND//cjRD/3I4Q/92PEf+7cg//f0UKrQAAAAAAAAAAAAAAAAAAAAAAAAAAAAAAAAAAAAAAAAAAAAAAAAAAAAAAAAAAAAAAAMKFF6m4vi7/scQy/67FNP+sxTX/qMY2/6HHOf+ZyDz/lco+/5DLQP+LzEL/hs1E/4DPR/930kz/ddRO/3LVUP9t11T/ZdhW/2LZWP9h21r/Xd1c/1jdXf9W32H/VeBi/1HgYv9O4WP/9rxJ39KFEf/Legf/zHsH/859CP/Qfgj/04EJ/9aCCf/XhAr/2IUK/9mGC//ahwv/2ogL/9qJDP/biQ3/24oN/9uLDv/biw7/3IwP/9yND//cjRD/3I4Q/92PEf/dkBH/3ZAS/9GGEf+hZyKMAAAAAAAAAAAAAAAAAAAAAAAAAAAAAAAAAAAAAAAAAAAAAAAAAAAAAMmLF2e/kBv/tsMw/7PEMv+yxTP/rsY1/6nIN/+jxzn/nsg7/5nKPv+TzED/jc1D/4rPRv+G0Ej/e9JM/3fUTv9z1VD/ctdT/2bZV/9m2Vf/Ydta/1zdXP9b4F//V99g/1XgYv9U4mT/T+Jk//2/PoDsqC7+yHkH/8l6B//Kewf/zn0J/9GACf/TgQr/1oQK/9eFC//Zhgv/2YcM/9qJDP/biQ3/24oN/9uLDv/biw7/3IwP/9yND//cjRD/3I4Q/92PEf/dkBH/3ZAS/96REv/ekhP/3pMU/8GDKOyucBslAAAAAAAAAAAAAAAAAAAAAAAAAAAAAAAA1JEYEcuMF7bDhxf/w68m/7zDMP+6xTL/tcYz/7HHNf+syDf/p8g4/6LKO/+ZzD//mMw//5POQ/+O0Eb/h9JJ/33UTf9+1U3/eNdR/3LZVf9t21j/adxa/2TeXP9f3l3/XuFg/1riYv9W4WL/VeRl/1LkZv/9vz5A/b8+/9CFEf/FeAf/yHoI/8p8CP/Nfgn/0IEK/9SDC//WhAv/14YM/9iIDP/aiA3/2okN/9uLDv/biw7/3IwP/9yND//cjhD/3I4Q/92PEf/dkBH/3ZAS/96RE//ekhP/3pMU/96UFP/ekxX/3pQV8N2VFqDdlRdR3ZYXQdmUF0HWkxdT0pAXpMyMGPHGiRf/xJYd/8XDLf++xDD/usQx/7vGMv+xxzX/tMc1/6fJOf+iyzz/ncw+/5vOQf+S0EX/jtBG/4jSSf+D1Ev/ftVN/3jXUf9x2VX/bdtY/2jdW/9j313/Yt9d/13hYf9Z4mL/WORk/1flZf9U5mf/AAAAAP2/Pv/1tDb/wXYI/8R4CP/FeQn/yXwJ/81/Cv/RgQv/04QM/9aGDP/Yhw3/2YkN/9mKDv/aig7/24sP/9uMD//cjhD/3I4Q/92PEf/dkBH/3ZES/96RE//ekhP/3ZIU/96TFP/elBX/3ZQV/9yUFv/dlRf/25QW/9iUF//Wkhf/0Y8X/8yMGP/HiRf/wIkY/8u6KP/Iwyz/yMMs/8TELv/AxTD/u8Yy/7XINf+vyTj/p8o7/6LNP/+cz0L/ktBF/5PSRv+M1En/hNVM/3vYUf932VP/c9tW/3HdWP9s3lr/Z99c/2PgXv9f4mH/XeRk/1nmZv9V5mb/Veho0AAAAAD9vz2w/b89/+qmKf++dAn/wHcJ/8R5Cv/IfAr/y38L/8+CC//ThA3/1YYN/9eIDv/Yig7/2YoP/9qMD//ajRD/3I4Q/9yOEf/cjxH/3JAS/92QE//dkRP/3ZIU/92TFP/dlBX/3JMV/9yUFv/clBf/2ZMW/9aSF//Vkhf/0I8X/8uMF//HiRf/voMX/8+vJP/Pwyv/zMMs/8nDLP/ExC7/wsYw/7zGMv+1yDb/sMo5/6vMO/+izT//n85B/5zPQv+U0kb/jNVK/4rXTP+B2VD/eNtV/3bcVv9x3Vj/bN9b/2fhXv9h42H/X+Vk/1zmZf9Z5mb/Vudn/1TpabAAAAAA/b89YP2/Pf/8vz3/2pcf/7pzCf++dgr/wHgL/8V8C//Kfwz/zYEM/9CEDf/Shw3/1YgP/9eKD//YixD/2o0Q/9qNEf/ajhH/2o8S/9uQE//bkBP/25EU/9ySFP/bkhX/25MW/9mSFf/Zkhb/1pEW/9SRF//Rjxf/zo4X/8iKF//Ehxf/vIMX/8mhH//Rwir/z8Mr/8zDLP/MxCz/ycQt/8fFLv/CxjH/vMg0/7PKN/+szDv/ps0+/6LOQP+d0EL/ltRH/43WSv+H2E//gttS/37bU/973Vb/dd9Z/3DhXP9q4l7/ZeRh/1/lZP9e5mX/W+dn/1bpaf9V6WpwAAAAAP2/PRD9vz3//L88//y/PP/joSb/tXEK/7p1Cv++eAv/wnoM/8Z+Df/JgQ3/zYMO/9CFDv/Shw//1IkP/9WKEP/WjBH/1owR/9iOEv/YjhL/2I8T/9iPE//YkBT/15EV/9aQFf/Vjxb/048W/9COFv/OjRf/yYsW/8WIF//AhRf/uIAW/8qlIf/Rwir/0cIq/9HCKv/Rwir/zcMs/8nELf/HxS//xMYx/7zINf+3yjj/rs07/6jPPv+j0UH/n9FC/5nURv+S1kr/i9hN/4baUP+B3FP/fN1W/3PgW/9t4l7/auRg/2blYv9h5mT/YOhm/1zpaP9Y6mn/VutrIAAAAAAAAAAA/L89oPy/PP/8vzz/+788/+urLP+3dQ7/tnML/7p2DP++eQz/w3wN/8Z/Df/Jgg//zIQQ/82FEP/PhxH/0YkR/9KKEv/TjBL/04wT/9SME//TjRT/0o0V/9KOFf/QjBX/zowV/8yLFv/Jihb/xogW/8GGFv+9gxf/uIMX/9CyJP/Rwir/0cIq/9HCKv/Rwir/0cIq/87DLP/KxS7/xcYx/8LHM/+8yDX/uMo3/7TMOf+wzTv/ptBA/6HRQv+W1Un/k9dL/47ZTv+I21H/f91V/3veV/924Fr/ceJd/2nmYv9m5mP/ZOdk/2HqZ/9d62n/W+tq0AAAAAAAAAAAAAAAAPy/PUD7vzz/+788//q/O//6vzv/9Lk1/8qLGv+xcQv/t3UM/7p3Dv++ew7/wX0P/8R/D//HgRD/yIMQ/8qFEf/LhhH/zIcS/82IEv/NiRP/zIkU/8yJFP/KiBX/yIgV/8eHFf/Ehhb/wIUV/7yDFv+3fhb/wpYc/9K9KP/Rwir/0cIq/9HCKv/Rwir/0cIq/9HCKv/Rwir/zMQt/8fFMP/CxzP/vsg0/7fLOP+0zDr/sM07/6nQQP+i0kP/mdVI/5PXS/+O2U7/idtR/4LeVf984Fj/eOFa/3HkXv9s5mH/Z+hk/2XqZv9h6mf/X+tp/1zsamAAAAAAAAAAAAAAAAAAAAAA/L88wPu/PP/7vzv/+sA7//nAOv/4wDn/7LEu/8WHGP+xcg3/tnYO/7l4Dv+7eg//vXwP/8B/EP/BgBH/woER/8SCEv/EgxL/xIQT/8SEE//DhBT/wYMV/8CDFf++ghX/uoEV/7V+Ff++kRv/0bUm/9HCKv/Rwir/0cIq/9HCKv/Rwir/0cIq/9HCKv/Rwyv/0cMr/83ELf/JxS//xMYx/8DINP+8yTX/t8w5/7HOPP+q0ED/otNE/5vXSf+T2Ez/jdtQ/4fdU/+D31b/f+BY/3bjXf9y5V//b+Zh/2rpZf9m6mf/Yuxp/1/savBc7GsQAAAAAAAAAAAAAAAAAAAAAPu/PED7vzv/+sA7//rAO//5wDr/+MA5//fAOf/2wDj/7rUx/9SZIf+5fRT/sHQP/7R3D/+3eRD/uXoR/7p8Ev+6fBL/u34S/7t+Ev+6fhP/uX4U/7h9FP+1fBT/uYYY/8igH//TuSj/0cIq/9HCKv/Rwir/0cIq/9HCKv/Rwir/0cIq/9HCKv/Rwyv/0MMr/9DDK//Pwyv/ysUu/8THMv/AyTT/vco2/7fMOf+xzjz/q9FA/6LURf+b10n/k9lN/5PZTf+M3VL/heBW/4DiWf925V7/c+Zg/3HmYf9s6mX/aOtn/2Lsaf9h7GqAAAAAAAAAAAAAAAAAAAAAAAAAAAAAAAAA+8A7oPvAO//6wDr/+cA6//jAOf/3wDn/9sA4//XAOP/zwDf/8sA2/+y6Mv/gqSj/158j/8OLGv/CjBn/w40a/8OOGv/Cjhr/xZQc/9CjIv/VsSb/17wq/9bCLP/Vwiz/08Ir/9HCKv/Rwir/0cIq/9HCKv/Rwir/0cIq/9HCKv/Rwir/0cIq/9HDK//Rwyv/zsQs/8rFLv/GxjD/wsgz/77KNv+4zDn/s848/67QP/+n00P/odVG/5fZTP+S3FD/jN1S/4bgVv+A4lr/e+Rc/3bmX/9x6WP/bepl/2nrZ/9k7GngYu5rEAAAAAAAAAAAAAAAAAAAAAAAAAAAAAAAAPu/OxD7wDvw+sA6//nAOv/4wDn/98A5//fAOf/1wDj/88A3//PAN//xwDb/7sA1/+zANP/qwDP/6cEz/+bBMv/jwTH/4MEv/9/BL//dwS7/28Eu/9nBLf/Xwi3/1cIs/9PCK//Swiv/0cIq/9HCKv/Rwir/0cIq/9HCKv/Rwir/0cIq/9HCKv/Rwyv/0MMr/83FLf/Kxi//x8cw/8TIM/++yjb/ucw5/7PPPf+s0UD/ptRE/6DXSP+c2Er/kdxQ/5LdUP+J4Fb/geNa/33lXf955l//dOli/23rZv9q7Gj/Zu1pUAAAAAAAAAAAAAAAAAAAAAAAAAAAAAAAAAAAAAAAAAAA+sA6UPrAOv/5wDr/+MA5//fAOf/2wDj/9cA4//TAN//zwDf/8cA2//DANf/swDT/68E0/+nBM//nwTL/5MEx/+LBMP/fwS//3cEu/9vBLf/Zwi3/18Is/9bCLP/Vwiz/08Ir/9LCK//Rwir/0cIq/9HCKv/Rwir/0cIq/9HCKv/Rwir/0cMr/87ELP/MxS7/x8cw/8fHMP/ByTT/vso2/7nNOv+zzz3/rtFA/6bVRf+h10j/nNpM/5fbTv+S3VD/i+BW/4TiWf985l7/e+Ze/3boYv9y6mT/buxmwAAAAAAAAAAAAAAAAAAAAAAAAAAAAAAAAAAAAAAAAAAAAAAAAAAAAAD5wDqg+MA5//jAOf/3wDn/9sA4//XAOP/0wDf/8sA2//HANv/vwDX/7sA1/+vBNP/pwTP/58Ey/+XBMf/iwTD/4MEv/97BLv/cwS7/3MEt/9jCLf/Ywiz/1sIs/9TCK//Twiv/0sIq/9LCKv/Rwir/0cIq/9HCKv/Rwir/0cMr/9HDK//NxS3/ysYv/8fHMP/FyDL/wMs2/7zNOP+2zzv/tM88/67SQf+q00P/otdI/53ZS/+Z207/k91Q/4/fVP+G5Fr/fuZd/3zoX/946WH/c+pj8HDrZhAAAAAAAAAAAAAAAAAAAAAAAAAAAAAAAAAAAAAAAAAAAAAAAAAAAAAAAAAAAPnAOdD4wDn/98A5//bAOP/1wDj/9MA3//PAN//xwDb/78A1/+7ANf/swTT/6sEz/+jBMv/mwTH/4sEw/+DBL//fwS//3sEu/9zBLf/ZwS3/2cEs/9fCLP/Vwiv/1MIr/9PCK//Swir/0sIq/9LCKv/Swir/0cIq/9HDK//Qwyv/zcUt/8vGL//IxzD/xsky/8DLNv+7zTn/ts87/7HRP/+u00H/p9VF/6PXSP+c2kz/lt1Q/5TeUf+P31T/h+NZ/4LlW/+A513/eulg/3bqY0AAAAAAAAAAAAAAAAAAAAAAAAAAAAAAAAAAAAAAAAAAAAAAAAAAAAAAAAAAAAAAAAD5wDkQ+MA50PjAOf/2wDj/9cA4//TAN//ywDb/8sA2//HANf/uwDT/7cA0/+vBM//pwTL/58Ex/+TBMP/hwTD/4MEv/9/BL//dwS3/3MEt/9nBLP/Wwiz/1cIs/9TCK//Twiv/0sIq/9LCKv/Swir/0sMr/9HDK//Qwyv/zsQt/83FLf/Kxi//yccw/8TKM//AyzX/vc04/7jPO/+00T7/r9JA/6rVRP+j10j/n9lL/5rbTv+V3VD/kOBU/4zhVv+F5Fr/geZd/3zoX2AAAAAAAAAAAAAAAAAAAAAAAAAAAAAAAAAAAAAAAAAAAAAAAAAAAAAAAAAAAAAAAAAAAAAAAAAAAPnAOSD4wDnw98A4//bAOP/1wDf/9MA3//PANv/xwDX/78A0/+7ANP/rwDL/6cEy/+fBMf/lwTD/48Ew/+HBL//fwS//3cEt/9zBLf/awSz/2MIs/9fCLP/Vwiv/1MIr/9PCK//Twiv/0sMr/9HDK//Rwyv/0MMr/8/ELf/NxS7/y8Yv/8fIMv/EyjT/wcs1/73NOP+6zjr/tdA9/7DSQP+q1UT/pNdI/53aTP+Y3U//lt5R/5DgVP+M4Vb/h+Ra/4LmXWAAAAAAAAAAAAAAAAAAAAAAAAAAAAAAAAAAAAAAAAAAAAAAAAAAAAAAAAAAAAAAAAAAAAAAAAAAAAAAAAAAAAAA+MA4MPfAOND2wDf/9sA3//XAN//zwDb/8cA1//DANP/vwDT/7cAz/+rBMv/owTH/5sEw/+XBMP/hwS//4MEu/97BLv/cwS3/2sEs/9nCLP/Ywiz/18Is/9XCK//Uwiv/08Ir/9LDK//Swyv/0cMr/9DELP/PxS3/zcYv/8nIMf/GyTL/xMo0/8HLNf+7zjn/uc87/7bQPf+y0j//qNZG/6bXR/+g2kv/ndtM/5ndT/+U31L/jOJX/4vjWGAAAAAAAAAAAAAAAAAAAAAAAAAAAAAAAAAAAAAAAAAAAAAAAAAAAAAAAAAAAAAAAAAAAAAAAAAAAAAAAAAAAAAAAAAAAAAAAAD4wDgQ9sA30PXAN//0wDf/88A2//LANv/wwDT/78A0/+7AM//swDL/6cEx/+jBMf/kwTD/48Ev/+HBLv/fwS7/3cEt/9rBLP/awSz/2MIs/9fCLP/Vwiv/1cIr/9XCK//Uwyv/0sMr/9HELf/QxC3/zsUu/8zGL//KyDH/x8ky/8TKNP/ByzX/vc04/7nPO/+10T7/sNNA/6zUQ/+n10f/pNlJ/6DbS/+c3E7/ld9R8JHgU2AAAAAAAAAAAAAAAAAAAAAAAAAAAAAAAAAAAAAAAAAAAAAAAAAAAAAAAAAAAAAAAAAAAAAAAAAAAAAAAAAAAAAAAAAAAAAAAAAAAAAAAAAAAAAAAAD2wDeg9MA2//PANv/zwDb/8sA1//DANP/uwDP/7MAy/+vAMv/pwDL/5sEw/+PBL//jwS//4MEu/97BLf/dwS3/28Et/9rBLP/Zwiz/2MIs/9fCLP/Vwiv/1MMr/9LDLP/RxC3/z8Qt/83GL//MxzD/yMgy/8bJM//EyjT/wss1/73OOf+7zjr/t9A8/7PRPv+w1EH/qtdF/6XZSP+g20v/m9xO0JXfUjAAAAAAAAAAAAAAAAAAAAAAAAAAAAAAAAAAAAAAAAAAAAAAAAAAAAAAAAAAAAAAAAAAAAAAAAAAAAAAAAAAAAAAAAAAAAAAAAAAAAAAAAAAAAAAAAAAAAAAAAAAAPXANlD0wDbw88A1//LANf/xwDT/78A0/+3AMv/rwDL/6MAx/+fBMf/mwTD/5MEv/+HBLv/fwS7/3sEt/9zBLf/bwS3/2cEs/9jCLP/Xwiz/1sIs/9TDLP/SxC3/0cQt/8/FLv/Oxi//zMcw/8rHMP/IyTL/xso0/8HMN/++zjn/u887/7TRPv+z0j//sNRB/63WRP+n2Ef/o9pKkJvdTxAAAAAAAAAAAAAAAAAAAAAAAAAAAAAAAAAAAAAAAAAAAAAAAAAAAAAAAAAAAAAAAAAAAAAAAAAAAAAAAAAAAAAAAAAAAAAAAAAAAAAAAAAAAAAAAAAAAAAAAAAAAAAAAAAAAAAA9MA1EPPANaDxwDT/8MA0/+/AM//twDL/68Ay/+jAMf/owTD/5sEw/+TBL//iwS//4MEu/97BLf/dwS3/28Et/9nCLP/Ywiz/18Is/9bDLP/Uwyz/0sMs/9HELf/PxS7/zsYv/8zHMP/LxzD/yMkz/8bKNP/BzDb/vs04/7vPOv+40Dz/stNA/6/VQv+s1kTAqdhGQAAAAAAAAAAAAAAAAAAAAAAAAAAAAAAAAAAAAAAAAAAAAAAAAAAAAAAAAAAAAAAAAAAAAAAAAAAAAAAAAAAAAAAAAAAAAAAAAAAAAAAAAAAAAAAAAAAAAAAAAAAAAAAAAAAAAAAAAAAAAAAAAAAAAAAAAAAA8cA0QPDANMDvwDP/7sAz/+zAMv/qwDH/6MAw/+fBMP/lwS//4sEv/+DBLv/ewS3/3cEt/9zBLf/awiz/2cIs/9fDLP/Wwyz/1cMs/9LELf/RxS7/0MUu/8/GL//MxzD/y8gx/8jJM//GyjT/wcw4/73OOv+6zzv/uNE9/7TTP9Cw1EFQAAAAAAAAAAAAAAAAAAAAAAAAAAAAAAAAAAAAAAAAAAAAAAAAAAAAAAAAAAAAAAAAAAAAAAAAAAAAAAAAAAAAAAAAAAAAAAAAAAAAAAAAAAAAAAAAAAAAAAAAAAAAAAAAAAAAAAAAAAAAAAAAAAAAAAAAAAAAAAAAAAAAAAAAAAAAAAAA8MAzQO7AM6DswDL/6sAx/+jAMP/mwS//5cEv/+PBL//hwS7/3sEt/97BLf/cwS3/28Es/9rCLf/Ywy3/18Mt/9XELf/UxC3/0sQt/9DFLv/Oxi//zMcw/8rIMv/JyTP/xso0/8PLNv+/zDj/vc46oLrQPEAAAAAAAAAAAAAAAAAAAAAAAAAAAAAAAAAAAAAAAAAAAAAAAAAAAAAAAAAAAAAAAAAAAAAAAAAAAAAAAAAAAAAAAAAAAAAAAAAAAAAAAAAAAAAAAAAAAAAAAAAAAAAAAAAAAAAAAAAAAAAAAAAAAAAAAAAAAAAAAAAAAAAAAAAAAAAAAAAAAAAAAAAAAAAAAAAAAAAA7MAyEOrAMWDowDCw5sAv/+XBL//jwS//4sEu/+HBLv/ewS3/3cEt/9vCLf/Zwy3/2MMt/9fDLf/VxC3/1MQt/9LFLv/RxS//z8Yw/83HMP/LyDL/yckz8MbJNLDCyzdgwMw4EAAAAAAAAAAAAAAAAAAAAAAAAAAAAAAAAAAAAAAAAAAAAAAAAAAAAAAAAAAAAAAAAAAAAAAAAAAAAAAAAAAAAAAAAAAAAAAAAAAAAAAAAAAAAAAAAAAAAAAAAAAAAAAAAAAAAAAAAAAAAAAAAAAAAAAAAAAAAAAAAAAAAAAAAAAAAAAAAAAAAAAAAAAAAAAAAAAAAAAAAAAAAAAAAAAAAAAAAAAAAAAAAAAAAADlwS9A5MEvgOLBLrDgwS7Q3sIt/93CLf/cwi3/2sIt/9nDLf/Xwy3/1sQt/9TFLv/SxS7g0MYvwM7GMJDOxjBwysgzMAAAAAAAAAAAAAAAAAAAAAAAAAAAAAAAAAAAAAAAAAAAAAAAAAAAAAAAAAAAAAAAAAAAAAAAAAAAAAAAAAAAAAAAAAAAAAAAAAAAAAAAAAAAAAAAAAAAAAAAAAAA///gAAAAAAD//+AAAAAAAP//wAAAAAAA//8AAAAAAAD//AAAAAAAAP/4AAAAAAAA//AAAAAAAAD/wAAAAAAAAP+AAAAAAAAA/wAAAAAAAAD+AAAAAAAAAP4AAAAAAAAA/AAAAAAAAAD4AAAAAAAAAPAAAAAAAAAA8AAAAAAAAADgAAAAAAAAAOAAAAAAAAAAwAAAAAAAAADAAAAB/////4AAAAP/////gAAAB//AB/+AAAAP/gAA/4AAAB/8AAA/AAAAH/gAAB8AAAA/+AAADwAAAD/4AAAHAAAAf/wAAAMAAAB//AAAAwAAAH/+AAABAAAAf/4AAAEAAAB//gAAAAAAAH/+AAAAAAAAf/4AAAAAAAB//gAAAAAAAD/8AAAAAAAAP/wAAAAAAAAf+AAAAAAAAAfgAAAAAAAAAAAAAACAAAAAAAAAAIAAAAAAAAAAgAAAAAAAAACAAAAAAAAAAMAAAAAAAAABwAAAAAAAAAHgAAAAAAAAAeAAAAAAAAAD8AAAAAAAAAPwAAAAAAAAB/gAAAAAAAAP/AAAAAAAAA/+AAAAAAAAH/4AAAAAAAA//wAAAAAAAH//gAAAAAAA///AAAAAAAH///AAAAAAA///+AAAAAAH///8AAAAAB////8AAAAAf////8AAAAH/////8AAAB///////AAB///8oAAAAMAAAAGAAAAABACAAAAAAAIAlAAAAAAAAAAAAAAAAAAAAAAAAAAAAAAAAAAAAAAAAAAAAAAAAAAAAAAAAAAAAAAAAAAAAAAAAAAAAAAAAAAAAAAAAAAAAAAAAAAD/5lCA/+ZQ///mUP//5lD//+ZQ///mUP//5lD//+ZQ///mUP//5lD//+ZQ///mUP//5lD//+ZQ///mUP//5lD//+ZQ///mUP//5lD//+ZQ///mUP//5lD//+ZQ///mUP//5lD//+ZQ///mUP//5lD//+ZQ///mUP//5lD//+ZQ///mUP//5lCAAAAAAAAAAAAAAAAAAAAAAAAAAAAAAAAAAAAAAAAAAAAAAAAAAAAAAAAAAAAAAAAAAAAAAAAAAAD/5lD//+ZQ///mUP//5lD//+ZQ///mUP//5lD//+ZQ///mUP//5lD//+ZQ///mUP//5lD//+ZQ///mUP//5lD//+ZQ///mUP//5lD//+ZQ///mUP//5lD//+ZQ///mUP//5lD//+ZQ///mUP//5lD//+ZQ///mUP//5lD//+ZQ///mUP//5lD/AAAAAAAAAAAAAAAAAAAAAAAAAAAAAAAAAAAAAAAAAAAAAAAAAAAAAAAAAAAAAAAA1HgAQNR4AMD/5lD//+ZQ///mUP//5lD//+ZQ///mUP//5lD//+ZQ///mUP//5lD//+ZQ///mUP//5lD//+ZQ///mUP//5lD//+ZQ///mUP//5lD//+ZQ///mUP//5lD//+ZQ///mUP//5lD//+ZQ///mUP//5lD//+ZQ///mUP//5lD//+ZQ///mUP//5lD/AAAAAAAAAAAAAAAAAAAAAAAAAAAAAAAAAAAAAAAAAAAAAAAAAAAAANR4ACDUeACw1HgA/9R5AP//5lD//+ZQ///mUP//5lD/EQ8F/wAAAP8AAAD/AAAA/0Q9Ff/dx0X//+ZQ/1VNG/8AAAD/AAAA/wAAAP8AAAD/7tdL///mUP//5lD/EQ8F/xEPBf//5lD/3cdF/wAAAP8iHwv//+ZQ///mUP//5lD/VU0b/wAAAP+7qTv//+ZQ///mUP//5lD/AAAAAAAAAAAAAAAAAAAAAAAAAAAAAAAAAAAAAAAAAAAAAAAA1HgAUNR4APDUeAD/1HkA/9R5Af//5lD//+ZQ///mUP//5lD/EQ8F/xEPBf//5lD/u6k7/wAAAP8zLhD//+ZQ/1VNG/8AAAD/zLhA///mUP//5lD//+ZQ///mUP//5lD/EQ8F/xEPBf//5lD//+ZQ/0Q9Ff8AAAD/3cdF///mUP//5lD/EQ8F/yIfC///5lD//+ZQ///mUP//5lD/AAAAAAAAAAAAAAAAAAAAAAAAAAAAAAAAAAAAAAAAAADUeACQ1HgA/9R4AP/UeQD/1HkB/9V5Af//5lD//+ZQ///mUP//5lD/EQ8F/xEPBf//5lD//+ZQ/xEPBf8RDwX//+ZQ/1VNG/8AAAD/zLhA///mUP//5lD//+ZQ///mUP//5lD/EQ8F/xEPBf//5lD//+ZQ/5mKMP8AAAD/AAAA/wAAAP8AAAD/AAAA/2ZcIP//5lD//+ZQ///mUP//5lD/AAAAAAAAAAAAAAAAAAAAAAAAAAAAAAAAAAAAANR4AKDUeAD/1HgA/9R5AP/UeQH/1XkB/9V6Af//5lD//+ZQ///mUP//5lD/EQ8F/xEPBf//5lD/u6k7/wAAAP8zLhD//+ZQ/1VNG/8AAAD/zLhA///mUP//5lD//+ZQ///mUP//5lD/EQ8F/xEPBf//5lD//+ZQ/+7XS/8RDwX/RD0V///mUP9mXCD/AAAA/7upO///5lD//+ZQ///mUP//5lD/AAAAAAAAAAAAAAAAAAAAAAAAAAAAAAAA1HgAoNR4AP/UeAD/1HkB/9R5Af/VeQH/1XoB/9V6Av//5lD//+ZQ///mUP//5lD/EQ8F/wAAAP8AAAD/AAAA/0Q9Ff/u10v//+ZQ/1VNG/8AAAD/AAAA/wAAAP9VTRv//+ZQ///mUP//5lD/EQ8F/xEPBf//5lD//+ZQ///mUP9VTRv/AAAA/93HRf8iHwv/Ih8L///mUP//5lD//+ZQ///mUP//5lD/AAAAAAAAAAAAAAAAAAAAAAAAAADUeACQ1HgA/9R4AP/UeQH/1HkB/9V5Af/VegH/1XsC/9V7Av//5lD//+ZQ///mUP//5lD/EQ8F/xEPBf//5lD/iHsr/wAAAP+ZijD//+ZQ/1VNG/8AAAD/zLhA///mUP//5lD//+ZQ///mUP//5lD/EQ8F/xEPBf//5lD//+ZQ///mUP+ZijD/AAAA/2ZcIP8AAAD/d2sl///mUP//5lD//+ZQ///mUP//5lD/AAAAAAAAAAAAAAAAAAAAANR4AFDUeAD/1HgA/9R5Af/UeQH/1XoB/9V6Af/VewL/1XsC/9V8A///5lD//+ZQ///mUP//5lD/EQ8F/xEPBf//5lD/iHsr/wAAAP9mXCD//+ZQ/1VNG/8AAAD/zLhA///mUP//5lD//+ZQ///mUP//5lD/EQ8F/xEPBf//5lD//+ZQ///mUP//5lD/EQ8F/xEPBf8AAAD/u6k7///mUP//5lD//+ZQ///mUP//5lD/AAAAAAAAAAAAAAAA1HgAINR4APDUeAD/1HkB/9R5Af/VegH/1XoC/9V7Av/VewL/1XwD/8t0BP//5lD//+ZQ///mUP//5lD/EQ8F/wAAAP8AAAD/AAAA/0Q9Ff/dx0X//+ZQ/1VNG/8AAAD/AAAA/wAAAP8RDwX/zLhA/wAAAP8AAAD/AAAA/wAAAP8AAAD/AAAA/+7XS///5lD/Zlwg/wAAAP8iHwv//+ZQ///mUP//5lD//+ZQ///mUP//5lD/AAAAAAAAAAAAAAAA1HgAsNR4AP/UeQH/1HkB/9V6Af/VegL/1XsC/9V7Av/VfAP/1nwD/7NqDf//5lD//+ZQ///mUP//5lD//+ZQ///mUP//5lD//+ZQ///mUP//5lD//+ZQ///mUP//5lD//+ZQ///mUP//5lD//+ZQ///mUP//5lD//+ZQ///mUP//5lD//+ZQ///mUP//5lD//+ZQ///mUP//5lD//+ZQ///mUP//5lD//+ZQ///mUP//5lD/AAAAAAAAAADUeABA1HkA/9R5Af/UeQH/1XoB/9V6Av/VewL/1XsC/9V8A//WfAP/1n0E/55dDf//5lD//+ZQ///mUP//5lD//+ZQ///mUP//5lD//+ZQ///mUP//5lD//+ZQ///mUP//5lD//+ZQ///mUP//5lD//+ZQ///mUP//5lD//+ZQ///mUP//5lD//+ZQ///mUP//5lD//+ZQ///mUP//5lD//+ZQ///mUP//5lD//+ZQ///mUP//5lD/AAAAAAAAAADUeQDA1HkB/9R5Af/VegH/1XoC/9V7Av/VewL/1XwD/9Z8A//WfQT/1n4E/4hJCv/Oni7//+ZQ///mUP//5lD//+ZQ///mUP//5lD//+ZQ///mUP//5lD//+ZQ///mUP//5lD//+ZQ///mUP//5lD//+ZQ///mUP//5lD//+ZQ///mUP//5lD//+ZQ///mUP//5lD//+ZQ///mUP//5lD//+ZQ///mUP//5lD//+ZQ///mUP//5lCAAAAAANR5ADDUeQH/1XkB/9V6Af/VegL/1XsC/9V7Av/VfAP/1nwD/9Z9BP/WfgT/03wF/4tKCv+cVQz/nlYN/59XDf+fVg3/n1YN/55VDf+dVQ3/nVUN/5xUDtCbVA4QAAAAAAAAAAAAAAAAAAAAAAAAAAAAAAAAAAAAAAAAAAAAAAAAAAAAAAAAAAAAAAAAAAAAAAAAAAAAAAAAAAAAAAAAAAAAAAAAAAAAAAAAAAAAAAAAAAAAAAAAAAAAAAAAAAAAANR5AaDVeQH/1XoB/9V6Av/VewL/1XsC/9V8A//WfQP/1n0E/9Z+BP/WfwX/x3QG/4tLCv+aVAv/nlUN/59WDf+fVg3/n1YN/55VDf+dVQ3/nVUN0JxUDhAAAAAAAAAAAAAAAAAAAAAAAAAAAAAAAAAAAAAAAAAAAAAAAAAAAAAAAAAAAAAAAAAAAAAAAAAAAAAAAAAAAAAAAAAAAAAAAAAAAAAAAAAAAAAAAAAAAAAAAAAAAAAAAAAAAAAAAAAAANV5AfDVegH/1XoC/9V7Av/VewL/1nwD/9Z9A//WfQT/1n4E/9Z/Bf/XfwX/0HsH/4pKCv+ZUwv/nVUN/59WDf+eVg3/n1YN/55VDf+dVQ3gnVUNEAAAAAAAAAAAAAAAAAAAAAAAAAAAAAAAAAAAAAAAAAAAer44UHa/OqBxvzvQbcA9/2nBP/9lwkH/YsJC/1zERf9ZxUbwV8VHsFDIS2BPyk0QAAAAAAAAAAAAAAAAAAAAAAAAAAAAAAAA1XkBQNV6Af/VegL/1XsC/9V8A//WfAP/1n0D/9Z9BP/WfgT/138F/9d/Bf/XgAb/14EG/4ZICv+XUgv/nFQN/55WDf+eVg3/n1YN/55VDf+dVQ1AAAAAAAAAAAAAAAAAAAAAAAAAAAAAAAAAAAAAAIW+NjCBvjfge785/3i/Ov91vzv/dME8/2rCP/9mw0H/YcND/2HERP9axUf/VcdJ/1HJTP9Py0/wTcxQcAAAAAAAAAAAAAAAAAAAAAAAAAAA1XoBgNV6Av/VewL/1XwD/9Z8A//WfQP/1n0E/9Z+BP/XfwX/138F/9eABv/XgQb/2IIH/45OCv+VUQv/mlMM/51VDf+eVQ3/nlYN/55VDaAAAAAAAAAAAAAAAAAAAAAAAAAAAAAAAAAAAAAAjb00EIW+NuCFvjb/gb84/3y/Of95wDv/dcE8/2/DP/9ow0H/Y8ND/2DGRv9bxkf/V8dJ/1TLTf9Ry07/T81R/03NUrBKzlIQAAAAAAAAAAAAAAAA1XoCwNV7Av/VfAP/1nwD/9Z9BP/WfQT/1n4E/9d/Bf/XfwX/14AG/9eBBv/Yggf/2III/6VfCf+PTgv/l1IM/5tUDf+dVQ3/nlYN/55VDSAAAAAAAAAAAAAAAAAAAAAAAAAAAAAAAAAAAAAAj70zEIy+NfCIvjb/hcA4/3/AOf97wTv/eME8/3PDP/9ywz//aMVD/2PHRv9fxkb/WshJ/1TKTP9TzE//T8xQ/03OUv9K0FTQR9FWEAAAAAAAAAAA1HsC4NR8A//WfAP/1n0E/9Z9BP/WfgT/138F/9eABv/XgAb/14EH/9iCB//Ygwj/2IMI/8N0Cf+JSgr/lFAM/5hTDP+bVA3/nlUN0AAAAAAAAAAAAAAAAAAAAAAAAAAAAAAAAAAAAAAAAAAAAAAAAJG/NVCRvzb/jcA3/4LBOf9+wTv/f8I8/3nDPv9ywz//cMZC/2jIRv9hyUj/XctL/1rMTv9VzE//T89S/07RVP9M0lb/StRY0AAAAAAAAAAA03sD/9R7A//VfQT/1n0E/9Z+Bf/XfwX/14AG/9eABv/XgQf/2IIH/9iDCP/Ygwj/2YQJ/9mFCv+HSgn/j00M/5VRDP+YUgz/m1QNgQAAAAAAAAAAAAAAAAAAAAAAAAAAAAAAAAAAAAAAAAAAAAAAAAAAAACSvzXAjsA3/43COP+Jwjn/gcM8/3zEPv91xED/c8dD/2zIRf9iykn/X81N/1rMTf9Zz1D/UdBS/0/QU/9M0lb/SNRZ/0bXXIAAAAAA1HsD/9N8BP/UfQT/1X4F/9d/Bf/XgAb/14AG/9eBB//Yggf/2IMI/9iECP/ZhAn/2YUK/9mGCv+yaQv/h0kL/49ODP+UUAz/mFIMQgAAAAAAAAAAAAAAAAAAAAAAAAAAAAAAAAAAAAAAAAAAAAAAAAAAAACUwTZgkME3/5HCOP+Lwjn/iMQ7/4PFPf94xUD/d8hD/2vJR/9ny0r/Y81M/17PT/9Y0FH/WNJT/0/UV/9P1ln/S9db/0rZXfBE2V4Q0nsE/9J8BP/UfQX/1X4F/9Z/Bv/XgAb/14EH/9iCB//Ygwj/2IQI/9mECf/ZhQr/2YYK/9qHC//WhQz/ik4K/4lLC/+PTQz/llEMQwAAAAAAAAAAAAAAAAAAAAAAAAAAAAAAAAAAAAAAAAAAAAAAAAAAAACdwTQgl8I2/5HCOP+TxDn/jcU7/4PFPf98x0H/eMlD/3TKRf9tzEn/Zc1M/1/PT/9f0lH/V9VW/1HVWP9R2Fr/Tdpd/0vbX/9J3GBw2YgP/896Bf/SfAX/1H4G/9V/Bv/XgAf/2IIH/9iDCP/YhAn/2YQJ/9mFCv/Zhgr/2ocL/9qIDP/aiQz/yXsN/4BGC/+JSgv/j00MRQAAAAAAAAAAAAAAAAAAAAAAAAAAAAAAAAAAAAAAAAAAAAAAAAAAAAC7rj1noMM1/5zEN/+WxTn/jcU7/4bHP/9/yEL/e8lD/3bKRf9vzUn/as9M/2HRUP9g0lH/W9VV/1bXWP9S2Vv/Tdpd/0vcX/9I3WHA24sT/856Bf/Qewb/0n4G/9Z/B//WgQf/2IMI/9iECf/ZhQn/2YUK/9mGCv/ahwv/2ogM/9qJDP/big3/24sO/751Df+ARQv/iksLaQAAAAAAAAAAAAAAAAAAAAAAAAAAAAAAAAAAAAAAAAAAAAAAAAAAAAC+qj6kosM1/6HENv+fxTj/mcc6/4/JPv+DykL/gMpD/3bOSP9wz0v/a9FO/2fSUP9i1FL/XdlY/1jaW/9U3F3/Ut1f/0zfYv9K4GP/5Jwj/Mp4Bv/Megb/0HwH/9N/B//WgQj/14MJ/9mFCf/Zhgr/2YYK/9qHC//aiAz/2okM/9uKDf/biw7/3IwP/9yND/+ybA7/gEULyQAAAAAAAAAAAAAAAAAAAAAAAAAAAAAAAAAAAAAAAAAAAAAAAAAAAAC7qTTyrMMz/6DFN/+fxTf/mMk8/5XKPv+Ry0D/gs1G/37QSf910Ev/dNNO/2rWU/9n1lP/YNlY/1ncXP9Y3V3/VN9g/0/gYv9M4WT/7a4888d3Bv/JeAf/zHsI/9B+CP/TgQn/1oMJ/9eFCv/YhQv/2ocL/9qIDP/biQ3/24oN/9uLDv/cjA//3I0P/9yOEP/djxH/v3cP/5FXGH4AAAAAAAAAAAAAAAAAAAAAAAAAAAAAAAAAAAAAAAAAAMGFFmm/sin/ssQz/6rFNf+kxjj/nsk8/5bLP/+NzEL/iM5F/4LPSP980Er/c9NP/3HWUv9n11X/YNpZ/1jcXP9W3l7/U99g/1DgYv9O42T/9r1H7M1/Df/Edgf/xngH/8t8CP/Qfwn/04IK/9aEC//Yhgv/2YcM/9uJDf/big3/24sO/9yMD//cjQ//3I4Q/92PEf/dkBH/3ZES/9qOE/+4fy2zAAAAAAAAAAAAAAAAAAAAAAAAAAAAAAAAx4kWZ7eGGP+5wzD/tMQy/6/FNP+pxjb/n8k7/5jLPv+RzEL/js1D/4LQSf9+1E7/dNZR/23YVf9m2lj/Y9xb/1/eXf9b4F//VuBh/1PkZP9O5GX/+b5EkOuoLv6/dAf/wXYI/8V4CP/KfQn/0IEK/9ODC//WhQz/2IcN/9mJDf/aig7/24sP/9yND//cjhD/3Y8R/92QEv/ckBL/3ZET/92SFP/dkxX/2pQbytuTFmHZkxZB05AXQ8+OF2XHiRbGuYAV/8auJv/BxDD/uMUy/7bFM/+ryDj/qsk5/6HMPv+Yz0L/j9BG/4nQSP9/1U7/dtdR/3bZVP9u3Fj/Ztxa/2HeXf9d4F//WORk/1TmZ/9Q5mf//cA9QP3APf/PhxX/u3MI/751Cf/DeQr/yH0K/82AC//Sgwz/1IYN/9eIDv/Zig//2YsP/9qNEP/bjhH/248S/9yQEv/ckRP/25EU/9ySFf/akhX/2ZIV/9aRFv/Rjxb/zIwX/8WIF/+5gBb/u5Ic/8fDLf/DxC//vsUx/7nFM/+wyDf/sMk3/6HMPv+az0L/kNBG/43RSP+F1U3/fNhR/3XbVf9t3Vn/Zd9d/2XiYP9e5GP/WeZm/1fnZ/9R52jwAAAAAPzAPfP5vTv/xIAT/7hyCf+6dAn/v3gK/8Z9DP/Kfwz/zoMN/9KFDv/UiA//1YoP/9eLEf/YjRL/2Y4S/9mPE//YjxP/2I8U/9aQFf/VjxX/0o4W/86MFv/IiRb/woYW/7h/Ff+yhRj/0sAp/83DLP/IxC7/xMQv/8DGMf+6xzT/sMo4/6bOPv+bz0L/ldFG/4/VSv+H1k3/gNhQ/3beWP9v31v/bOJe/2TkYv9h5WT/W+Zm/1fnZ/9S62ywAAAAAPzAPKD7wDz/+b05/79+Ev+ybwr/tnML/7t3DP/Aegz/xn4N/8mBD//Mgw//z4YQ/9CIEf/SiRL/0ooS/9KLE//SixT/0IwV/86LFP/MihX/x4gV/8OFFv+9gxb/snoV/7GDGP/SwCn/0cIq/9HDK//JxC7/xcUw/77GMv+5yDX/tMo4/6jNPf+hz0H/mdFF/5bUSP+O1kv/hNpR/3rdVv9z4Fr/buRf/2TkYv9h5WT/Wuho/1jqav9W7GxwAAAAAPzAPED7wDz/+sA7//e9OP/Njxz/qmsL/7FxC/+2dAz/uXcN/757Dv/Cfg//xYAQ/8aCEf/HhBH/yIUS/8iGE//HhhT/xoUT/8OEFP+/gxX/vYEV/7R8Ff+mcxT/to4b/9LAKf/Rwir/0cIq/9HCKv/MxC3/ysQt/8bGMP+7yDX/tso4/6vNPv+m0EH/n9NF/5vUR/+Q2U3/ht1T/33eVv904Vz/cONe/2rmYv9j6Wf/Xulo/1vrav9V7GwgAAAAAAAAAAD7wDvA+8A7//rAO//5wDr/7LAv/650Ef+mawz/r3EN/7N0Dv+2dw//uXkQ/7p7EP+7fRH/vH4S/7x+E/+8fxP/uX4T/7d8FP+xeRP/pnIT/6V5Fv/PtSX/0cIq/9HCKv/Rwir/0cIq/9DDK//OxCz/y8Qt/8PGMf+9yDX/tso4/7DOPf+q0ED/n9NF/5jWSf+R2U3/itxR/4PeVf974lr/c+Vf/2roZP9k6Wb/Yepo/1zta7AAAAAAAAAAAAAAAAD7wDtA+sA7//nAOv/4wDr/9sA5//bAOf/lqyv/wYga/6ZvEP+kbA7/qXAO/61zEP+vdRH/r3YR/610Ef+pcxH/o28R/6JyFP+7kx3/zrAl/9HCKv/Rwir/0cIq/9HCKv/Rwir/0cIq/9HCKv/Pwyz/zMQt/8fGMP/AyDP/uso3/7XNOv+uzj3/otNE/5/WR/+X2Uz/id1T/4LhWP9541z/c+Vf/2vqZv9l7Gn/Y+xp/1/ta0AAAAAAAAAAAAAAAAAAAAAA+8A7sPnAOv/4wDr/98A5//bAOf/0wDj/8sA3/+/ANv/jsiz/1KIk/8+dIf/OnSH/zZ4h/8qeIf/QqSX/2Lgp/9nCLP/Uwiv/08Ir/9LCK//Rwir/0cIq/9HCKv/Rwir/0cIq/9HCKv/Rwyv/y8Uu/8bGMP/CyDP/uMw4/7LPPP+s0T//qNJC/5zXSf+U2k3/jt1R/4jgVf+B4ln/d+Zf/23qZf9l7Gn/Yu1rsAAAAAAAAAAAAAAAAAAAAAAAAAAA+sA6IPrAOvD4wDr/98A5//bAOf/zwDj/8sA3//DANv/vwDX/7ME0/+nBM//mwTL/48Ew/+DBL//ewi7/3MIt/9nCLP/Uwiv/1MIr/9LCK//Rwir/0cIq/9HCKv/Rwir/0cIq/9HCKv/Rwir/zsQt/8jGMP/GxzH/vco2/7XNOv+t0kD/p9RE/6DWR/+V3E//jN9T/4PiWf+F4ln/feZd/3TpY/9u62bwae1pIAAAAAAAAAAAAAAAAAAAAAAAAAAAAAAAAPnAOmD5wDr/98A5//bAOP/2wDf/88A3//HANv/vwDX/7MA0/+rBM//owTL/5sEy/+DBL//ewi7/28It/9nCLP/Xwiz/1cIr/9PCK//Rwir/0cIq/9HCKv/Swir/0sIq/9LCKv/Rwir/zcQt/8nFL//DyDP/vco2/7nNOf+0zzz/p9RE/6HWR/+b2kz/ldxP/47fVP+H4ln/f+Vd/3npYf9x62VwAAAAAAAAAAAAAAAAAAAAAAAAAAAAAAAAAAAAAAAAAAD5wDmQ98A5//fAOP/2wDf/9MA3//LANv/wwDX/7cA0/+rBM//owTL/5cEx/+LBMP/fwS7/3MEt/9nBLP/ZwSz/18Ir/9TCKv/Twir/0cIq/9LCKv/Swir/0sIq/9LCKv/Rwir/zsQt/8jHMf/DyTT/wco2/7rNOf+00D3/rdJA/6DYSf+b2kz/ltxP/43gVf+I4lj/gOVd/3noYKAAAAAAAAAAAAAAAAAAAAAAAAAAAAAAAAAAAAAAAAAAAAAAAAAAAAAA+MA5oPfAOf/2wDf/9cA3//LANv/wwDX/7cA0/+rBM//pwTL/6MEy/+XBMP/fwS7/3cEu/9vBLf/bwSz/2MIr/9XCK//Vwir/08Iq/9PCKv/Twir/0sIq/9LCKv/PxCz/zsQt/8vFLv/GyDL/wco1/7zNOf+3zzz/rdRC/6fWRf+f2Ur/mtxO/5PfUv+M4lf/h+Ra0AAAAAAAAAAAAAAAAAAAAAAAAAAAAAAAAAAAAAAAAAAAAAAAAAAAAAAAAAAAAAAAAPfAOKD2wDf/9cA3//PANv/xwDX/78A0/+3ANP/qwTL/6MEy/+XBMP/jwS//3sEu/93BLf/bwSz/2MEr/9fBK//VwSr/1cIq/9XCKv/Uwir/0sIq/9LCKv/PxCz/zsQt/8nHMP/EyjT/wcs2/7zNOf+2zzz/rdRC/6jWRf+f2kv/mtxO/5LfUv+O4lbQhuRaEAAAAAAAAAAAAAAAAAAAAAAAAAAAAAAAAAAAAAAAAAAAAAAAAAAAAAAAAAAAAAAAAAAAAAD2wDiQ9cA3//PANv/ywDX/8MA0/+3AM//rwDL/6cEy/+bBMP/kwS//4cEu/93BLf/cwS3/28Es/9nBLP/XwSv/1sIr/9XCK//Uwir/08Mr/9HDLP/OxC3/zcUu/8rHMP/IyTL/vsw3/7zNOf+20D3/rtRC/6jXR/+e20z/ndtM/5jeUKAAAAAAAAAAAAAAAAAAAAAAAAAAAAAAAAAAAAAAAAAAAAAAAAAAAAAAAAAAAAAAAAAAAAAAAAAAAAAAAAAAAAAA9cA3YPPANvDywDX/8cA1//DANP/uwDP/68Ay/+bBMP/kwTD/4cEu/9/BLv/cwS3/28Es/9rBLP/ZwSz/2MEr/9XCK//Vwiv/08Ms/9HELf/PxC3/zsUu/8rHMP/GyTL/wss1/77NOP+00T7/stNA/6jWRv+k2EnwoNpLYAAAAAAAAAAAAAAAAAAAAAAAAAAAAAAAAAAAAAAAAAAAAAAAAAAAAAAAAAAAAAAAAAAAAAAAAAAAAAAAAAAAAAAAAAAAAAAAAPXANyDzwDaw8sA1/+/ANP/twDP/68Ay/+fAMP/kwC//4sEu/+HBLv/fwS7/3cEs/9vBLP/bwSv/2MIr/9jCK//Uwyv/08Ms/9LELf/QxC3/zsYv/8zHMf/IyTL/wM04/77NOP+50Dz/stNA/67UQrCo10YgAAAAAAAAAAAAAAAAAAAAAAAAAAAAAAAAAAAAAAAAAAAAAAAAAAAAAAAAAAAAAAAAAAAAAAAAAAAAAAAAAAAAAAAAAAAAAAAAAAAAAAAAAAAAAAAA8cA0QO/AM8DuwDP/68Ay/+nAMf/nwDD/5MAv/+LALv/iwS3/3sEs/93BLP/bwSv/2cIr/9fCK//Vwyz/08Ms/9LELf/RxC3/zccw/8zHMf/HyjT/xMs1/77OOf+40DzAtNI/QAAAAAAAAAAAAAAAAAAAAAAAAAAAAAAAAAAAAAAAAAAAAAAAAAAAAAAAAAAAAAAAAAAAAAAAAAAAAAAAAAAAAAAAAAAAAAAAAAAAAAAAAAAAAAAAAAAAAAAAAAAAAAAAAAAAAADvwDNA68AyoOjAMPDnwDD/5MAu/+LALf/gwS3/3sEs/93BLP/bwSv/2sIr/9fCLP/Wwyz/08Qt/9LELf/Qxi//zccw/8rIMf/HyjTgw8s1kL7NOCAAAAAAAAAAAAAAAAAAAAAAAAAAAAAAAAAAAAAAAAAAAAAAAAAAAAAAAAAAAAAAAAAAAAAAAAAAAAAAAAAAAAAAAAAAAAAAAAAAAAAAAAAAAAAAAAAAAAAAAAAAAAAAAAAAAAAAAAAAAAAAAAAAAAAAAAAAAAAAAADowC9A5sAugObALsDhwS3g38Es/97BLP/cwSz/28Es/9nCLP/Xwy3/1cQt/9PELcDQxi+gzccwcMrIMiAAAAAAAAAAAAAAAAAAAAAAAAAAAAAAAAAAAAAAAAAAAAAAAAAAAAAAAAAAAAAAAAAAAAAAAAAAAAAAAAAAAAAA//wAAAAAAAD//AAAAAAAAP/wAAAAAAAA/8AAAAAAAAD/gAAAAAAAAP8AAAAAAAAA/gAAAAAAAAD8AAAAAAAAAPgAAAAAAAAA8AAAAAAAAADgAAAAAAAAAOAAAAAAAAAAwAAAAAAAAADAAAAAAAAAAIAAAP///wAAgAAB////AACAAAP8AD8AAAAAB/AAHwAAAAAP4AAHAAAAAA/gAAMAAAAAH/AAAwAAAAAf+AABAAAAAB/4AAAAAAAAH/gAAAAAAAAf+AAAAAAAAB/4AAAAAAAAH/gAAAAAAAAP8AAAAAAAAAfgAAAAAAAAAAAAAAAAAAAAAAAAAACAAAAAAAAAAIAAAAAAAAAAgAAAAAAAAADAAAAAAAEAAMAAAAAAAQAA4AAAAAADAADgAAAAAAMAAPAAAAAABwAA+AAAAAAPAAD8AAAAAB8AAP4AAAAAHwAA/wAAAAB/AAD/gAAAAP8AAP/AAAAB/wAA//AAAAf/AAD//AAAH/8AAP//gAD//wAAKAAAACgAAABQAAAAAQAgAAAAAABAGgAAAAAAAAAAAAAAAAAAAAAAAAAAAAAAAAAAAAAAAAAAAAAAAAAAAAAAAAAAAAAAAAAAAAAAAAAAAAAAAAAAAAAAAP/mUDD/5lDx/+ZQ///mUP//5lD//+ZQ///mUP//5lD//+ZQ///mUP//5lD//+ZQ///mUP//5lD//+ZQ///mUP//5lD//+ZQ///mUP//5lD//+ZQ///mUP//5lD//+ZQ///mUP//5lD//+ZQ8P/mUDAAAAAAAAAAAAAAAAAAAAAAAAAAAAAAAAAAAAAAAAAAAAAAAAAAAAAAAAAAANR4AED94k36/+ZQ///mUP//5lD//+ZQ///mUP//5lD//+ZQ///mUP//5lD//+ZQ///mUP//5lD//+ZQ///mUP//5lD//+ZQ///mUP//5lD//+ZQ///mUP//5lD//+ZQ///mUP//5lD//+ZQ///mUP//5lDwAAAAAAAAAAAAAAAAAAAAAAAAAAAAAAAAAAAAAAAAAAAAAAAA1HgAQNR4AMDUeAD//+ZQ///mUP//5lD/My4Q/wAAAP8AAAD/EQ8F/6qZNf//5lD/d2sl/wAAAP8AAAD/AAAA/6qZNf//5lD/iHsr/wAAAP/MuED/3cdF/wAAAP+Ieyv//+ZQ///mUP9EPRX/Ih8L///mUP//5lD//+ZQ/wAAAAAAAAAAAAAAAAAAAAAAAAAAAAAAAAAAAAAAAAAA1HgAkNR4AP/UeQD/1HkB///mUP//5lD//+ZQ/zMuEP9VTRv//+ZQ/zMuEP8RDwX//+ZQ/3drJf8RDwX//+ZQ///mUP//5lD//+ZQ/4h7K/8AAAD/zLhA///mUP9EPRX/RD0V///mUP//5lD/EQ8F/2ZcIP//5lD//+ZQ///mUP8AAAAAAAAAAAAAAAAAAAAAAAAAAAAAAADUeAAQ1HgA0NR4AP/UeQD/1HkB/9V5Af//5lD//+ZQ///mUP8zLhD/VU0b///mUP8zLhD/Ih8L///mUP93ayX/EQ8F///mUP//5lD//+ZQ///mUP+Ieyv/AAAA/8y4QP//5lD/iHsr/wAAAP8AAAD/AAAA/wAAAP+7qTv//+ZQ///mUP//5lD/AAAAAAAAAAAAAAAAAAAAAAAAAADUeAAw1HgA4NR4AP/UeQD/1HkB/9V6Af/VegL//+ZQ///mUP//5lD/My4Q/wAAAP8AAAD/Ih8L/8y4QP//5lD/d2sl/wAAAP8AAAD/AAAA/+7XS///5lD/iHsr/wAAAP/MuED//+ZQ/93HRf8AAAD/u6k7/4h7K/8iHwv//+ZQ///mUP//5lD//+ZQ/wAAAAAAAAAAAAAAAAAAAADUeAAQ1HgA4NR4AP/UeQD/1HkB/9V6Af/VegL/1XsC///mUP//5lD//+ZQ/zMuEP9VTRv/7tdL/xEPBf93ayX//+ZQ/3drJf8RDwX//+ZQ///mUP//5lD//+ZQ/4h7K/8AAAD/zLhA///mUP//5lD/RD0V/2ZcIP8iHwv/Zlwg///mUP//5lD//+ZQ///mUP8AAAAAAAAAAAAAAAAAAAAA1HgA0NR4AP/UeQD/1HkB/9V6Af/VegL/1XsC/9J6BP//5lD//+ZQ///mUP8zLhD/VU0b///mUP8RDwX/RD0V///mUP93ayX/EQ8F///mUP//5lD//+ZQ///mUP+Ieyv/AAAA/8y4QP//5lD//+ZQ/4h7K/8RDwX/AAAA/6qZNf//5lD//+ZQ///mUP//5lD/AAAAAAAAAAAAAAAA1HgAkNR4AP/UeQH/1HkB/9V6Af/VegL/1XsC/9V8A/+8awb//+ZQ///mUP//5lD/My4Q/wAAAP8AAAD/EQ8F/8y4QP//5lD/d2sl/wAAAP8AAAD/AAAA/8y4QP8AAAD/AAAA/wAAAP8AAAD/EQ8F///mUP/dx0X/AAAA/xEPBf//5lD//+ZQ///mUP//5lD//+ZQ/wAAAAAAAAAA1HgAQNR4AP/UeQH/1HkB/9V6Af/VegL/1XsC/9V8A//WfAP/mlUI//ndTP//5lD//+ZQ///mUP//5lD//+ZQ///mUP//5lD//+ZQ///mUP//5lD//+ZQ///mUP//5lD//+ZQ///mUP//5lD//+ZQ///mUP//5lD//+ZQ///mUP//5lD//+ZQ///mUP//5lD//+ZQ///mUPAAAAAAAAAAANR4AMDUeQH/1HkB/9V6Af/VegL/1XsC/9V8A//WfAP/1n0E/4ZJCv+rbhn/+d1M///mUP//5lD//+ZQ///mUP//5lD//+ZQ///mUP//5lD//+ZQ///mUP//5lD//+ZQ///mUP//5lD//+ZQ///mUP//5lD//+ZQ///mUP//5lD//+ZQ///mUP//5lD//+ZQ///mUPD/5lAwAAAAANR4AEDUeQH/1XkB/9V6Af/VegL/1XsC/9V8A//WfAP/1n0E/8t2Bf+LTAv/mVMM/55VDf+fVg3/n1YN/55VDf+dVQ3/nFQO/5tUDtCaUw4gAAAAAAAAAAAAAAAAAAAAAAAAAAAAAAAAAAAAAAAAAAAAAAAAAAAAAAAAAAAAAAAAAAAAAAAAAAAAAAAAAAAAAAAAAAAAAAAAAAAAAAAAAADUeQGw1XkB/9V6Af/VewL/1XsC/9V8A//WfQP/1n0E/9Z+BP/HdAb/jU0L/5lTDP+eVQ3/n1YN/59WDf+eVQ3/nVUN/5xUDqAAAAAAAAAAAAAAAAAAAAAAAAAAAAAAAAAAAAAAAAAAAAAAAAAAAAAAAAAAAAAAAAAAAAAAAAAAAAAAAAAAAAAAAAAAAAAAAAAAAAAAAAAAAAAAAADUeQEQ1XkB/9V6Af/VewL/1XsC/9V8A//WfQP/1n0E/9Z+Bf/XfwX/x3UH/49NC/+YUgz/nlUN/59WDf+fVg3/nlUN/51VDbAAAAAAAAAAAAAAAAAAAAAAAAAAAAAAAAAAAAAAeb44IHe+OXBvvzyQZ8A/wGXCQcBiwkLAWcVHwFXFR5BSx0pQAAAAAAAAAAAAAAAAAAAAAAAAAAAAAAAA1XkBYNV6Af/VewL/1XsC/9V8A//WfQP/1n0E/9Z+Bf/XfwX/14AG/8x5B/+NTAr/llEM/51VDf+fVQ3/n1YN/55VDeCdVQ0QAAAAAAAAAAAAAAAAAAAAAAAAAACHvTQQfb43wHq+OP92vjn/b788/2/BPv9lwkH/YcND/13ERf9YxUf/VMlM/1HKTuBPy09QAAAAAAAAAAAAAAAAAAAAANV6AqDVewL/1XsC/9Z8A//WfQP/1n0E/9Z+Bf/XfwX/14AG/9eBBv/Yggf/iEoK/5RQDP+bVA3/nlUN/59WDf+eVQ1gAAAAAAAAAAAAAAAAAAAAAAAAAAAAAAAAir00oIi+Nf+Avjf/fr86/3W/O/9vwT7/a8RB/2nEQv9gxkb/WshJ/1XJS/9Sy07/TsxQ/0vOUqBIz1QQAAAAAAAAAADVewLQ1XsC/9Z8A//WfQT/1n4E/9Z+Bf/XfwX/14AG/9eBB//Yggf/2IMI/55aCv+RTgz/mVMM/51UDf+eVg3gAAAAAAAAAAAAAAAAAAAAAAAAAAAAAAAAAAAAAIq9NICIvjb/hr83/36/Ov+AwTr/ccI+/23DQP9pxEL/X8ZG/17JSf9Vy03/Vc1Q/0/QU/9L0FT/StNXsAAAAAAAAAAA1XsC/9Z8A//WfQT/1n4E/9Z+Bf/XfwX/14AG/9eBB//Yggf/2IMI/9iECf+5bQn/jUwL/5ZRDP+bUw3/nVUNkQAAAAAAAAAAAAAAAAAAAAAAAAAAAAAAAAAAAACUvjMQj7814IbAOP+EwTn/gsE6/3XDPv94xUD/asZE/2XHRv9kyUj/XcpK/1XNUP9S0VT/T9BT/0rTV/9I1FmAAAAAANV8A//VfQT/1n4E/9Z/Bf/XfwX/14AG/9eBB//Yggf/2IMI/9mECf/ZhQr/1YMK/45OC/+RTgz/l1EM/5pTDUEAAAAAAAAAAAAAAAAAAAAAAAAAAAAAAAAAAAAAAAAAAJXANGCTwDX/kcE3/4PCO/98xD7/esdB/3HHQ/9qyUb/Zc1L/2TNTP9Zz1D/UtFU/1LUV/9M1Vn/SdZb/0bXXCDUfAT/1H0E/9V/Bf/XfwX/14AG/9eBB//Yggf/2IMI/9mECf/ZhQr/2YYK/9qHC/+5bwz/i0sL/5JPDP+YUgxCAAAAAAAAAAAAAAAAAAAAAAAAAAAAAAAAAAAAAAAAAACYwDQwlsE1/5TDN/+Nwjj/hsU8/3rHQf98yUP/cMpG/2vOS/9m0E7/XNFR/1bTVP9T11n/TNdb/0vZXf9K3F+A2YgO/9R+Bf/Wfwb/14AG/9iBB//Yggj/2IMI/9mECf/ZhQr/2YYK/9qHC//aiAz/24oN/55aDP+LSwv/k1AMRAAAAAAAAAAAAAAAAAAAAAAAAAAAAAAAAAAAAAAAAAAAva49Z6DDNf+Uwzf/l8U4/4/GPP+Cxz//f8tE/3rMRv9tzkr/Z9FO/1/TUv9Y1Vb/V9lZ/1LXWf9O2l3/Sd1g0NiLE//TfQb/1X8G/9eAB//Yggj/2IMI/9mECf/ZhQr/2YYK/9qHC//aiAz/24oN/9uLDv/YiQ//mVcM/4xMC2cAAAAAAAAAAAAAAAAAAAAAAAAAAAAAAAAAAAAAAAAAAMCsPaOmwzT/pMQ1/5nFOP+Qxjv/iMlA/3/LRP96zkf/b9BM/2vSTv9m01H/YNhX/1rZWf9T3V7/T99h/03hY//moiv70HwG/9R+B//WgQj/2IMI/9mECf/ZhQr/2YYL/9qHC//aiQz/24oN/9uLDv/cjA//3I0P/9iLEP+cXRPwjUwMEgAAAAAAAAAAAAAAAAAAAAAAAAAAAAAAAMiJFhK+qi77r8My/6jFNf+gxjj/nMc6/5PLP/+OzEL/gs5H/3rRSv9x003/aNZU/2DYV/9c2lr/V95e/1LgYf9N4WP/8rU/9sx6B//Rfgj/1YEI/9eDCf/Zhgr/2YYL/9qIC//aiQz/24oN/9uLDv/cjA//3I0P/9yOEP/dkBH/3ZES/8ODKOy4dRwjAAAAAAAAAAAAAAAAAAAAAMiJFhLBhRapv74s/7jDMP+uxTX/qcc3/53IOv+Qy0D/j85D/3/RSv95003/c9hT/2vXVf9m2Vf/X9xb/1ffX/9U4WH/UOJj//S7R8/bkxv/zH0I/9F/Cf/WhAr/2IYL/9mHC//aiQz/24oN/9uLDv/cjA//3I0Q/92PEP/dkBH/3ZES/96SE//ekxT/25Ue9d2VFnHdlRdB2ZQXQdGPF2TGiBfjxaAg/77DLv+7wy//tsUz/7HHNf+pyTn/nco9/5PQRP+P0Ub/gdZO/3nYUv9w2VX/aNxZ/2LeXP9a5GP/VuNj/1LnaP/9vzpg+r05/8h8C//Lfgn/0oIL/9aFC//Xhwz/2okN/9qKDv/cjA//3I0Q/92PEP/dkBH/3ZES/96SE//dkhT/3pQV/9yUFv/clBf/15MX/9GPF//HiRf/wIkY/8bBLP/Cwy7/xMQv/7jFMv+zyDb/rMs6/6TNPv+a0EP/i9VL/4TYT/992lP/dtxW/2jiXv9l4F3/XORj/1bmZv9W6Gjw/b86IP2/Ov/0tDD/yH0N/8p+C//Qgwv/1IYN/9eIDv/Zig//2owQ/9uOEf/cjxH/3JAS/92RE//ckxT/3JMV/9uTFv/Zkxb/1ZEX/8+OF//Hihf/wYoY/9K6KP/Pwyv/zcMs/8fEL//BxjL/ucc0/6/KOf+kzT7/mdNG/5LVSf+J103/gNpS/3fcVv9u4Fv/Z+Je/17oZ/9a6Gj/VuhosAAAAAD9vzqw/L85//K0Mf/JghH/xn0M/8yCDf/ShQ7/1IkP/9eLEf/YjRH/2o4S/9qQE//ZkRT/2ZEU/9eRFf/VkBb/0I4W/8yMF//FiBf/wo4Z/9K6J//Rwir/0cIq/9HCKv/Mwy3/xsQv/7rINf+wzTv/qs8//6PRQv+R10z/jNdN/33eVv934Vr/ceRe/2bnZP9e52b/Welp/1TrbHAAAAAA/b86QPy/Of/7vzn/97w1/9ubH//BfA3/xoAO/8uDEP/OhhH/0YkS/9KLEv/TjBP/0owU/9CMFf/OixX/yokW/8WHFv+/hBb/zaQg/9LAKf/Rwir/0cIq/9HCKv/Rwir/ysQu/8rFL/+7yTX/tMw6/6zPP/+k0kP/l9ZK/5DZTv9/3lb/eONc/3HkXv9p6WX/Y+hm/1zravBY7GwQAAAAAAAAAAD7vznA+r84//nAOP/3wDf/8bky/9qdIP/HhhX/wn8R/8SCEf/HhBL/x4UT/8aFE//EhRT/wIMV/8ONGP/PoyD/0r0o/9HCKv/Rwir/0cIq/9HCKv/Rwir/0MMr/8/DLP/HxzH/vMo2/7fNOv+o0UL/pNJD/57XSP+Q2k//id5U/4HhWP915V//aell/2jraP9f7GqgAAAAAAAAAAAAAAAA+784QPq/OP/4vzf/98A3//bAN//0wDb/8cA1/+u6MP/ktCr/2aQj/9mlI//VpSL/2rYo/9i9Kv/Vwiv/1cIr/9HCKv/Rwir/0cIq/9HCKv/Rwir/0cIq/9HDK//NxS7/xMkz/8HKNf+zzz3/qdJC/6TVRf+c10n/kd1R/4PhWP985V7/eeZg/27rZv9o7GjwYe1rEAAAAAAAAAAAAAAAAAAAAAD7vziQ+b84//fAN//3wDf/88A2//LANf/twDP/68Ez/+jBMv/mwTH/4sEv/97BLv/awS3/18Is/9XCK//Rwir/0cIq/9HCKv/Rwir/0cIq/9DDK//Rwir/zcUu/8jHMf/DyTP/uM47/6/SQP+m1UX/ndhK/5XbT/+N3lP/e+Ve/3foYf9z6mT/buxmcAAAAAAAAAAAAAAAAAAAAAAAAAAA+r84EPrAOND4wDf/98A3//bAN//ywDX/8MA1/+3AM//pwTL/5cEw/+LBL//gwS//3sEu/9fCLP/Uwiv/08Ir/9HCKv/Rwir/0cIq/9HDK//PxCz/zcUt/8rHMP/GyDL/vMw4/7vOOv+w0kD/o9dH/5/YSv+V3lH/kd9T/4XjWf9+5l7/eOliwAAAAAAAAAAAAAAAAAAAAAAAAAAAAAAAAAAAAAD6vzgQ+b848PfAN//1wDb/8sA1//HANf/uwDT/68Ay/+nBMf/mwTD/4cEv/9zBLf/Zwi3/1cIr/9XCK//Swiv/0sIr/9HCKv/QxCz/z8Ut/87FLf/JxzH/xck0/7/MN/+00T7/rtRC/6fWRv+k2En/lt1Q/5HfU/+F5Vv/fuhf0HjpYhAAAAAAAAAAAAAAAAAAAAAAAAAAAAAAAAAAAAAAAAAAAPi/NzD4wDfw9sA3//LANv/xwDX/8MA0/+vBMv/pwTH/5sEw/+XBMP/hwS//28Et/9jCLP/Vwiv/1MIr/9LCK//Rwyz/0MQs/9DELP/MxzD/xsgy/8TKNf/BzDf/tdA9/7DTQf+q1kb/nttM/5neUP+U4FP/heVb0H/oXxAAAAAAAAAAAAAAAAAAAAAAAAAAAAAAAAAAAAAAAAAAAAAAAAAAAAAA+MA3EPbAN9D0wDb/8cA1//DANP/uwDP/6cEx/+bBMP/kwTD/4cEv/9zBLf/awi3/2cIt/9XCLP/Uwyz/0sMs/9HELf/Oxi7/y8cw/8jIMv/GyTP/v804/7rPO/+w1EL/qtZF/6LaS/+b3U//k+BTwI3jVxAAAAAAAAAAAAAAAAAAAAAAAAAAAAAAAAAAAAAAAAAAAAAAAAAAAAAAAAAAAAAAAAD2wDcQ9cA2kPPANf/wwDT/7sAz/+vAMv/mwTD/5MEw/+HBL//gwS//3MIt/9nCLf/Vwy3/1cQt/9PELf/QxC3/zsYv/8vIMf/JyTP/xMo1/7zPOv+60Dz/tdNA/6vXRf+l2kn/n9tMgAAAAAAAAAAAAAAAAAAAAAAAAAAAAAAAAAAAAAAAAAAAAAAAAAAAAAAAAAAAAAAAAAAAAAAAAAAAAAAAAAAAAADzwDZA8cA1wO/ANP/twDP/6sEy/+bBMf/gwS//4MEv/97CLv/Zwi3/18Mt/9XDLf/UxC7/0MUv/9DGMP/LyDH/xcs1/8LNOP+90Dv/udE9/7XTQP+r10WgpdpJIAAAAAAAAAAAAAAAAAAAAAAAAAAAAAAAAAAAAAAAAAAAAAAAAAAAAAAAAAAAAAAAAAAAAAAAAAAAAAAAAAAAAAAAAAAAAAAAAAAAAADuwDRA7cEzsOvBMv/owTH/48Ew/9/CL//ewi7/2sIu/9nDLv/WxC7/08Qu/9HFL//QxjD/y8gy/8XLNf/BzTj/vc868LnRPaC000AgAAAAAAAAAAAAAAAAAAAAAAAAAAAAAAAAAAAAAAAAAAAAAAAAAAAAAAAAAAAAAAAAAAAAAAAAAAAAAAAAAAAAAAAAAAAAAAAAAAAAAAAAAAAAAAAAAAAAAAAAAADswDIg5sExYOPBMKDhwjDQ3cIu/9vCLv/awy//1sQu/9fEL//WxC7/0MYw4MrJM8DGyzaAws04QAAAAAAAAAAAAAAAAAAAAAAAAAAAAAAAAAAAAAAAAAAAAAAAAAAAAAAAAAAAAAAAAAAAAAD/8AAAAAAAAP/gAAAAAAAA/4AAAAAAAAD/AAAAAAAAAPwAAAAAAAAA+AAAAAAAAADwAAAAAAAAAPAAAAAAAAAA4AAAAAAAAADAAAAAAAAAAMAAAAAAAAAAgAAH//8AAACAAB///wAAAAAAP4A/AAAAAAA+AA8AAAAAAH4AAwAAAAAA/gADAAAAAAD+AAEAAAAAAP8AAAAAAAAA/wAAAAAAAAD/AAAAAAAAAP8AAAAAAAAAfgAAAAAAAAA8AAAAAAAAAAAAAAAAAAAAAAAAAAAAAAAAAAAAAACAAAAAAAAAAIAAAAAAAAAAwAAAAAEAAADAAAAAAQAAAOAAAAADAAAA4AAAAAcAAADwAAAABwAAAPgAAAAPAAAA/AAAAB8AAAD+AAAAfwAAAP+AAAD/AAAA/+AAA/8AAAD/+AAf/wAAACgAAAAgAAAAQAAAAAEAIAAAAAAAgBAAAAAAAAAAAAAAAAAAAAAAAAAAAAAAAAAAAAAAAAAAAAAAAAAAAAAAAAAAAAAAAAAAAP/mUDD/5lDw/+ZQ///mUP//5lD//+ZQ///mUP//5lD//+ZQ///mUP//5lD//+ZQ///mUP//5lD//+ZQ///mUP//5lD//+ZQ///mUP//5lD//+ZQ///mUP//5lDw/+ZQMAAAAAAAAAAAAAAAAAAAAAAAAAAAAAAAAAAAAAAAAAAA/uRO9f/mUP//5lD//+ZQ///mUP//5lD//+ZQ///mUP//5lD//+ZQ///mUP//5lD//+ZQ///mUP//5lD//+ZQ///mUP//5lD//+ZQ///mUP//5lD//+ZQ///mUP//5lDwAAAAAAAAAAAAAAAAAAAAAAAAAAAAAAAA1HgAINR4AMD/5lD//+ZQ///mUP8AAAD/AAAA/y8qD/+vnjf//+ZQ/z85FP8AAAD/AAAA/z85FP//5lD/v6w8/wAAAP//5lD/Dw4F/5+PMv//5lD//+ZQ/x8cCv9/cyj//+ZQ///mUP8AAAAAAAAAAAAAAAAAAAAAAAAAANR4AFDUeADw1HgA///mUP//5lD//+ZQ/wAAAP+vnjf/f3Mo/w8OBf/v2Ev/PzkU/19WHv+/rDz/z7tB///mUP+/rDz/AAAA///mUP9fVh7/LyoP/39zKP9vZCP/AAAA/9/JRv//5lD//+ZQ/wAAAAAAAAAAAAAAAAAAAADUeABg1HgA/9R5AP/UeQH//+ZQ///mUP//5lD/AAAA/39zKP9PRxn/Dw4F///mUP8/ORT/X1Ye/7+sPP/fyUb//+ZQ/7+sPP8AAAD//+ZQ/8+7Qf8AAAD/b2Qj/y8qD/8vKg///+ZQ///mUP//5lD/AAAAAAAAAAAAAAAA1HgAUNR4AP/UeQD/1HkB/9V6Af//5lD//+ZQ///mUP8AAAD/LyoP/w8OBf+PgS3//+ZQ/z85FP8AAAD/AAAA/39zKP//5lD/v6w8/wAAAP//5lD//+ZQ/x8cCv+PgS3/HxwK/5+PMv//5lD//+ZQ///mUP8AAAAAAAAAANR4ACDUeADw1HkA/9R5Af/VegH/1XsC///mUP//5lD//+ZQ/wAAAP+/rDz/b2Qj/z85FP//5lD/PzkU/39zKP//5lD//+ZQ///mUP+/rDz/AAAA///mUP//5lD/j4Et/w8OBf8AAAD/79hL///mUP//5lD//+ZQ/wAAAAAAAAAA1HgAwNR5AP/UeQH/1XoB/9V7Av/VewL//+ZQ///mUP//5lD/AAAA/wAAAP8AAAD/j4Et///mUP8/ORT/AAAA/wAAAP9/cyj/PzkU/wAAAP8AAAD/AAAA/z85FP/fyUb/AAAA/19WHv//5lD//+ZQ///mUP//5lD/AAAAANR4AFDUeQH/1HkB/9V6Af/VewL/1XwD/9Z8A//830z//+ZQ///mUP//5lD//+ZQ///mUP//5lD//+ZQ///mUP//5lD//+ZQ///mUP//5lD//+ZQ///mUP//5lD//+ZQ///mUP//5lD//+ZQ///mUP//5lD//+ZQ///mUPAAAAAA1HkB0NV5Af/VegH/1XsC/9V8A//WfAP/1n0E/9KJFP/53Uz//+ZQ///mUP//5lD//+ZQ///mUP//5lD//+ZQ///mUP//5lD//+ZQ///mUP//5lD//+ZQ///mUP//5lD//+ZQ///mUP//5lD//+ZQ///mUP//5lDw/+ZQMNR5ATDVeQH/1XoC/9V7Av/VfAP/1n0D/9Z9BP/WfwX/tWkI/5JPC/+bVA3/n1YN/59WDf+eVQ3/nVUNcAAAAAAAAAAAAAAAAAAAAAAAAAAAAAAAAG2+PEBvwDxgY8A/gFvCQ4BYw0VgU8RHIAAAAAAAAAAAAAAAAAAAAAAAAAAA1XkBgNV6Av/VewL/1XwD/9Z9A//WfgT/138F/9eABv/Idgf/kE4L/5pTDP+eVg3/n1YN/55VDbAAAAAAAAAAAAAAAAAAAAAAAAAAAIC9NpCAvjfwdr45/3PAPP9pw0D/YsRD/1rERf9Xx0n/UclMwE7LT0AAAAAAAAAAAAAAAADVegLA1XsC/9V8A//WfQT/1n4E/9d/Bf/XgAb/14EG/816CP+OTQr/mFIM/51WDf+eVg3wnlUNEAAAAAAAAAAAAAAAAAAAAACKvTNwjb4z/4K+Nv9+wDr/d8I9/27EQP9jxEP/X8ZG/1fHSf9Ry07/Tc9S/0rQVIAAAAAAAAAAANV7Av/VfAP/1n0E/9Z+BP/XfwX/14AG/9eBB//Yggf/2IMI/5ZTCv+UUAz/m1QN/55VDaAAAAAAAAAAAAAAAAAAAAAAAAAAAJO+MiCPvjP/isA3/4PAOP97wjz/csRA/2rFQ/9fx0f/X8pL/1LMT/9OzlL/StBU/0fWWoAAAAAA1HsD/9Z9BP/WfgT/138F/9eABv/XgQf/2III/9iDCP/ZhQn/tmsK/49NDP+YUwz/m1QNUQAAAAAAAAAAAAAAAAAAAAAAAAAAAAAAAJG/NLCVwTX/iMM6/4bEO/9zxUH/cshF/2jKSP9fykv/Xc9P/1XRUv9N1ln/SdVZ/0PYXSDUfAT/1X4E/9d/Bf/XgAb/14EH/9iCCP/YhAj/2YUJ/9mGCv/WhAv/jk4L/5JPDP+YUgxCAAAAAAAAAAAAAAAAAAAAAAAAAAAAAAAAnMAzUJ3CNP+Uwzf/i8U7/4LGP/90x0P/astI/2DOTf9e01P/WNVW/1HWWP9I2V3/Q9tgoNuMEf/VfgX/1n8G/9iBB//Yggj/2IQJ/9mFCf/Zhgr/2ogL/9qJDP/FeA3/iUsL/5NQDEQAAAAAAAAAAAAAAAAAAAAAAAAAAAAAAAC7rT6VosIz/5XDN/+NxTv/isk//3/LRf93zkn/adBN/2PSUf9d1FT/VNdY/03bXv9K3WHw2o8V/9J9Bv/WgAf/2IMI/9iECf/ZhQr/2YYK/9qIC//aiQz/24oN/9yMD//Adg//iksLiQAAAAAAAAAAAAAAAAAAAAAAAAAAAAAAAL6nONqmwjP/psU1/5vHOv+MyD7/i8tB/3fPSv9x1E//ZthW/1/XVv9V3F3/Ud9h/03hZP/srDL7znwH/9OACP/Wgwn/2YUK/9mGC//aiAv/24kN/9uLDv/cjA//3I0Q/92PEf/HfhT/snQlWAAAAAAAAAAAAAAAAAAAAADEhhY2v7Aq/q3EM/+nxTb/ocY4/5rLPv+LzEL/edFL/3PUT/9s11P/Ydxb/1rgYP9R4GL/TeFk//K5QuvKfg3/zHwI/9KBCv/YhQv/2YcM/9uJDf/biw7/3IwP/9yOEP/djxH/3ZAS/96SE//bkxn92ZQfodiSFlLPjhZExYcWiLyKHPfEwCz/vMQw/7XFMv+kyDn/ncs9/5XNQf+F0Uj/edhS/2zZVv9k3Fv/WuBg/1XjZf9S5mj/970/keysLf6/dQn/yXwK/9CCC//VhQ3/2IkO/9mKD//ajRD/244R/9uQEv/bkBP/3JIU/9mRFP/Vjxb/zYwW/8OFFv+2fhX/yLYn/8TDLv++xDD/uMUy/6vJOP+izD3/mNBD/4zVS/9/2lL/cNtY/2jiX/9c5GP/V+Vm/1HmaP/8wDgw+8A4/+WlJv+6dAr/xHsM/8qADf/QhA7/04gP/9WKEP/VjBH/1o0S/9WOE//TjhX/zosV/8eIFf+/gxX/tH0W/82tI//Rwir/y8Ms/8XELv/FxjD/tsc1/67NO/+d0EL/j9VK/4DbU/9721X/bOJe/2bkYf9b52b/VOprsAAAAAD7wDjQ+sA4/+2wLP+6ehD/uncN/8B8Dv/Ffw//x4MQ/8mFEf/JhRL/x4YU/8SEFP+/ghT/uH4U/7aEGP/QtSb/0cIq/9HCKv/Rwir/y8Qt/8TGMP+0yzj/qs4+/6DRQ/+T1kr/itlP/3ThW/9u5F//audj/1zsa/9U7G1gAAAAAPvAOGD6wDj/+MA3//bANv/gpyb/vIEV/7B0D/+2eBD/uHoR/7d7Ev+1exP/sHgT/7iIGP/NrSP/0cIq/9HCKv/Rwir/0cIq/8/DK//NxCz/wMk0/77KNv+1zjv/pdRE/5rYSv+D31b/e+Ja/2znY/9o6WX/XOxr8AAAAAAAAAAAAAAAAPrAN8D6wDf/98A2//bANv/zwDX/774y/+KyKf/fsyn/3bMp/9q0KP/cwi7/1sIr/9HCKv/Rwir/0cIq/9HCKv/Rwir/0cIq/87ELP/IxzD/uM06/7HQPv+r00P/mtpM/47fU/+F4ln/c+dh/23qZf9k72xgAAAAAAAAAAAAAAAA+8A4IPnAN/D4wDf/9sA2//LANf/xwDX/6sEx/+bBMP/lwTH/4MIu/9zCLv/Ywi3/08Ir/9LCK//Rwir/0cIq/9HCKv/Rwir/zcQt/8nGL/+7zDj/s9A+/6vUQ/+Z2kz/jt9T/4PjWv966WH/c+tl0AAAAAAAAAAAAAAAAAAAAAAAAAAA+sA4UPnAN//2wDb/9cA2//DANP/swDP/6cEy/+bBMf/gwS7/28Et/9jCLf/Wwiv/0sIr/9PCK//Rwir/0cMr/9HDK//Lxi//wsk0/7jPPP+u00L/pNZH/5ncT/+N4Vb/heVb/33nX/B26mMgAAAAAAAAAAAAAAAAAAAAAAAAAAAAAAAA+cA3YPXANv/zwDX/8cA0/+/ANP/qwTL/5sEx/+HBL//ewS7/2MIs/9bCK//Vwiz/1MIs/9LCK//RxC3/zcUu/8rIMf/Byzb/udA8/7PSQP+m10f/mtxP/5neUP+H5VrwheVbMAAAAAAAAAAAAAAAAAAAAAAAAAAAAAAAAAAAAAAAAAAA+MA3UPbANvDxwDT/7sAz/+rAMv/owTL/48Ew/9/BL//bwS3/18Is/9fCLP/Wwiz/0sMs/8/ELf/LxzD/x8kz/8LMNv+9zjn/s9JA/6fXR/+l2En/md5Q0IflWjAAAAAAAAAAAAAAAAAAAAAAAAAAAAAAAAAAAAAAAAAAAAAAAAAAAAAA98A2IPXANsDxwDT/7cEz/+rBMv/kwTD/4cEv/9/BLv/cwS3/18It/9bCLP/SxC3/0cUu/8zHMP/KyDL/wc05/7rQPP+z0kD/rtVE/6XaSpCc3k8QAAAAAAAAAAAAAAAAAAAAAAAAAAAAAAAAAAAAAAAAAAAAAAAAAAAAAAAAAAAAAAAAAAAAAPDANGDvwDTQ7MEy/+XBMP/jwTD/4MEv/9zCLf/awi3/18Mu/9TELv/Rxi//zccx/8fJNP/BzDj/u9A88LbSP6Cy1EIgAAAAAAAAAAAAAAAAAAAAAAAAAAAAAAAAAAAAAAAAAAAAAAAAAAAAAAAAAAAAAAAAAAAAAAAAAAAAAAAAAAAAAAAAAADswDIw58ExgOXBMMDgwS//3cIv/9vCLv/YxC//1MUv/8/HMf/OxzHQyMo0oMjKNGC8zzsQAAAAAAAAAAAAAAAAAAAAAAAAAAAAAAAAAAAAAAAAAAAAAAAA/wAAAP8AAAD8AAAA+AAAAPAAAADgAAAAwAAAAMAAAACAAAAAgAAAAAAB+B8AA+AHAAPAAwAHwAEAB+AAAAfgAAAH4AAAB+AAAAPAAAAAAAAAAAAAAAAAAIAAAACAAAABwAAAAcAAAAPgAAAD8AAAB/gAAA/8AAAf/wAAf//AAf8oAAAAGAAAADAAAAABACAAAAAAAGAJAAAAAAAAAAAAAAAAAAAAAAAAAAAAAAAAAAAAAAAAAAAAAAAAAAD/5lCg/+ZQ///mUP//5lD//+ZQ///mUP//5lD//+ZQ///mUP//5lD//+ZQ///mUP//5lD//+ZQ///mUP//5lD//+ZQ///mUP//5lCgAAAAAAAAAAAAAAAAAAAAAAAAAAD/5lD//+ZQ/wAAAP8AAAD/X1Ye///mUP8AAAD/AAAA/wAAAP//5lD//+ZQ/wAAAP//5lD/PzkU/5+PMv//5lD/n48y/z85FP//5lD/AAAAAAAAAAAAAAAAAAAAANR4AJD/5lD//+ZQ/wAAAP//5lD/HxwK/4+BLf8AAAD//+ZQ///mUP//5lD//+ZQ/wAAAP//5lD/n48y/xAOBf8AAAD/EA4F/5+PMv//5lD/AAAAAAAAAAAAAAAA1HgAoNR4AP//5lD//+ZQ/wAAAP8AAAD/AAAA/6+eN/8AAAD/AAAA/wAAAP//5lD//+ZQ/wAAAP//5lD/79hL/w8OBf+/rDz/Dw4F/+/YS///5lD/AAAAAAAAAADUeACQ1HgA/9R5Af//5lD//+ZQ/wAAAP/fyUb/AAAA/8+7Qf8AAAD//+ZQ///mUP//5lD//+ZQ/wAAAP//5lD//+ZQ/19WHv8fHAr/X1Ye///mUP//5lD/AAAAANR4AEDUeAD/1HkB/9V6Av//5lD//+ZQ/wAAAP8AAAD/n48y///mUP8AAAD/AAAA/wAAAP9/cyj/AAAA/wAAAP8AAAD/f3Mo/7+sPP8AAAD/v6w8///mUP//5lD/AAAAANR5AODUeQH/1XoC/9V7Av/wvzP//+ZQ///mUP//5lD//+ZQ///mUP//5lD//+ZQ///mUP//5lD//+ZQ///mUP//5lD//+ZQ///mUP//5lD//+ZQ///mUP//5lCg1HkAUNV5Af/VegL/1XsC/9Z9A//WfgT/tmkH/59WDP+gVw3/n1YN/51VDf+cVA5gAAAAAAAAAAAAAAAAAAAAAAAAAAAAAAAAAAAAAAAAAAAAAAAAAAAAAAAAAAAAAAAA1XkBoNV6Av/VfAP/1n0D/9Z+BP/XfwX/tWkI/55WDP+fVw3/n1YN/51VDXAAAAAAAAAAAAAAAAB+vTZQdb450HPAPP9lwUD/WsRF/1jGSP9Oy0+wR85TMAAAAAAAAAAA1XoC4NV8A//WfQT/1n4E/9d/Bf/XgQb/w3MJ/5pUC/+fVg3/n1YNwAAAAAAAAAAAAAAAAI69MiCHvjX/icA3/3PBPf9sw0D/ZcZF/17ISf9TzU//Ts9S8EbOU2AAAAAA1HwD/9Z9BP/WfgX/14AG/9eBB//Ygwj/2YQJ/5hTC/+cVQ3/nVUNYQAAAAAAAAAAAAAAAAAAAACXvzKwisA3/4DFPf92xkD/bMZD/2TJSP9by0z/TdFV/0fWW/9B1Vsw1HwE/9Z+Bf/XgAb/14EH/9iDCP/ZhAn/2YYK/7ZsC/+VUQz/mlMNQQAAAAAAAAAAAAAAAAAAAACawDJQlMM3/4HEPP95xkD/dclE/2XOTf9k0E//V9JT/0jXXP9C2mCw3IwR/9V/Bv/YgQf/2IMI/9mFCf/Zhgr/2ogM/9uKDf+bWAz/k1AMRAAAAAAAAAAAAAAAAAAAAAC+rj+VlsQ3/4vFPP+KyT//e85I/2fPTv9f1FT/Wdpa/0zaXf9K32P/3pQX/9R+B//Xgwj/2YUJ/9mGC//aiAz/24oN/9yMD//YixD/q20g3AAAAAAAAAAAAAAAAAAAAADBqDboqcY2/57FN/+KykD/ic9F/23ST/9m2Vb/YNxa/1neXv9N32L/67A39818CP/Vggn/2YcL/9qIDP/big3/3IwP/9yOEP/dkBL/3pIT/9CRLODdlBZR05AXQ8SHFre/tir/rMY1/6TIOf+byTz/h9FI/4DWTv9u3Fj/Y9tZ/1nfX/9Q4mT/8LpB0NyYHP/Mfwr/1IUM/9iIDf/aiw//240Q/9yPEv/ckRP/3JIV/9qTFf/Sjxb/xYgX/8WhIf/DxTD/tcY0/6jKOv+gzj//l9FE/3zXUP9u3Fj/auFd/2DjYf9U5mf/+8A1UPrANP/dnR//xn0N/86DDv/TiA//1YsR/9aOEv/WjxT/044V/8uLFv/AhRb/x6Af/83CK//HxC7/wcUw/7TJN/+szz3/l9VI/4LaUv9031n/buRf/1zpaP9Z7GywAAAAAPrANeD4wDX/77Ut/9KWHP/EghL/woER/8OCEv/CgxT/wYUW/8abHv/RuSf/0cIq/9DDK//MxC3/x8Uv/7zKNv+uzz3/mNVI/5DbUP9841v/cORf/2XpZv9e7m1QAAAAAPrANkD4wDX/9sA0//PANP/uwDL/47cr/9yzKP/buCn/2MIs/9HCKv/Rwir/0cIq/9HCKv/Qwyv/w8gz/7fOO/+n00L/o9RE/4/bUP+D4Vj/bepl/2juasAAAAAAAAAAAAAAAAD4wDWg98A1//TANP/ywDT/7MAy/+bBMP/dwS3/2sIs/9PCK//Rwir/0sIq/9HCKv/KxzD/wMo1/7rNOf+zzz3/pdZG/5ndT/995l3/duli8GztaDAAAAAAAAAAAAAAAAAAAAAA9sA1oPTANP/zwDT/7cAz/+vAMv/kwTD/3cEt/9zCLv/Wwi3/08Mr/9HELP/Lxi//xco1/7fQPf+z0j//qdZF/5HgVP+I5Fn/g+deUAAAAAAAAAAAAAAAAAAAAAAAAAAAAAAAAPfANqDzwDT/78A0/+rAMv/nwTH/4MEv/9zCLv/Ywy7/08Ms/8/FLv/Pxi//xco1/7zQPP+v1kT/o9lK/5vdUPCS4VUwAAAAAAAAAAAAAAAAAAAAAAAAAAAAAAAAAAAAAAAAAAD2wDZA78A04OrAMv/owTH/48Ew/97CL//awy//1cUx/9PGMf/NxzL/x8s2/73PO/+400D/rNdGkJzeUBAAAAAAAAAAAAAAAAAAAAAAAAAAAAAAAAAAAAAAAAAAAAAAAAAAAAAAAAAAAO7BNFDqwTKg5MEx4ODDMf/awy//2MUx/9HINP/MyjXww845sL/PO3C11EIQAAAAAAAAAAAAAAAAAAAAAAAAAAAAAAAA+AAAAPgAAADwAAAA4AAAAMAAAACAAAAAgAAAAAAP/wAAHAMAADgBAAA8AAAAPAAAADwAAAA8AAAAAAAAAAAAAAAAAACAAAAAgAABAMAAAQDgAAMA8AAHAPgADwD+AD8AKAAAABQAAAAoAAAAAQAgAAAAAACQBgAAAAAAAAAAAAAAAAAAAAAAAAAAAAAAAAAAAAAAAAAAAAAAAAAA/uNO1v/mUP//5lD//+ZQ///mUP//5lD//+ZQ///mUP//5lD//+ZQ///mUP//5lD//+ZQ///mUP//5lDQAAAAAAAAAAAAAAAAAAAAANR4AJD/5lD/AAAA/x8cCv8vKg///+ZQ/wAAAP8AAAD/v6w8///mUP8AAAD//+ZQ/wAAAP+/rDz/AAAA///mUP8AAAAAAAAAANR4ABDUeADQ1HkA///mUP8AAAD/X1Ye/wAAAP//5lD/AAAA/39zKP//5lD//+ZQ/wAAAP//5lD/PzkU/x8cCv8/ORT//+ZQ/wAAAAAAAAAA1HgA0NR5AP/VegH//+ZQ/wAAAP8/ORT/PzkU///mUP8AAAD/f3Mo///mUP//5lD/AAAA///mUP+PgS3/AAAA/39zKP//5lD/AAAAANR4AJDUeQH/1XoB/9V7Av//5lD/AAAA/w8OBf8/ORT//+ZQ/wAAAP8/ORT/z7tB/z85FP8AAAD/PzkU/8+7Qf8AAAD/z7tB///mUP/UeAAg1HkB/9V6Af/VewL/1nwD//HPQ///5lD//+ZQ///mUP//5lD//+ZQ///mUP//5lD//+ZQ///mUP//5lD//+ZQ///mUP//5lD//+ZQ0NR5AZDVegH/1XsC/9Z9A//WfgX/t2kI/51VDf+gVg3/nlUN8JxUDjAAAAAAAAAAAH28NRB1vzlQY8FAgGHDQ2BUxEcgAAAAAAAAAAAAAAAA1XoC0NV7Av/WfQP/1n4F/9eABv+4agn/m1QN/59WDf+eVQ1wAAAAAAAAAACIvTRAjb81/4LAOf9vwT3/X8ND/1PLTf9GzVLgPtBXQAAAAADVewL/1n0E/9Z+Bf/XgAb/2IIH/817Cv+XUgz/n1UN8AAAAAAAAAAAAAAAAJq+MUCYwDT/jME3/3bFQf9vx0T/WMtM/1LRU/9O01bwQNRaMNV9BP/WfwX/14AG/9iCB//ZhAn/2YYK/6RdDP+aUw3CAAAAAAAAAAAAAAAAAAAAAJnAM+CPwzn/hMc//27JRv9qz0v/W9BQ/1DTVv892WDA3o0R/9eABv/Yggj/2YQJ/9mGCv/aiAz/04QO/5VTDvSVUAwRAAAAAAAAAAAAAAAAsb46+prGOf+axzr/h8xD/2nTUP9d2Vj/Ud5g/0/eYf/clhz71oAI/9mECf/Zhgv/2okM/9uLDv/cjQ//0IUQ/7J0J8cAAAAAyIcVEriHIZ66wi//sMU0/53LPf+H0Ef/c9VR/3HYVP9V4mL/TuNl/+y0OffJfQz/1oQL/9iIDP/aiw7/24wQ/9yPEf/bkBP/15AU/8qIFdS0exTzupof/8TDLv+2xzX/o8s8/5zQQv+C1k7/bN1Z/2TjYP9R42X/9747oPC1Lv+9eQ3/zYIN/9OID//UihD/04wS/86KE//EhRT/rncT/7mTHP/Pwiv/xMQv/7bHNf+n0D//mNFE/4bXTv9731j/bOVh/1jsbOD7vzUg+sA1//W9M//Gjxv/rXMQ/650D/+wdRH/om4R/6t/F//PryX/0cIq/9HCKv/Qwyz/xMYw/6/OPP+p0kH/kdlN/3bjXf9f7Gr/We5tgAAAAAD7vzaQ98A0//TANP/vwDL/5rot/9uyKP/ZwSz/1sIs/9HCKv/Swir/0cIq/9DDLP/CyTT/t846/53ZS/+R31P/fONc/23sZ/Bg8G0QAAAAAPu/NhD4vzXQ9cA1//DAM//swDL/5cEw/+DBLv/Ywiz/0cIq/9LCKv/Swir/y8Uu/8LKNP+5zjr/qdZG/43gVf995l7/bexnUAAAAAAAAAAAAAAAAPq/NxD4wDbQ9cA1/+3ANP/pwDL/48Ev/9nCLP/Vwiv/1MMr/9LDK//OxS7/vsw4/7TTQf+s1UT/lt9S/4jkWWAAAAAAAAAAAAAAAAAAAAAAAAAAAPi/NhD1wDWQ78A0/+rAM//hwS//3sEu/9nCLf/Vwy3/zscx/8nJNP/Fyzb/stVE/6faSsCf3U8wAAAAAAAAAAAAAAAAAAAAAAAAAAAAAAAAAAAAAAAAAAD0wDUg7MAzkOXCMdDiwjH/2sMv/9fEMP/OyDL/y8s24L7QPaC9zzxAAAAAAAAAAAAAAAAAAAAAAAAAAAD4AAAA8AAAAMAAAADAAAAAgAAAAAAAAAAAMHAAAGAQAADgAAAA8AAAAHAAAABAAAAAAAAAAAAAAAAAAACAAAAAgAAQAMAAMADgAHAA+AHwACgAAAAQAAAAIAAAAAEAIAAAAAAAQAQAAAAAAAAAAAAAAAAAAAAAAAAAAAAAAAAAAP/mUPD/5lD//+ZQ///mUP//5lD//+ZQ///mUP//5lD//+ZQ///mUP//5lD//+ZQ///mUP//5lDwAAAAAAAAAAD/5lD/Dw4F/w8OBf/fyUb/PzkU/y8qD//Pu0H//+ZQ/wAAAP//5lD/Dw4F/39zKP8PDgX//+ZQ/wAAAADUeAAg/+ZQ/w8OBf8PDgX/38lG/z85FP8vKg//z7tB///mUP8AAAD//+ZQ/19WHv8fHAr/X1Ye///mUP8AAAAA1HgA0P/mUP8PDgX/Dw4F/9/JRv8/ORT/LyoP/8+7Qf8/ORT/AAAA/z85FP+/rDz/AAAA/8+7Qf//5lD/1HgAYNV5Af/94Ev//+ZQ///mUP//5lD//+ZQ///mUP//5lD//+ZQ///mUP//5lD//+ZQ///mUP//5lD//+ZQ8NV5AcDVewL/1n0D/9d/Bf+yZgr/oVcN/59WDfCdVQ0wAAAAAIW9NiCGvjdwacE/sFfDRcBNyExwP89VIAAAAADUewL/1n0E/9d/Bf/XgQf/vG4J/59WDf+fVg2AAAAAAAAAAACavzOwiL83/4DCO/9mw0L/UM5Q/0XSV/A51Fsw0HoE/9V+Bf/XgQf/2IQI/9aDCv+cVQz/n1YNQAAAAAAAAAAAm78zYJLBN/+Oxjz/ZspI/2LRUP9R11n/P9ddwNaKD//SfQf/2IQJ/9mGCv/aiQz/v3UO/49ODIcAAAAAAAAAAMi2Q6KXxDj/jck//3XNR/9u1FD/VNdY/0vdYP/doCT7yXoI/9aEC//aiQ3/3IwP/92PEf/Pih/80Y8jZdiUF4LGqyj+pcc4/5XMQP+H1Er/btRQ/2LgXv9L5Wf/7LY87MJ/Ef/FfAz/0oUO/9mMEf/bkBP/2pMV/9KPF/+8jBr/0cIq/7/EMP+qyzr/j9RJ/4DbU/9o4V7/V+Zm//a9MGD0vTD/0pke/7d8Ef+5eRD/vH4S/7aCFv/HoiH/0cIq/9HCKv++yTX/scw6/5/WSP+N21D/aetn/1rraqAAAAAA9L4x0PK/Mv/rvzD/5sAu/+XBMP/YwSz/0cIq/9HCKv/Rwir/x8Yw/7/LN/+o1UX/jd5T/23qZf9l72wgAAAAAPe+MyD2vjPw8L8y/+jAMP/lwTD/28Et/9rDLv/Twyv/z8Yv/8nHMf+6zzz/odhK/5PeUv+E5l1gAAAAAAAAAAAAAAAA+L81IPa/NdDwwDT/7cE0/+HCMf/fwzH/18Ux/9HGMf/DzDj/s9NC/6vWRvCW4FRgAAAAAAAAAAAAAAAAAAAAAAAAAAAAAAAA88A1YO3CNcDjwjL/3cMx/9rGNP/Oyzj/xc880L3SQICo2UoQAAAAAAAAAAAAAAAAwAAAAMAAAACAAAAAgAAAAAAAAAAAgQAAAYAAAAGAAAABgAAAAAAAAAAAAAAAAAAAgAAAAIABAADAAwAA8AcAAA==;fontStyle=1;fontSize=18;" parent="1" vertex="1">
          <mxGeometry x="70" y="222" width="116" height="116" as="geometry" />
        </mxCell>
        <mxCell id="dwZVEHyLOAlSRewtTifx-10" value="&lt;b style=&quot;border-color: var(--border-color); font-family: Helvetica; font-size: 12px; font-style: normal; font-variant-ligatures: normal; font-variant-caps: normal; letter-spacing: normal; orphans: 2; text-align: center; text-indent: 0px; text-transform: none; widows: 2; word-spacing: 0px; -webkit-text-stroke-width: 0px; background-color: rgb(251, 251, 251); text-decoration-thickness: initial; text-decoration-style: initial; text-decoration-color: initial;&quot;&gt;&lt;font style=&quot;border-color: var(--border-color); font-size: 16px;&quot;&gt;&lt;font color=&quot;#ff2b5d&quot;&gt;Ask For Run As Adminstrator&lt;/font&gt;&lt;br style=&quot;border-color: var(--border-color);&quot;&gt;&lt;/font&gt;&lt;/b&gt;" style="text;whiteSpace=wrap;html=1;" parent="1" vertex="1">
          <mxGeometry x="189" y="209" width="130" height="40" as="geometry" />
        </mxCell>
        <mxCell id="dwZVEHyLOAlSRewtTifx-12" value="" style="shape=image;verticalLabelPosition=bottom;labelBackgroundColor=default;verticalAlign=top;aspect=fixed;imageAspect=0;image=https://sm.pcmag.com/pcmag_au/how-to/1/15-reasons/15-reasons-to-use-the-microsoft-edge-web-browser-on-windows_atub.jpg;" parent="1" vertex="1">
          <mxGeometry x="290" y="-190" width="337.78" height="190" as="geometry" />
        </mxCell>
        <mxCell id="dwZVEHyLOAlSRewtTifx-13" value="&lt;b&gt;&lt;font style=&quot;font-size: 19px;&quot;&gt;Open Microsoft Edge&lt;/font&gt;&lt;/b&gt;" style="text;html=1;strokeColor=none;fillColor=none;align=center;verticalAlign=middle;whiteSpace=wrap;rounded=0;" parent="1" vertex="1">
          <mxGeometry x="500" y="30" width="60" height="30" as="geometry" />
        </mxCell>
      </root>
    </mxGraphModel>
  </diagram>
  <diagram id="4v3Z-0q5-n3T-JT9das6" name="Page-2">
    <mxGraphModel dx="969" dy="484" grid="1" gridSize="10" guides="1" tooltips="1" connect="1" arrows="1" fold="1" page="1" pageScale="1" pageWidth="850" pageHeight="1100" math="0" shadow="0">
      <root>
        <mxCell id="0" />
        <mxCell id="1" parent="0" />
      </root>
    </mxGraphModel>
  </diagram>
</mxfile>
